<svg xmlns="http://www.w3.org/2000/svg" xmlns:xlink="http://www.w3.org/1999/xlink" width="113" height="113" viewBox="0 0 113 113">
  <defs>
    <filter id="Trazado_982547" x="0" y="0" width="113" height="113" filterUnits="userSpaceOnUse">
      <feOffset dy="3" input="SourceAlpha"/>
      <feGaussianBlur stdDeviation="3" result="blur"/>
      <feFlood flood-opacity="0.161"/>
      <feComposite operator="in" in2="blur"/>
      <feComposite in="SourceGraphic"/>
    </filter>
  </defs>
  <g id="Grupo_1223680" data-name="Grupo 1223680" transform="translate(-377.734 -743.216)">
    <g id="Grupo_1208028" data-name="Grupo 1208028" transform="translate(386.734 749.216)">
      <g id="Grupo_1177675" data-name="Grupo 1177675" transform="translate(0 0)">
        <g id="Grupo_1176928" data-name="Grupo 1176928" transform="translate(0)">
          <g id="Grupo_1172322" data-name="Grupo 1172322">
            <g id="Grupo_1164700" data-name="Grupo 1164700">
              <g id="Grupo_1160931" data-name="Grupo 1160931">
                <g id="Grupo_1160749" data-name="Grupo 1160749">
                  <g id="Grupo_1158891" data-name="Grupo 1158891">
                    <g id="Grupo_1157406" data-name="Grupo 1157406">
                      <g id="Grupo_1155793" data-name="Grupo 1155793">
                        <g id="Grupo_1154704" data-name="Grupo 1154704">
                          <g id="Grupo_1150790" data-name="Grupo 1150790">
                            <g id="Grupo_1154214" data-name="Grupo 1154214" transform="translate(0)">
                              <g id="Grupo_1152583" data-name="Grupo 1152583">
                                <g id="Grupo_1146973" data-name="Grupo 1146973">
                                  <g id="Grupo_1146954" data-name="Grupo 1146954">
                                    <g transform="matrix(1, 0, 0, 1, -9, -6)" filter="url(#Trazado_982547)">
                                      <g id="Trazado_982547-2" data-name="Trazado 982547" transform="translate(9 6)" fill="#d9faea">
                                        <path d="M 47.50000762939453 93.49986267089844 C 41.28937911987305 93.49986267089844 35.26534271240234 92.28383636474609 29.59519386291504 89.88558197021484 C 24.11772727966309 87.56880950927734 19.19814109802246 84.25183868408203 14.97310066223145 80.02679443359375 C 10.74804782867432 75.8017578125 7.431074142456055 70.88218688964844 5.114300727844238 65.40471649169922 C 2.716034412384033 59.73458480834961 1.500007629394531 53.71054458618164 1.500007629394531 47.49993133544922 C 1.500007629394531 41.2893180847168 2.716034412384033 35.26527786254883 5.114300727844238 29.59514427185059 C 7.431074142456055 24.11767768859863 10.74804782867432 19.19810485839844 14.97310066223145 14.97306442260742 C 19.19814109802246 10.74802494049072 24.11772727966309 7.431051254272461 29.59519386291504 5.114277839660645 C 35.26534271240234 2.71602463722229 41.28937911987305 1.499997973442078 47.50000762939453 1.499997973442078 C 53.71063613891602 1.499997973442078 59.73467254638672 2.71602463722229 65.40482330322266 5.114277839660645 C 70.88228607177734 7.431051254272461 75.80187225341797 10.74802494049072 80.02691650390625 14.97306442260742 C 84.25196838378906 19.19810485839844 87.56893920898438 24.11767768859863 89.88571166992188 29.59514427185059 C 92.28398132324219 35.26527786254883 93.50000762939453 41.2893180847168 93.50000762939453 47.49993133544922 C 93.50000762939453 53.71054458618164 92.28398132324219 59.73458480834961 89.88571166992188 65.40471649169922 C 87.56893920898438 70.88218688964844 84.25196838378906 75.8017578125 80.02691650390625 80.02679443359375 C 75.80187225341797 84.25183868408203 70.88228607177734 87.56880950927734 65.40482330322266 89.88558197021484 C 59.73467254638672 92.28383636474609 53.71063613891602 93.49986267089844 47.50000762939453 93.49986267089844 Z" stroke="none"/>
                                        <path d="M 47.50000762939453 2.999992370605469 C 41.4912223815918 2.999992370605469 35.66377639770508 4.1761474609375 30.17951202392578 6.495796203613281 C 24.88085174560547 8.736930847167969 20.12152862548828 11.94596099853516 16.03376007080078 16.03372955322266 C 11.94597625732422 20.12148284912109 8.736961364746094 24.88080596923828 6.495803833007812 30.17946624755859 C 4.176162719726562 35.66371536254883 3.000007629394531 41.49116134643555 3.000007629394531 47.49993133544922 C 3.000007629394531 53.50870132446289 4.176162719726562 59.33614730834961 6.495803833007812 64.82038879394531 C 8.736961364746094 70.11905670166016 11.94597625732422 74.87836456298828 16.03376007080078 78.96613311767578 C 20.12152862548828 83.05390167236328 24.88085174560547 86.26291656494141 30.17951202392578 88.50406646728516 C 35.66377639770508 90.82369995117188 41.4912223815918 91.99985504150391 47.50000762939453 91.99985504150391 C 53.50879287719727 91.99985504150391 59.33623886108398 90.82369995117188 64.82049560546875 88.50406646728516 C 70.11916351318359 86.26291656494141 74.87848663330078 83.05390167236328 78.96625518798828 78.96613311767578 C 83.05403900146484 74.87836456298828 86.26305389404297 70.11905670166016 88.50421142578125 64.82038879394531 C 90.8238525390625 59.33614730834961 92.00000762939453 53.50870132446289 92.00000762939453 47.49993133544922 C 92.00000762939453 41.49116134643555 90.8238525390625 35.66371536254883 88.50421142578125 30.17946624755859 C 86.26305389404297 24.88080596923828 83.05403900146484 20.12148284912109 78.96625518798828 16.03372955322266 C 74.87848663330078 11.94596099853516 70.11916351318359 8.736930847167969 64.82049560546875 6.495796203613281 C 59.33623886108398 4.1761474609375 53.50879287719727 2.999992370605469 47.50000762939453 2.999992370605469 M 47.50000762939453 -7.62939453125e-06 C 73.73352813720703 -7.62939453125e-06 95.00000762939453 21.26644134521484 95.00000762939453 47.49993133544922 C 95.00000762939453 73.73342132568359 73.73352813720703 94.99985504150391 47.50000762939453 94.99985504150391 C 21.26648712158203 94.99985504150391 7.62939453125e-06 73.73342132568359 7.62939453125e-06 47.49993133544922 C 7.62939453125e-06 21.26644134521484 21.26648712158203 -7.62939453125e-06 47.50000762939453 -7.62939453125e-06 Z" stroke="none" fill="#277e53"/>
                                      </g>
                                    </g>
                                  </g>
                                </g>
                              </g>
                            </g>
                          </g>
                        </g>
                      </g>
                    </g>
                  </g>
                </g>
              </g>
            </g>
          </g>
        </g>
      </g>
    </g>
    <g id="lesson_1575406" transform="translate(403.877 768.388)">
      <path id="Trazado_1176000" data-name="Trazado 1176000" d="M278.609,56.238V90.616H254.321V92.64a2.049,2.049,0,0,1-.243.962l.243.05h27.324V56.238Zm0,0" transform="translate(-221.94 -49.124)" fill="#00ccb3"/>
      <path id="Trazado_1176001" data-name="Trazado 1176001" d="M262.528,40H256V76.432h24.288V40Zm0,0" transform="translate(-223.619 -34.94)" fill="#e6e7e8"/>
      <path id="Trazado_1176002" data-name="Trazado 1176002" d="M310.264,17.108v4.048l-2.378.476a8.46,8.46,0,0,1-.8,1.923l1.346,2.014-2.864,2.864-2.014-1.346a8.46,8.46,0,0,1-1.923.8l-.476,2.378h-4.048l-.476-2.378a8.459,8.459,0,0,1-1.923-.8L292.7,28.432l-2.864-2.864,1.346-2.014a8.459,8.459,0,0,1-.8-1.923L288,21.156V17.108l2.378-.476a8.459,8.459,0,0,1,.8-1.923L289.832,12.7,292.7,9.832l2.014,1.346a8.459,8.459,0,0,1,1.923-.8L297.108,8h4.048l.476,2.378a8.459,8.459,0,0,1,1.923.8l2.014-1.346,2.864,2.864-1.346,2.014a8.46,8.46,0,0,1,.8,1.923Zm0,0" transform="translate(-251.57 -6.988)" fill="#ffa733"/>
      <path id="Trazado_1176003" data-name="Trazado 1176003" d="M35.324,92.64V90.616H11.036V56.238H8V93.652H35.324l.243-.05A2.048,2.048,0,0,1,35.324,92.64Zm0,0" transform="translate(-6.99 -49.124)" fill="#00ccb3"/>
      <path id="Trazado_1176004" data-name="Trazado 1176004" d="M32,40H56.288V76.432H32Zm0,0" transform="translate(-27.954 -34.94)" fill="#e6e7e8"/>
      <path id="Trazado_1176005" data-name="Trazado 1176005" d="M216,392h22.264v4.048H216Zm0,0" transform="translate(-188.678 -342.412)" fill="#5aaae7"/>
      <path id="Trazado_1176006" data-name="Trazado 1176006" d="M394.024,392a2.024,2.024,0,0,1,0,4.048H392V392Zm0,0" transform="translate(-342.414 -342.412)" fill="#3d9ae2"/>
      <path id="Trazado_1176007" data-name="Trazado 1176007" d="M174.072,392v4.048H173.06L168,394.024,173.06,392Zm0,0" transform="translate(-146.75 -342.412)" fill="#1e81ce"/>
      <path id="Trazado_1176008" data-name="Trazado 1176008" d="M48,416h6.072A3.036,3.036,0,1,1,48,416Zm0,0" transform="translate(-41.93 -363.376)" fill="#898890"/>
      <path id="Trazado_1176009" data-name="Trazado 1176009" d="M40.753,384.111a2.023,2.023,0,0,1-.658,3.937H34.024A2.03,2.03,0,0,1,32,386.024a1.978,1.978,0,0,1,.6-1.427,1.929,1.929,0,0,1,.769-.486,2,2,0,0,1,.658-.111H40.1A2,2,0,0,1,40.753,384.111Zm0,0" transform="translate(-27.954 -335.424)" fill="#acabb1"/>
      <path id="Trazado_1176010" data-name="Trazado 1176010" d="M64,152H80.192v8.1H64Zm0,0" transform="translate(-55.906 -132.772)" fill="#78b9eb"/>
      <path id="Trazado_1176011" data-name="Trazado 1176011" d="M346.12,61.06A5.06,5.06,0,1,1,341.06,56,5.06,5.06,0,0,1,346.12,61.06Zm0,0" transform="translate(-293.498 -48.916)" fill="#ff6243"/>
      <path id="Trazado_1176012" data-name="Trazado 1176012" d="M228.048,90.408v2.024a2.024,2.024,0,1,1-4.048,0V56h4.048Zm0,0" transform="translate(-195.666 -48.916)" fill="#ff9811"/>
      <path id="Trazado_1176013" data-name="Trazado 1176013" d="M16.1,264A8.106,8.106,0,0,0,8,272.1a7.967,7.967,0,0,0,.6,3.036,8.082,8.082,0,0,0,3.805,4.159,2,2,0,0,1,.658-.111h6.072a2,2,0,0,1,.658.111,8.082,8.082,0,0,0,3.805-4.159,7.967,7.967,0,0,0,.6-3.036,8.1,8.1,0,0,0-8.1-8.1Zm0,0" transform="translate(-6.99 -230.604)" fill="#ffd422"/>
      <path id="Trazado_1176014" data-name="Trazado 1176014" d="M26.024,34.024H48.288V68.432H41.2v2.024h7.084v1.012a3.036,3.036,0,1,0,6.072,0V70.456H77.636a1.012,1.012,0,0,0,1.012-1.012V52.24H76.624V68.432H54.36V34.024h2.024V32H53.348a1.012,1.012,0,0,0-1.012,1.012v1.012H50.312V33.012A1.012,1.012,0,0,0,49.3,32H25.012A1.012,1.012,0,0,0,24,33.012V59.324h2.024Zm26.312,2.024v35.42a1.012,1.012,0,1,1-2.024,0V36.048Zm0,0" transform="translate(-20.966 -27.952)"/>
      <path id="Trazado_1176015" data-name="Trazado 1176015" d="M160,344h6.072v2.024H160Zm0,0" transform="translate(-139.762 -300.484)"/>
      <path id="Trazado_1176016" data-name="Trazado 1176016" d="M0,56.23H2.024V82.513H0Zm0,0" transform="translate(-0.002 -49.117)"/>
      <path id="Trazado_1176017" data-name="Trazado 1176017" d="M56,80h4.048v2.024H56Zm0,0" transform="translate(-48.918 -69.88)"/>
      <path id="Trazado_1176018" data-name="Trazado 1176018" d="M104,80h12.144v2.024H104Zm0,0" transform="translate(-90.846 -69.88)"/>
      <path id="Trazado_1176019" data-name="Trazado 1176019" d="M56,112H74.216v2.024H56Zm0,0" transform="translate(-48.918 -97.832)"/>
      <path id="Trazado_1176020" data-name="Trazado 1176020" d="M296.288,160.23v23.247H272V185.5h25.3a1.012,1.012,0,0,0,1.012-1.012V160.23Zm0,0" transform="translate(-237.594 -139.961)"/>
      <path id="Trazado_1176021" data-name="Trazado 1176021" d="M56,153.108a1.012,1.012,0,0,0,1.012,1.012H73.2a1.012,1.012,0,0,0,1.012-1.012v-8.1A1.012,1.012,0,0,0,73.2,144H57.012A1.012,1.012,0,0,0,56,145.012Zm2.024-7.084H72.192V152.1H58.024Zm0,0" transform="translate(-48.918 -125.784)"/>
      <path id="Trazado_1176022" data-name="Trazado 1176022" d="M120,176h2.024v2.024H120Zm0,0" transform="translate(-104.822 -153.736)"/>
      <path id="Trazado_1176023" data-name="Trazado 1176023" d="M152,176h2.024v2.024H152Zm0,0" transform="translate(-132.774 -153.736)"/>
      <path id="Trazado_1176024" data-name="Trazado 1176024" d="M88,176h2.024v2.024H88Zm0,0" transform="translate(-76.87 -153.736)"/>
      <path id="Trazado_1176025" data-name="Trazado 1176025" d="M304,240h14.168v2.024H304Zm0,0" transform="translate(-265.546 -209.64)"/>
      <path id="Trazado_1176026" data-name="Trazado 1176026" d="M304,272h14.168v2.024H304Zm0,0" transform="translate(-265.546 -237.592)"/>
      <path id="Trazado_1176027" data-name="Trazado 1176027" d="M334.072,60.144A6.072,6.072,0,1,0,328,54.072,6.072,6.072,0,0,0,334.072,60.144Zm0-10.12a4.048,4.048,0,1,1-4.048,4.048A4.048,4.048,0,0,1,334.072,50.024Zm0,0" transform="translate(-286.51 -41.928)"/>
      <path id="Trazado_1176028" data-name="Trazado 1176028" d="M280,14.168a1.013,1.013,0,0,0,.809.992l1.8.359a10.069,10.069,0,0,0,.4.983L282,18.02a1.011,1.011,0,0,0,.127,1.277l2.864,2.866a1.011,1.011,0,0,0,1.277.127l1.518-1.012a10.067,10.067,0,0,0,.983.4l.362,1.8a1.013,1.013,0,0,0,.992.809h4.048a1.013,1.013,0,0,0,.992-.809l.359-1.8a10.067,10.067,0,0,0,.983-.4l1.518,1.012a1.011,1.011,0,0,0,1.277-.126l2.866-2.864a1.011,1.011,0,0,0,.126-1.277L301.277,16.5a10.061,10.061,0,0,0,.4-.983l1.8-.362a1.012,1.012,0,0,0,.809-.992V10.12a1.012,1.012,0,0,0-.809-.992l-1.8-.359a10.061,10.061,0,0,0-.4-.983l1.012-1.518a1.011,1.011,0,0,0-.127-1.28L299.3,2.125A1.011,1.011,0,0,0,298.023,2L296.5,3.011a10.061,10.061,0,0,0-.983-.4l-.362-1.8A1.013,1.013,0,0,0,294.168,0H290.12a1.013,1.013,0,0,0-.992.809l-.359,1.8a10.067,10.067,0,0,0-.983.4L286.268,2a1.011,1.011,0,0,0-1.277.126l-2.866,2.864A1.011,1.011,0,0,0,282,6.265l1.012,1.518a10.061,10.061,0,0,0-.4.983l-1.8.362a1.013,1.013,0,0,0-.809.992Zm2.024-3.218,1.566-.314a1.011,1.011,0,0,0,.774-.714,8.079,8.079,0,0,1,.709-1.709,1.013,1.013,0,0,0-.042-1.054l-.884-1.326,1.69-1.69,1.326.884a1.011,1.011,0,0,0,1.053.042,8.1,8.1,0,0,1,1.709-.708,1.013,1.013,0,0,0,.715-.774l.309-1.562h2.389l.314,1.566a1.011,1.011,0,0,0,.714.774,8.076,8.076,0,0,1,1.709.709,1.013,1.013,0,0,0,1.053-.042l1.326-.885,1.69,1.69-.884,1.326a1.011,1.011,0,0,0-.042,1.054,8.1,8.1,0,0,1,.708,1.709,1.013,1.013,0,0,0,.774.715l1.562.309v2.389l-1.566.314a1.011,1.011,0,0,0-.774.714,8.071,8.071,0,0,1-.709,1.709,1.013,1.013,0,0,0,.042,1.054l.885,1.326-1.69,1.69-1.326-.884a1.011,1.011,0,0,0-1.054-.042,8.1,8.1,0,0,1-1.709.708,1.013,1.013,0,0,0-.715.774l-.309,1.562H290.95l-.314-1.566a1.011,1.011,0,0,0-.714-.774,8.075,8.075,0,0,1-1.709-.709,1.013,1.013,0,0,0-1.053.042l-1.326.885-1.69-1.69.884-1.326a1.011,1.011,0,0,0,.042-1.054,8.1,8.1,0,0,1-.708-1.709,1.013,1.013,0,0,0-.774-.715l-1.563-.309Zm0,0" transform="translate(-244.582 0)"/>
      <path id="Trazado_1176029" data-name="Trazado 1176029" d="M268.063,157.281a16.357,16.357,0,0,0,1.61,2.115l1.5-1.353a14.242,14.242,0,0,1-1.409-1.851Zm0,0" transform="translate(-234.155 -136.433)"/>
      <path id="Trazado_1176030" data-name="Trazado 1176030" d="M307.593,182.4a14.185,14.185,0,0,1-14.949-2.4l-1.34,1.518a16.207,16.207,0,0,0,17.089,2.745Zm0,0" transform="translate(-254.457 -157.23)"/>
      <path id="Trazado_1176031" data-name="Trazado 1176031" d="M191.358,384h-25.3a1.024,1.024,0,0,0-.377.072l-5.06,2.024a1.012,1.012,0,0,0,0,1.881l5.06,2.024a1.024,1.024,0,0,0,.377.072h25.3a3.036,3.036,0,1,0,0-6.072Zm-23.276,2.024h20.24v2.024h-20.24Zm-4.36,1.012,2.336-.934v1.868Zm27.636,1.012h-1.012v-2.024h1.012a1.012,1.012,0,1,1,0,2.024Zm0,0" transform="translate(-139.749 -335.424)"/>
      <path id="Trazado_1176032" data-name="Trazado 1176032" d="M9.106,256a9.093,9.093,0,0,0-5.443,16.387A3,3,0,0,0,5.153,277.1a4.048,4.048,0,0,0,7.905,0,3,3,0,0,0,1.491-4.708A9.093,9.093,0,0,0,9.106,256Zm0,22.264a2.017,2.017,0,0,1-1.743-1.012h3.486a2.017,2.017,0,0,1-1.743,1.012Zm3.036-3.036H6.07a1.012,1.012,0,1,1,0-2.024h6.072a1.012,1.012,0,1,1,0,2.024Zm.485-4a3.121,3.121,0,0,0-.485-.048H6.07a3.121,3.121,0,0,0-.485.048,7.084,7.084,0,1,1,7.042,0Zm0,0" transform="translate(0 -223.616)"/>
      <path id="Trazado_1176033" data-name="Trazado 1176033" d="M40.258,314.445l-1.182-1.773a1.051,1.051,0,0,0-1.684,0l-1.182,1.773-1.182-1.776-1.684,1.124,2.024,3.036a1.052,1.052,0,0,0,1.684,0l1.182-1.776,1.182,1.773a1.012,1.012,0,0,0,1.684,0l2.024-3.036-1.684-1.123Zm0,0" transform="translate(-29.128 -272.751)"/>
    </g>
  </g>
</svg>
