<svg xmlns="http://www.w3.org/2000/svg" xmlns:xlink="http://www.w3.org/1999/xlink" width="113" height="113" viewBox="0 0 113 113">
  <defs>
    <filter id="Trazado_982547" x="0" y="0" width="113" height="113" filterUnits="userSpaceOnUse">
      <feOffset dy="3" input="SourceAlpha"/>
      <feGaussianBlur stdDeviation="3" result="blur"/>
      <feFlood flood-opacity="0.161"/>
      <feComposite operator="in" in2="blur"/>
      <feComposite in="SourceGraphic"/>
    </filter>
  </defs>
  <g id="Grupo_1223726" data-name="Grupo 1223726" transform="translate(-696.245 -743.216)">
    <g id="Grupo_1208038" data-name="Grupo 1208038" transform="translate(705.245 749.216)">
      <g id="Grupo_1202104" data-name="Grupo 1202104" transform="translate(0)">
        <g id="Grupo_1201923" data-name="Grupo 1201923" transform="translate(0 0)">
          <g id="Grupo_1176928" data-name="Grupo 1176928" transform="translate(0)">
            <g id="Grupo_1172322" data-name="Grupo 1172322">
              <g id="Grupo_1164700" data-name="Grupo 1164700">
                <g id="Grupo_1160931" data-name="Grupo 1160931">
                  <g id="Grupo_1160749" data-name="Grupo 1160749">
                    <g id="Grupo_1158891" data-name="Grupo 1158891">
                      <g id="Grupo_1157406" data-name="Grupo 1157406">
                        <g id="Grupo_1155793" data-name="Grupo 1155793">
                          <g id="Grupo_1154704" data-name="Grupo 1154704">
                            <g id="Grupo_1150790" data-name="Grupo 1150790">
                              <g id="Grupo_1154214" data-name="Grupo 1154214" transform="translate(0)">
                                <g id="Grupo_1152583" data-name="Grupo 1152583">
                                  <g id="Grupo_1146973" data-name="Grupo 1146973">
                                    <g id="Grupo_1146954" data-name="Grupo 1146954">
                                      <g transform="matrix(1, 0, 0, 1, -9, -6)" filter="url(#Trazado_982547)">
                                        <g id="Trazado_982547-2" data-name="Trazado 982547" transform="translate(9 6)" fill="#d9faea">
                                          <path d="M 47.50000762939453 93.49986267089844 C 41.28937911987305 93.49986267089844 35.26534271240234 92.28383636474609 29.59519386291504 89.88558197021484 C 24.11772727966309 87.56880950927734 19.19814109802246 84.25183868408203 14.97310066223145 80.02679443359375 C 10.74804782867432 75.8017578125 7.431074142456055 70.88218688964844 5.114300727844238 65.40471649169922 C 2.716034412384033 59.73458480834961 1.500007629394531 53.71054458618164 1.500007629394531 47.49993133544922 C 1.500007629394531 41.2893180847168 2.716034412384033 35.26527786254883 5.114300727844238 29.59514427185059 C 7.431074142456055 24.11767768859863 10.74804782867432 19.19810485839844 14.97310066223145 14.97306442260742 C 19.19814109802246 10.74802494049072 24.11772727966309 7.431051254272461 29.59519386291504 5.114277839660645 C 35.26534271240234 2.71602463722229 41.28937911987305 1.499997973442078 47.50000762939453 1.499997973442078 C 53.71063613891602 1.499997973442078 59.73467254638672 2.71602463722229 65.40482330322266 5.114277839660645 C 70.88228607177734 7.431051254272461 75.80187225341797 10.74802494049072 80.02691650390625 14.97306442260742 C 84.25196838378906 19.19810485839844 87.56893920898438 24.11767768859863 89.88571166992188 29.59514427185059 C 92.28398132324219 35.26527786254883 93.50000762939453 41.2893180847168 93.50000762939453 47.49993133544922 C 93.50000762939453 53.71054458618164 92.28398132324219 59.73458480834961 89.88571166992188 65.40471649169922 C 87.56893920898438 70.88218688964844 84.25196838378906 75.8017578125 80.02691650390625 80.02679443359375 C 75.80187225341797 84.25183868408203 70.88228607177734 87.56880950927734 65.40482330322266 89.88558197021484 C 59.73467254638672 92.28383636474609 53.71063613891602 93.49986267089844 47.50000762939453 93.49986267089844 Z" stroke="none"/>
                                          <path d="M 47.50000762939453 2.999992370605469 C 41.4912223815918 2.999992370605469 35.66377639770508 4.1761474609375 30.17951202392578 6.495796203613281 C 24.88085174560547 8.736930847167969 20.12152862548828 11.94596099853516 16.03376007080078 16.03372955322266 C 11.94597625732422 20.12148284912109 8.736961364746094 24.88080596923828 6.495803833007812 30.17946624755859 C 4.176162719726562 35.66371536254883 3.000007629394531 41.49116134643555 3.000007629394531 47.49993133544922 C 3.000007629394531 53.50870132446289 4.176162719726562 59.33614730834961 6.495803833007812 64.82038879394531 C 8.736961364746094 70.11905670166016 11.94597625732422 74.87836456298828 16.03376007080078 78.96613311767578 C 20.12152862548828 83.05390167236328 24.88085174560547 86.26291656494141 30.17951202392578 88.50406646728516 C 35.66377639770508 90.82369995117188 41.4912223815918 91.99985504150391 47.50000762939453 91.99985504150391 C 53.50879287719727 91.99985504150391 59.33623886108398 90.82369995117188 64.82049560546875 88.50406646728516 C 70.11916351318359 86.26291656494141 74.87848663330078 83.05390167236328 78.96625518798828 78.96613311767578 C 83.05403900146484 74.87836456298828 86.26305389404297 70.11905670166016 88.50421142578125 64.82038879394531 C 90.8238525390625 59.33614730834961 92.00000762939453 53.50870132446289 92.00000762939453 47.49993133544922 C 92.00000762939453 41.49116134643555 90.8238525390625 35.66371536254883 88.50421142578125 30.17946624755859 C 86.26305389404297 24.88080596923828 83.05403900146484 20.12148284912109 78.96625518798828 16.03372955322266 C 74.87848663330078 11.94596099853516 70.11916351318359 8.736930847167969 64.82049560546875 6.495796203613281 C 59.33623886108398 4.1761474609375 53.50879287719727 2.999992370605469 47.50000762939453 2.999992370605469 M 47.50000762939453 -7.62939453125e-06 C 73.73352813720703 -7.62939453125e-06 95.00000762939453 21.26644134521484 95.00000762939453 47.49993133544922 C 95.00000762939453 73.73342132568359 73.73352813720703 94.99985504150391 47.50000762939453 94.99985504150391 C 21.26648712158203 94.99985504150391 7.62939453125e-06 73.73342132568359 7.62939453125e-06 47.49993133544922 C 7.62939453125e-06 21.26644134521484 21.26648712158203 -7.62939453125e-06 47.50000762939453 -7.62939453125e-06 Z" stroke="none" fill="#277e53"/>
                                        </g>
                                      </g>
                                    </g>
                                  </g>
                                </g>
                              </g>
                            </g>
                          </g>
                        </g>
                      </g>
                    </g>
                  </g>
                </g>
              </g>
            </g>
          </g>
        </g>
      </g>
    </g>
    <g id="alumno" transform="translate(722.495 763.715)">
      <g id="Grupo_1223701" data-name="Grupo 1223701">
        <g id="Grupo_1223681" data-name="Grupo 1223681">
          <path id="Trazado_1176034" data-name="Trazado 1176034" d="M37.88,40.95H34.43v.57a4.519,4.519,0,0,1-3.5,4.46,4.427,4.427,0,0,1-5.35-4.34v-.69H22.13a9.2,9.2,0,0,0-9.2,9.2v9.42H47.09V50.15A9.216,9.216,0,0,0,37.88,40.95Z" fill="#ef4a51"/>
        </g>
        <g id="Grupo_1223682" data-name="Grupo 1223682" opacity="0.2">
          <path id="Trazado_1176035" data-name="Trazado 1176035" d="M37.88,40.95H34.43v.57a4.649,4.649,0,0,1-1.17,3.07v3.9a8,8,0,0,0,8,8h5.82V50.15A9.2,9.2,0,0,0,37.88,40.95Z" fill="#fff"/>
        </g>
        <g id="Grupo_1223683" data-name="Grupo 1223683">
          <circle id="Elipse_12057" data-name="Elipse 12057" cx="17" cy="17" r="17" transform="translate(30 2.02)" fill="#7cb5e8"/>
        </g>
        <g id="Grupo_1223684" data-name="Grupo 1223684" opacity="0.2">
          <path id="Trazado_1176036" data-name="Trazado 1176036" d="M47,2.03a16.927,16.927,0,0,0-7.04,1.54,19.625,19.625,0,0,0-.2,2.67A20.041,20.041,0,0,0,59.78,26.26a19.624,19.624,0,0,0,2.67-.2A16.967,16.967,0,0,0,47,2.03Z" fill="#fff"/>
        </g>
        <g id="Grupo_1223685" data-name="Grupo 1223685" opacity="0.2">
          <path id="Trazado_1176037" data-name="Trazado 1176037" d="M47,2.03c-.2,0-.4.02-.6.03A14.041,14.041,0,0,0,63.97,19.63c.01-.2.03-.4.03-.6a17,17,0,0,0-17-17Z" fill="#fff"/>
        </g>
        <g id="Grupo_1223686" data-name="Grupo 1223686">
          <circle id="Elipse_12058" data-name="Elipse 12058" cx="2.42" cy="2.42" r="2.42" transform="translate(44.58 16.6)" fill="#ef4a51"/>
        </g>
        <g id="Grupo_1223687" data-name="Grupo 1223687">
          <path id="Trazado_1176038" data-name="Trazado 1176038" d="M29.99,39.69a9.876,9.876,0,0,1-4.41-1.04v2.98a4.425,4.425,0,1,0,8.85,0V38.65A9.9,9.9,0,0,1,29.99,39.69Z" fill="#ffab03"/>
        </g>
        <g id="Grupo_1223688" data-name="Grupo 1223688" opacity="0.2">
          <path id="Trazado_1176039" data-name="Trazado 1176039" d="M25.86,38.78a6.861,6.861,0,0,0,6.57,4.9A6.749,6.749,0,0,0,34,43.49a4.448,4.448,0,0,0,.42-1.86V38.65a9.893,9.893,0,0,1-8.56.13Z" fill="#fff"/>
        </g>
        <g id="Grupo_1223689" data-name="Grupo 1223689">
          <path id="Trazado_1176040" data-name="Trazado 1176040" d="M18.33,15.03S17.25,4.6,35.85,8.56a6.853,6.853,0,0,1,4.76,5.93s4.76,3.86.9,8.18c0,0,.09,5.12-1.44,6.38,0,0,.45-4.22-1.62-6.11,0,0-2.16-1.26-1.89-3.06,0,0-10.69,2.52-14.83-1.53L18.3,15.83Z" fill="#4e6575"/>
        </g>
        <g id="Grupo_1223690" data-name="Grupo 1223690">
          <path id="Trazado_1176041" data-name="Trazado 1176041" d="M21.75,18.36l-3.43-2.52.01-.81c-4.4,6.29,1.57,14.02,1.57,14.02-.01-.07-.02-.13-.03-.2a6.348,6.348,0,0,1,1.51-4.97,11.061,11.061,0,0,0,1.82-4.27l.18-.13a6.462,6.462,0,0,1-1.63-1.12Z" fill="#5e7588"/>
        </g>
        <g id="Grupo_1223691" data-name="Grupo 1223691">
          <path id="Trazado_1176042" data-name="Trazado 1176042" d="M38.46,22.93s-2.15-1.25-1.89-3.05c0,0-8.4,1.98-13.2-.4l-.18.13a11.061,11.061,0,0,1-1.82,4.27,7.229,7.229,0,0,0-1.35,2.59V29.7a9.965,9.965,0,0,0,19.79,1.69,7.877,7.877,0,0,0,.16-1.69V26.2a5.521,5.521,0,0,0-1.51-3.27Z" fill="#ffab03"/>
        </g>
        <g id="Grupo_1223694" data-name="Grupo 1223694">
          <g id="Grupo_1223692" data-name="Grupo 1223692">
            <path id="Trazado_1176043" data-name="Trazado 1176043" d="M41.07,50.43A9.3,9.3,0,0,0,30,59.56H54.11V52.94Z" fill="#e2e2e2"/>
          </g>
          <g id="Grupo_1223693" data-name="Grupo 1223693">
            <path id="Trazado_1176044" data-name="Trazado 1176044" d="M18.93,50.43A9.3,9.3,0,0,1,30,59.56H5.89V52.94Z" fill="#e2e2e2"/>
          </g>
        </g>
        <g id="Grupo_1223695" data-name="Grupo 1223695">
          <path id="Trazado_1176045" data-name="Trazado 1176045" d="M55.8,59.56H4.2a2.2,2.2,0,0,0,0,4.4H55.8a2.2,2.2,0,1,0,0-4.4Z" fill="#4e6575"/>
        </g>
        <g id="Grupo_1223696" data-name="Grupo 1223696" opacity="0.1">
          <path id="Trazado_1176046" data-name="Trazado 1176046" d="M55.8,59.56H34.96a2.2,2.2,0,0,0,2.2,2.2H58A2.206,2.206,0,0,0,55.8,59.56Z" fill="#e2e2e2"/>
        </g>
        <g id="Grupo_1223697" data-name="Grupo 1223697" opacity="0.2">
          <path id="Trazado_1176047" data-name="Trazado 1176047" d="M63.34,14.36A17,17,0,0,0,50.56,2.42a1.491,1.491,0,0,0-.68,2.9c.02,0,.03.01.05.01a14.107,14.107,0,0,1,10.6,10.06,1.359,1.359,0,0,0,.11.28c.83,1.53,3.18.37,2.7-1.31Z" fill="#fff"/>
        </g>
        <g id="Grupo_1223698" data-name="Grupo 1223698" opacity="0.1">
          <path id="Trazado_1176048" data-name="Trazado 1176048" d="M40.5,13.7a6.881,6.881,0,0,0-4.65-5.14c-6.14-1.3-10.13-1.04-12.72-.1-.03.31-.05.62-.05.93A9.244,9.244,0,0,0,40.5,13.7Z" fill="#e2e2e2"/>
        </g>
        <g id="Grupo_1223699" data-name="Grupo 1223699" opacity="0.4">
          <path id="Trazado_1176049" data-name="Trazado 1176049" d="M41.07,50.43A9.3,9.3,0,0,0,30,59.56a2.305,2.305,0,0,0,2.22-1.78,7.211,7.211,0,0,1,2.44-3.85,7.319,7.319,0,0,1,6.04-1.54s7.72,1.48,11.45,2.19a1.655,1.655,0,0,0,1.96-1.63Z" fill="#fff"/>
        </g>
        <g id="Grupo_1223700" data-name="Grupo 1223700" opacity="0.4">
          <path id="Trazado_1176050" data-name="Trazado 1176050" d="M18.93,50.43A9.3,9.3,0,0,1,30,59.56a2.305,2.305,0,0,1-2.22-1.78,7.211,7.211,0,0,0-2.44-3.85,7.319,7.319,0,0,0-6.04-1.54s-7.72,1.48-11.45,2.19a1.655,1.655,0,0,1-1.96-1.63Z" fill="#fff"/>
        </g>
      </g>
      <g id="Grupo_1223725" data-name="Grupo 1223725">
        <g id="Grupo_1223702" data-name="Grupo 1223702">
          <path id="Trazado_1176051" data-name="Trazado 1176051" d="M47,21.77a2.75,2.75,0,1,1,2.75-2.75A2.748,2.748,0,0,1,47,21.77Zm0-4a1.25,1.25,0,1,0,1.25,1.25A1.25,1.25,0,0,0,47,17.77Z"/>
        </g>
        <g id="Grupo_1223703" data-name="Grupo 1223703">
          <circle id="Elipse_12059" data-name="Elipse 12059" cx="1" cy="1" r="1" transform="translate(46 5.24)"/>
        </g>
        <g id="Grupo_1223704" data-name="Grupo 1223704">
          <circle id="Elipse_12060" data-name="Elipse 12060" cx="1" cy="1" r="1" transform="translate(46 30.81)"/>
        </g>
        <g id="Grupo_1223705" data-name="Grupo 1223705">
          <circle id="Elipse_12061" data-name="Elipse 12061" cx="1" cy="1" r="1" transform="translate(52.4 29.09)"/>
        </g>
        <g id="Grupo_1223706" data-name="Grupo 1223706">
          <circle id="Elipse_12062" data-name="Elipse 12062" cx="1" cy="1" r="1" transform="translate(57.07 24.42)"/>
        </g>
        <g id="Grupo_1223707" data-name="Grupo 1223707">
          <circle id="Elipse_12063" data-name="Elipse 12063" cx="1" cy="1" r="1" transform="translate(58.79 18.02)"/>
        </g>
        <g id="Grupo_1223708" data-name="Grupo 1223708">
          <circle id="Elipse_12064" data-name="Elipse 12064" cx="1" cy="1" r="1" transform="translate(57.07 11.63)"/>
        </g>
        <g id="Grupo_1223709" data-name="Grupo 1223709">
          <circle id="Elipse_12065" data-name="Elipse 12065" cx="1" cy="1" r="1" transform="translate(52.4 6.95)"/>
        </g>
        <g id="Grupo_1223710" data-name="Grupo 1223710">
          <path id="Trazado_1176052" data-name="Trazado 1176052" d="M54.4,19.77H49a.75.75,0,0,1,0-1.5h5.39a.755.755,0,0,1,.75.75.747.747,0,0,1-.74.75Z"/>
        </g>
        <g id="Grupo_1223711" data-name="Grupo 1223711">
          <path id="Trazado_1176053" data-name="Trazado 1176053" d="M47,17.77a.755.755,0,0,1-.75-.75V9.48a.75.75,0,0,1,1.5,0v7.54A.743.743,0,0,1,47,17.77Z"/>
        </g>
        <g id="Grupo_1223712" data-name="Grupo 1223712">
          <path id="Trazado_1176054" data-name="Trazado 1176054" d="M29.99,46.82a5.179,5.179,0,0,1-5.17-5.18V38.66a.75.75,0,0,1,1.5,0v2.98a3.675,3.675,0,1,0,7.35,0V38.66a.75.75,0,0,1,1.5,0v2.98a5.181,5.181,0,0,1-5.18,5.18Z"/>
        </g>
        <g id="Grupo_1223713" data-name="Grupo 1223713">
          <path id="Trazado_1176055" data-name="Trazado 1176055" d="M30,34.95a4.863,4.863,0,0,1-2.64-.82.736.736,0,0,1-.23-1.03.746.746,0,0,1,1.04-.23,3.153,3.153,0,0,0,3.68,0,.747.747,0,0,1,1.03.24.739.739,0,0,1-.24,1.03,4.934,4.934,0,0,1-2.64.81Z"/>
        </g>
        <g id="Grupo_1223714" data-name="Grupo 1223714">
          <circle id="Elipse_12066" data-name="Elipse 12066" cx="1.28" cy="1.28" r="1.28" transform="translate(24.81 26.07)"/>
        </g>
        <g id="Grupo_1223715" data-name="Grupo 1223715">
          <circle id="Elipse_12067" data-name="Elipse 12067" cx="1.28" cy="1.28" r="1.28" transform="translate(32.63 26.07)"/>
        </g>
        <g id="Grupo_1223716" data-name="Grupo 1223716">
          <path id="Trazado_1176056" data-name="Trazado 1176056" d="M40.08,29.8a.744.744,0,0,1-.58-.27.758.758,0,0,1,.1-1.06c.86-.71,1.2-3.81,1.17-5.79a.784.784,0,0,1,.19-.51,4.427,4.427,0,0,0,1.31-3.33,6.314,6.314,0,0,0-2.12-3.77.739.739,0,0,1-.27-.51,6.116,6.116,0,0,0-4.21-5.28c-7-1.49-12.1-1.05-14.7,1.26a5.578,5.578,0,0,0-1.88,4.41.749.749,0,1,1-1.49.15,7.09,7.09,0,0,1,2.35-5.66c3.01-2.71,8.42-3.25,16.08-1.62a7.672,7.672,0,0,1,5.32,6.29,7.482,7.482,0,0,1,2.43,4.59,5.766,5.766,0,0,1-1.49,4.24c0,1.35-.13,5.38-1.71,6.68a.83.83,0,0,1-.5.18Z"/>
        </g>
        <g id="Grupo_1223717" data-name="Grupo 1223717">
          <path id="Trazado_1176057" data-name="Trazado 1176057" d="M19.89,29.79a.739.739,0,0,1-.58-.28c-.26-.33-6.26-8.24-1.59-14.91a.745.745,0,0,1,.84-.28.763.763,0,0,1,.52.72l-.01.42,3.12,2.29a.5.5,0,0,1,.08.07,5.382,5.382,0,0,0,1.44.99.757.757,0,0,1,.34,1.01.748.748,0,0,1-1,.34,7.356,7.356,0,0,1-1.79-1.23L18.23,16.7c-2.19,4.71.97,9.99,1.98,11.48a.736.736,0,0,1,.4.56l.03.15a.771.771,0,0,1-.43.83.741.741,0,0,1-.32.07Z"/>
        </g>
        <g id="Grupo_1223718" data-name="Grupo 1223718">
          <path id="Trazado_1176058" data-name="Trazado 1176058" d="M29.99,40.44A10.736,10.736,0,0,1,19.28,29.7V26.47a.693.693,0,0,1,.03-.2,8.093,8.093,0,0,1,1.49-2.86,10.207,10.207,0,0,0,1.66-3.93.755.755,0,0,1,.31-.48l.18-.13a.765.765,0,0,1,.76-.05c4.49,2.23,12.61.36,12.69.34a.738.738,0,0,1,.68.18.749.749,0,0,1,.23.66c-.19,1.26,1.5,2.28,1.52,2.29.04.03.09.06.13.09a6.143,6.143,0,0,1,1.75,3.7.487.487,0,0,1,.01.12v3.5a8.8,8.8,0,0,1-.18,1.85,10.63,10.63,0,0,1-10.55,8.89ZM20.77,26.57V29.7a9.214,9.214,0,0,0,18.3,1.56,7.679,7.679,0,0,0,.15-1.57V26.26a4.863,4.863,0,0,0-1.23-2.73,4.911,4.911,0,0,1-2.14-2.73c-2.2.42-8.01,1.28-12.1-.33a10.917,10.917,0,0,1-1.8,3.88,6.725,6.725,0,0,0-1.18,2.22Z"/>
        </g>
        <g id="Grupo_1223719" data-name="Grupo 1223719">
          <path id="Trazado_1176059" data-name="Trazado 1176059" d="M30,60.31a.755.755,0,0,1-.75-.75,10.066,10.066,0,0,1,11.97-9.88L54.25,52.2a.76.76,0,0,1,.61.74v3.62a.75.75,0,0,1-1.5,0v-3l-12.43-2.4a8.554,8.554,0,0,0-10.18,8.4A.749.749,0,0,1,30,60.31Z"/>
        </g>
        <g id="Grupo_1223720" data-name="Grupo 1223720">
          <path id="Trazado_1176060" data-name="Trazado 1176060" d="M30,60.31a.755.755,0,0,1-.75-.75,8.554,8.554,0,0,0-10.18-8.4L6.64,53.56v3a.75.75,0,0,1-1.5,0V52.94a.75.75,0,0,1,.61-.74l13.03-2.52a10.066,10.066,0,0,1,11.97,9.88.749.749,0,0,1-.75.75Z"/>
        </g>
        <g id="Grupo_1223721" data-name="Grupo 1223721">
          <path id="Trazado_1176061" data-name="Trazado 1176061" d="M55.8,64.72H50.28a.75.75,0,0,1,0-1.5H55.8a1.45,1.45,0,0,0,0-2.9H4.2a1.45,1.45,0,0,0,0,2.9H47.08a.75.75,0,1,1,0,1.5H4.2a2.95,2.95,0,0,1,0-5.9H55.8a2.95,2.95,0,0,1,0,5.9Z"/>
        </g>
        <g id="Grupo_1223722" data-name="Grupo 1223722">
          <path id="Trazado_1176062" data-name="Trazado 1176062" d="M47,36.77a17.626,17.626,0,0,1-5.47-.87A.748.748,0,1,1,42,34.48a16.246,16.246,0,1,0,5.01-31.7,16.1,16.1,0,0,0-9.78,3.29.68.68,0,0,1-.76.32.821.821,0,0,1-.6-.58.743.743,0,0,1,.23-.76A17.506,17.506,0,0,1,47,1.28a17.745,17.745,0,1,1,0,35.49Z"/>
        </g>
        <g id="Grupo_1223723" data-name="Grupo 1223723">
          <path id="Trazado_1176063" data-name="Trazado 1176063" d="M13.08,49.25a.57.57,0,0,1-.13-.01.736.736,0,0,1-.6-.87,9.933,9.933,0,0,1,9.79-8.17h3.45a.75.75,0,0,1,0,1.5H22.14a8.44,8.44,0,0,0-8.31,6.94.777.777,0,0,1-.75.61Z"/>
        </g>
        <g id="Grupo_1223724" data-name="Grupo 1223724">
          <path id="Trazado_1176064" data-name="Trazado 1176064" d="M46.92,49.25a.749.749,0,0,1-.74-.62,8.44,8.44,0,0,0-8.31-6.94H34.42a.75.75,0,0,1,0-1.5h3.45a9.95,9.95,0,0,1,9.79,8.17.751.751,0,0,1-.6.87A.34.34,0,0,1,46.92,49.25Z"/>
        </g>
      </g>
    </g>
  </g>
</svg>
