<svg xmlns="http://www.w3.org/2000/svg" xmlns:xlink="http://www.w3.org/1999/xlink" width="113" height="113" viewBox="0 0 113 113">
  <defs>
    <filter id="Trazado_982547" x="0" y="0" width="113" height="113" filterUnits="userSpaceOnUse">
      <feOffset dy="3" input="SourceAlpha"/>
      <feGaussianBlur stdDeviation="3" result="blur"/>
      <feFlood flood-opacity="0.161"/>
      <feComposite operator="in" in2="blur"/>
      <feComposite in="SourceGraphic"/>
    </filter>
  </defs>
  <g id="Grupo_1223736" data-name="Grupo 1223736" transform="translate(-4543 -747.216)">
    <g id="Grupo_1223311" data-name="Grupo 1223311" transform="translate(4552 753.216)">
      <g id="Grupo_1177675" data-name="Grupo 1177675" transform="translate(0 0)">
        <g id="Grupo_1176928" data-name="Grupo 1176928" transform="translate(0)">
          <g id="Grupo_1172322" data-name="Grupo 1172322">
            <g id="Grupo_1164700" data-name="Grupo 1164700">
              <g id="Grupo_1160931" data-name="Grupo 1160931">
                <g id="Grupo_1160749" data-name="Grupo 1160749">
                  <g id="Grupo_1158891" data-name="Grupo 1158891">
                    <g id="Grupo_1157406" data-name="Grupo 1157406">
                      <g id="Grupo_1155793" data-name="Grupo 1155793">
                        <g id="Grupo_1154704" data-name="Grupo 1154704">
                          <g id="Grupo_1150790" data-name="Grupo 1150790">
                            <g id="Grupo_1154214" data-name="Grupo 1154214" transform="translate(0)">
                              <g id="Grupo_1152583" data-name="Grupo 1152583">
                                <g id="Grupo_1146973" data-name="Grupo 1146973">
                                  <g id="Grupo_1146954" data-name="Grupo 1146954">
                                    <g transform="matrix(1, 0, 0, 1, -9, -6)" filter="url(#Trazado_982547)">
                                      <g id="Trazado_982547-2" data-name="Trazado 982547" transform="translate(9 6)" fill="#d9faea">
                                        <path d="M 47.50000762939453 93.49986267089844 C 41.28937911987305 93.49986267089844 35.26534271240234 92.28383636474609 29.59519386291504 89.88558197021484 C 24.11772727966309 87.56880950927734 19.19814109802246 84.25183868408203 14.97310066223145 80.02679443359375 C 10.74804782867432 75.8017578125 7.431074142456055 70.88218688964844 5.114300727844238 65.40471649169922 C 2.716034412384033 59.73458480834961 1.500007629394531 53.71054458618164 1.500007629394531 47.49993133544922 C 1.500007629394531 41.2893180847168 2.716034412384033 35.26527786254883 5.114300727844238 29.59514427185059 C 7.431074142456055 24.11767768859863 10.74804782867432 19.19810485839844 14.97310066223145 14.97306442260742 C 19.19814109802246 10.74802494049072 24.11772727966309 7.431051254272461 29.59519386291504 5.114277839660645 C 35.26534271240234 2.71602463722229 41.28937911987305 1.499997973442078 47.50000762939453 1.499997973442078 C 53.71063613891602 1.499997973442078 59.73467254638672 2.71602463722229 65.40482330322266 5.114277839660645 C 70.88228607177734 7.431051254272461 75.80187225341797 10.74802494049072 80.02691650390625 14.97306442260742 C 84.25196838378906 19.19810485839844 87.56893920898438 24.11767768859863 89.88571166992188 29.59514427185059 C 92.28398132324219 35.26527786254883 93.50000762939453 41.2893180847168 93.50000762939453 47.49993133544922 C 93.50000762939453 53.71054458618164 92.28398132324219 59.73458480834961 89.88571166992188 65.40471649169922 C 87.56893920898438 70.88218688964844 84.25196838378906 75.8017578125 80.02691650390625 80.02679443359375 C 75.80187225341797 84.25183868408203 70.88228607177734 87.56880950927734 65.40482330322266 89.88558197021484 C 59.73467254638672 92.28383636474609 53.71063613891602 93.49986267089844 47.50000762939453 93.49986267089844 Z" stroke="none"/>
                                        <path d="M 47.50000762939453 2.999992370605469 C 41.4912223815918 2.999992370605469 35.66377639770508 4.1761474609375 30.17951202392578 6.495796203613281 C 24.88085174560547 8.736930847167969 20.12152862548828 11.94596099853516 16.03376007080078 16.03372955322266 C 11.94597625732422 20.12148284912109 8.736961364746094 24.88080596923828 6.495803833007812 30.17946624755859 C 4.176162719726562 35.66371536254883 3.000007629394531 41.49116134643555 3.000007629394531 47.49993133544922 C 3.000007629394531 53.50870132446289 4.176162719726562 59.33614730834961 6.495803833007812 64.82038879394531 C 8.736961364746094 70.11905670166016 11.94597625732422 74.87836456298828 16.03376007080078 78.96613311767578 C 20.12152862548828 83.05390167236328 24.88085174560547 86.26291656494141 30.17951202392578 88.50406646728516 C 35.66377639770508 90.82369995117188 41.4912223815918 91.99985504150391 47.50000762939453 91.99985504150391 C 53.50879287719727 91.99985504150391 59.33623886108398 90.82369995117188 64.82049560546875 88.50406646728516 C 70.11916351318359 86.26291656494141 74.87848663330078 83.05390167236328 78.96625518798828 78.96613311767578 C 83.05403900146484 74.87836456298828 86.26305389404297 70.11905670166016 88.50421142578125 64.82038879394531 C 90.8238525390625 59.33614730834961 92.00000762939453 53.50870132446289 92.00000762939453 47.49993133544922 C 92.00000762939453 41.49116134643555 90.8238525390625 35.66371536254883 88.50421142578125 30.17946624755859 C 86.26305389404297 24.88080596923828 83.05403900146484 20.12148284912109 78.96625518798828 16.03372955322266 C 74.87848663330078 11.94596099853516 70.11916351318359 8.736930847167969 64.82049560546875 6.495796203613281 C 59.33623886108398 4.1761474609375 53.50879287719727 2.999992370605469 47.50000762939453 2.999992370605469 M 47.50000762939453 -7.62939453125e-06 C 73.73352813720703 -7.62939453125e-06 95.00000762939453 21.26644134521484 95.00000762939453 47.49993133544922 C 95.00000762939453 73.73342132568359 73.73352813720703 94.99985504150391 47.50000762939453 94.99985504150391 C 21.26648712158203 94.99985504150391 7.62939453125e-06 73.73342132568359 7.62939453125e-06 47.49993133544922 C 7.62939453125e-06 21.26644134521484 21.26648712158203 -7.62939453125e-06 47.50000762939453 -7.62939453125e-06 Z" stroke="none" fill="#277e53"/>
                                      </g>
                                    </g>
                                  </g>
                                </g>
                              </g>
                            </g>
                          </g>
                        </g>
                      </g>
                    </g>
                  </g>
                </g>
              </g>
            </g>
          </g>
        </g>
      </g>
    </g>
    <g id="logro_1_" data-name="logro (1)" transform="translate(4573.426 771.695)">
      <g id="Grupo_1223727" data-name="Grupo 1223727" transform="translate(0.983 2.029)">
        <path id="Trazado_1176065" data-name="Trazado 1176065" d="M4.5,9.139V57.42a4.015,4.015,0,0,0,4,4H45.049a4.015,4.015,0,0,0,4-4V9.139a4.015,4.015,0,0,0-4-4H8.5a4.015,4.015,0,0,0-4,4Z" transform="translate(-4.5 -5.134)" fill="#eaf6ff" fill-rule="evenodd"/>
      </g>
      <g id="Grupo_1223728" data-name="Grupo 1223728" transform="translate(5.597 41.965)">
        <path id="Trazado_1176066" data-name="Trazado 1176066" d="M42.705,335.816H52.859v10.15H42.705Z" transform="translate(-42.705 -335.816)" fill="#ffd301" fill-rule="evenodd"/>
      </g>
      <g id="Grupo_1223729" data-name="Grupo 1223729" transform="translate(5.597 26.265)">
        <path id="Trazado_1176067" data-name="Trazado 1176067" d="M42.705,205.815H52.859v10.15H42.705Z" transform="translate(-42.705 -205.815)" fill="#ffd301" fill-rule="evenodd"/>
      </g>
      <g id="Grupo_1223730" data-name="Grupo 1223730" transform="translate(5.597 10.565)">
        <path id="Trazado_1176068" data-name="Trazado 1176068" d="M42.705,75.814H52.859V85.968H42.705Z" transform="translate(-42.705 -75.814)" fill="#ffd301" fill-rule="evenodd"/>
      </g>
      <g id="Grupo_1223731" data-name="Grupo 1223731" transform="translate(25.853 37.618)">
        <path id="Trazado_1176069" data-name="Trazado 1176069" d="M222.937,324.821a12.5,12.5,0,1,0-12.5-12.5A12.526,12.526,0,0,0,222.937,324.821Z" transform="translate(-210.434 -299.816)" fill="#fd646f" fill-rule="evenodd"/>
      </g>
      <g id="Grupo_1223732" data-name="Grupo 1223732" transform="translate(30.225 41.748)">
        <path id="Trazado_1176070" data-name="Trazado 1176070" d="M254.766,350.278a8.131,8.131,0,1,0-8.131-8.131A8.145,8.145,0,0,0,254.766,350.278Z" transform="translate(-246.635 -334.017)" fill="#f5f5f5" fill-rule="evenodd"/>
      </g>
      <g id="Grupo_1223733" data-name="Grupo 1223733" transform="translate(34.642 46.165)">
        <path id="Trazado_1176071" data-name="Trazado 1176071" d="M286.923,378.019a3.714,3.714,0,1,0-3.714-3.714A3.72,3.72,0,0,0,286.923,378.019Z" transform="translate(-283.209 -370.592)" fill="#fd646f" fill-rule="evenodd"/>
      </g>
      <g id="Grupo_1223734" data-name="Grupo 1223734" transform="translate(28.82 46.496)">
        <path id="Trazado_1176072" data-name="Trazado 1176072" d="M256.435,376.052a12.778,12.778,0,0,1-21.433,9.4,12.506,12.506,0,0,0,21.142-12.118A12.746,12.746,0,0,1,256.435,376.052Z" transform="translate(-235.002 -373.336)" fill="#eb4954" fill-rule="evenodd"/>
      </g>
      <g id="Grupo_1223735" data-name="Grupo 1223735" transform="translate(52.446 36.09)">
        <path id="Trazado_1176073" data-name="Trazado 1176073" d="M430.633,292.851v-3.513l3.762-2.172v3.513l3.045,1.76-3.762,2.172Z" transform="translate(-430.633 -287.166)" fill="#fac149" fill-rule="evenodd"/>
      </g>
      <path id="Trazado_1176074" data-name="Trazado 1176074" d="M4.935,41.832a.844.844,0,0,1,.844-.844h6.994a.844.844,0,0,1,0,1.688H6.622V51h8.323V45.775a.844.844,0,1,1,1.688,0v6.068a.844.844,0,0,1-.844.844H5.778a.844.844,0,0,1-.844-.844Zm13.295-2.961A.844.844,0,0,0,17.043,39l-6.428,8.029L8.892,44.275a.844.844,0,0,0-1.431.895l2.354,3.765a.845.845,0,0,0,.667.4h.049a.844.844,0,0,0,.659-.317l7.171-8.958a.844.844,0,0,0-.131-1.186ZM4.935,36.359a.844.844,0,0,0,.844.844h10.01a.844.844,0,0,0,.844-.844V30.292a.844.844,0,1,0-1.688,0v5.224H6.622V27.193h6.15a.844.844,0,0,0,0-1.688H5.778a.844.844,0,0,0-.844.844ZM18.23,23.391a.844.844,0,0,0-1.186.131l-6.428,8.026L8.892,28.792a.844.844,0,1,0-1.431.895l2.354,3.765a.844.844,0,0,0,.666.4l.049,0a.844.844,0,0,0,.659-.316l7.171-8.955a.844.844,0,0,0-.131-1.186ZM26,57.118H5.293a3.109,3.109,0,0,1-3.106-3.106V6.4A3.109,3.109,0,0,1,5.293,3.291H41.334A3.109,3.109,0,0,1,44.44,6.4V36.878a.844.844,0,1,0,1.688,0V6.4A4.8,4.8,0,0,0,41.334,1.6H5.293A4.8,4.8,0,0,0,.5,6.4V54.012a4.8,4.8,0,0,0,4.793,4.793H26a.844.844,0,0,0,0-1.688ZM12.772,11.709a.844.844,0,0,0,0-1.688H5.778a.844.844,0,0,0-.844.844V20.879a.844.844,0,0,0,.844.844h10.01a.844.844,0,0,0,.844-.844V14.808a.844.844,0,1,0-1.688,0v5.227H6.622V11.709Zm5.458-3.8a.844.844,0,0,0-1.186.131l-6.428,8.027L8.892,13.311a.844.844,0,1,0-1.431.9l2.354,3.762a.844.844,0,0,0,.666.395h.049a.844.844,0,0,0,.659-.316l7.171-8.955a.844.844,0,0,0-.131-1.186Zm20.61,2.114H21.775a.844.844,0,0,0,0,1.688H38.84a.844.844,0,0,0,0-1.688Zm0,4.516H21.775a.844.844,0,0,0,0,1.688H38.84a.844.844,0,0,0,0-1.688Zm0,10.967H21.775a.844.844,0,0,0,0,1.688H38.84a.844.844,0,0,0,0-1.688Zm.844,5.361a.844.844,0,0,0-.844-.844H21.775a.844.844,0,0,0,0,1.688H38.84A.844.844,0,0,0,39.684,30.865ZM26.814,41.832a.844.844,0,0,0-.844-.844h-4.2a.844.844,0,0,0,0,1.688h4.2A.844.844,0,0,0,26.814,41.832Zm-5.039,3.673a.844.844,0,0,0,0,1.688h2.234a.844.844,0,0,0,0-1.688ZM61.79,37.3l-3.815,2.2,1.738,1a.844.844,0,0,1,0,1.461L56,44.111a.843.843,0,0,1-.844,0l-2.581-1.491L50.13,44.033a13.211,13.211,0,1,1-.846-1.46l2.451-1.415V38.18a.844.844,0,0,1,.422-.731l3.71-2.142a.844.844,0,0,1,1.266.731v2l3.815-2.2A.844.844,0,0,1,61.79,37.3ZM48.665,44.878,46.383,46.2a8.892,8.892,0,1,1-.846-1.46l2.282-1.317a11.427,11.427,0,1,0,.847,1.46ZM37.451,49.4l2.778-1.6a2.818,2.818,0,1,0,.845,1.461l-2.779,1.6a.844.844,0,1,1-.844-1.462Zm4.281-2.472,2.337-1.349a7.157,7.157,0,1,0,.846,1.461l-2.336,1.349a4.52,4.52,0,1,1-.846-1.46ZM57.6,41.238l-1.73-1,0,0,0,0-.021-.014a.839.839,0,0,1-.07-.047l-.027-.023c-.019-.016-.039-.032-.056-.05s-.022-.025-.033-.037-.028-.03-.04-.046a.86.86,0,0,1-.061-.092h0a.856.856,0,0,1-.045-.09L55.5,39.81c-.01-.025-.018-.049-.025-.074l-.007-.024a.84.84,0,0,1-.019-.093v-.006a.83.83,0,0,1-.007-.1s0,0,0-.007v-2l-2.023,1.168v2.49l2.159,1.248Z"/>
    </g>
  </g>
</svg>
