<svg xmlns="http://www.w3.org/2000/svg" xmlns:xlink="http://www.w3.org/1999/xlink" width="113" height="113" viewBox="0 0 113 113">
  <defs>
    <filter id="Trazado_982547" x="0" y="0" width="113" height="113" filterUnits="userSpaceOnUse">
      <feOffset dy="3" input="SourceAlpha"/>
      <feGaussianBlur stdDeviation="3" result="blur"/>
      <feFlood flood-opacity="0.161"/>
      <feComposite operator="in" in2="blur"/>
      <feComposite in="SourceGraphic"/>
    </filter>
  </defs>
  <g id="Grupo_1223739" data-name="Grupo 1223739" transform="translate(-4862 -747.216)">
    <g id="Grupo_1223312" data-name="Grupo 1223312" transform="translate(4871 753.216)">
      <g id="Grupo_1202104" data-name="Grupo 1202104" transform="translate(0)">
        <g id="Grupo_1201923" data-name="Grupo 1201923" transform="translate(0 0)">
          <g id="Grupo_1176928" data-name="Grupo 1176928" transform="translate(0)">
            <g id="Grupo_1172322" data-name="Grupo 1172322">
              <g id="Grupo_1164700" data-name="Grupo 1164700">
                <g id="Grupo_1160931" data-name="Grupo 1160931">
                  <g id="Grupo_1160749" data-name="Grupo 1160749">
                    <g id="Grupo_1158891" data-name="Grupo 1158891">
                      <g id="Grupo_1157406" data-name="Grupo 1157406">
                        <g id="Grupo_1155793" data-name="Grupo 1155793">
                          <g id="Grupo_1154704" data-name="Grupo 1154704">
                            <g id="Grupo_1150790" data-name="Grupo 1150790">
                              <g id="Grupo_1154214" data-name="Grupo 1154214" transform="translate(0)">
                                <g id="Grupo_1152583" data-name="Grupo 1152583">
                                  <g id="Grupo_1146973" data-name="Grupo 1146973">
                                    <g id="Grupo_1146954" data-name="Grupo 1146954">
                                      <g transform="matrix(1, 0, 0, 1, -9, -6)" filter="url(#Trazado_982547)">
                                        <g id="Trazado_982547-2" data-name="Trazado 982547" transform="translate(9 6)" fill="#d9faea">
                                          <path d="M 47.50000762939453 93.49986267089844 C 41.28937911987305 93.49986267089844 35.26534271240234 92.28383636474609 29.59519386291504 89.88558197021484 C 24.11772727966309 87.56880950927734 19.19814109802246 84.25183868408203 14.97310066223145 80.02679443359375 C 10.74804782867432 75.8017578125 7.431074142456055 70.88218688964844 5.114300727844238 65.40471649169922 C 2.716034412384033 59.73458480834961 1.500007629394531 53.71054458618164 1.500007629394531 47.49993133544922 C 1.500007629394531 41.2893180847168 2.716034412384033 35.26527786254883 5.114300727844238 29.59514427185059 C 7.431074142456055 24.11767768859863 10.74804782867432 19.19810485839844 14.97310066223145 14.97306442260742 C 19.19814109802246 10.74802494049072 24.11772727966309 7.431051254272461 29.59519386291504 5.114277839660645 C 35.26534271240234 2.71602463722229 41.28937911987305 1.499997973442078 47.50000762939453 1.499997973442078 C 53.71063613891602 1.499997973442078 59.73467254638672 2.71602463722229 65.40482330322266 5.114277839660645 C 70.88228607177734 7.431051254272461 75.80187225341797 10.74802494049072 80.02691650390625 14.97306442260742 C 84.25196838378906 19.19810485839844 87.56893920898438 24.11767768859863 89.88571166992188 29.59514427185059 C 92.28398132324219 35.26527786254883 93.50000762939453 41.2893180847168 93.50000762939453 47.49993133544922 C 93.50000762939453 53.71054458618164 92.28398132324219 59.73458480834961 89.88571166992188 65.40471649169922 C 87.56893920898438 70.88218688964844 84.25196838378906 75.8017578125 80.02691650390625 80.02679443359375 C 75.80187225341797 84.25183868408203 70.88228607177734 87.56880950927734 65.40482330322266 89.88558197021484 C 59.73467254638672 92.28383636474609 53.71063613891602 93.49986267089844 47.50000762939453 93.49986267089844 Z" stroke="none"/>
                                          <path d="M 47.50000762939453 2.999992370605469 C 41.4912223815918 2.999992370605469 35.66377639770508 4.1761474609375 30.17951202392578 6.495796203613281 C 24.88085174560547 8.736930847167969 20.12152862548828 11.94596099853516 16.03376007080078 16.03372955322266 C 11.94597625732422 20.12148284912109 8.736961364746094 24.88080596923828 6.495803833007812 30.17946624755859 C 4.176162719726562 35.66371536254883 3.000007629394531 41.49116134643555 3.000007629394531 47.49993133544922 C 3.000007629394531 53.50870132446289 4.176162719726562 59.33614730834961 6.495803833007812 64.82038879394531 C 8.736961364746094 70.11905670166016 11.94597625732422 74.87836456298828 16.03376007080078 78.96613311767578 C 20.12152862548828 83.05390167236328 24.88085174560547 86.26291656494141 30.17951202392578 88.50406646728516 C 35.66377639770508 90.82369995117188 41.4912223815918 91.99985504150391 47.50000762939453 91.99985504150391 C 53.50879287719727 91.99985504150391 59.33623886108398 90.82369995117188 64.82049560546875 88.50406646728516 C 70.11916351318359 86.26291656494141 74.87848663330078 83.05390167236328 78.96625518798828 78.96613311767578 C 83.05403900146484 74.87836456298828 86.26305389404297 70.11905670166016 88.50421142578125 64.82038879394531 C 90.8238525390625 59.33614730834961 92.00000762939453 53.50870132446289 92.00000762939453 47.49993133544922 C 92.00000762939453 41.49116134643555 90.8238525390625 35.66371536254883 88.50421142578125 30.17946624755859 C 86.26305389404297 24.88080596923828 83.05403900146484 20.12148284912109 78.96625518798828 16.03372955322266 C 74.87848663330078 11.94596099853516 70.11916351318359 8.736930847167969 64.82049560546875 6.495796203613281 C 59.33623886108398 4.1761474609375 53.50879287719727 2.999992370605469 47.50000762939453 2.999992370605469 M 47.50000762939453 -7.62939453125e-06 C 73.73352813720703 -7.62939453125e-06 95.00000762939453 21.26644134521484 95.00000762939453 47.49993133544922 C 95.00000762939453 73.73342132568359 73.73352813720703 94.99985504150391 47.50000762939453 94.99985504150391 C 21.26648712158203 94.99985504150391 7.62939453125e-06 73.73342132568359 7.62939453125e-06 47.49993133544922 C 7.62939453125e-06 21.26644134521484 21.26648712158203 -7.62939453125e-06 47.50000762939453 -7.62939453125e-06 Z" stroke="none" fill="#277e53"/>
                                        </g>
                                      </g>
                                    </g>
                                  </g>
                                </g>
                              </g>
                            </g>
                          </g>
                        </g>
                      </g>
                    </g>
                  </g>
                </g>
              </g>
            </g>
          </g>
        </g>
      </g>
    </g>
    <g id="blended-learning_12521426" transform="translate(4845.164 750.378)">
      <g id="Grupo_1223738" data-name="Grupo 1223738" transform="translate(52.449 23.12)">
        <path id="Trazado_1176075" data-name="Trazado 1176075" d="M283.737,435.577h4.546v2.559a.864.864,0,0,1-.861.861H284.6a.864.864,0,0,1-.861-.861Z" transform="translate(-262.084 -386.488)" fill="#8f848f" fill-rule="evenodd"/>
        <path id="Trazado_1176076" data-name="Trazado 1176076" d="M134.157,195.81l20.943,3.957v34.166c-3.04-5.211-12.209-5.936-23.356-6.08v-29.63C131.744,196.9,132.853,195.564,134.157,195.81Z" transform="translate(-131.744 -180.853)" fill="#8f848f" fill-rule="evenodd"/>
        <path id="Trazado_1176077" data-name="Trazado 1176077" d="M160.021,193.386l19.889,3.758V229.3c-3.063-5.045-8.886-5.924-19.9-6.067V193.6C160.011,193.532,160.015,193.459,160.021,193.386Z" transform="translate(-155.984 -178.8)" fill="#635463" fill-rule="evenodd"/>
        <path id="Trazado_1176078" data-name="Trazado 1176078" d="M319.634,195.81l-20.943,3.957v34.166c3.04-5.211,12.209-5.936,23.356-6.08v-29.63C322.047,196.9,320.938,195.564,319.634,195.81Z" transform="translate(-274.908 -180.853)" fill="#8f848f" fill-rule="evenodd"/>
        <path id="Trazado_1176079" data-name="Trazado 1176079" d="M319.581,193.386l-19.889,3.758V229.3c3.063-5.045,8.886-5.924,19.9-6.067V193.6c0-.073,0-.146-.01-.219Z" transform="translate(-275.766 -178.8)" fill="#635463" fill-rule="evenodd"/>
        <path id="Trazado_1176080" data-name="Trazado 1176080" d="M170,169.445,186.4,172.63v34.938c-3.04-5.211-7.673-5.936-18.82-6.08V171.858c0-1.327,1.11-2.665,2.413-2.413Z" transform="translate(-162.477 -158.244)" fill="#b7babd" fill-rule="evenodd"/>
        <path id="Trazado_1176081" data-name="Trazado 1176081" d="M170,169.445,186.4,172.63V206.8c-3.04-5.211-7.673-5.936-18.82-6.08V171.858c0-1.327,1.11-2.665,2.413-2.413Z" transform="translate(-162.478 -158.244)" fill="#d2d4d6" fill-rule="evenodd"/>
        <path id="Trazado_1176082" data-name="Trazado 1176082" d="M316.1,169.445l-16.407,3.185v34.938c3.04-5.211,7.673-5.936,18.82-6.08V171.858c0-1.327-1.11-2.665-2.413-2.413Z" transform="translate(-275.765 -158.244)" fill="#d5dbe0" fill-rule="evenodd"/>
        <path id="Trazado_1176083" data-name="Trazado 1176083" d="M313.515,181.03l-13.824,3.044v32.657c2.561-4.981,6.465-5.674,15.857-5.812V183.336c0-1.269-.935-2.548-2.033-2.306Z" transform="translate(-275.765 -168.179)" fill="#eceff1" fill-rule="evenodd"/>
        <path id="Trazado_1176084" data-name="Trazado 1176084" d="M272.644,319.093h7.486v1.943a1.949,1.949,0,0,1-1.943,1.943h-3.6a1.949,1.949,0,0,1-1.943-1.943Z" transform="translate(-252.571 -286.599)" fill="#808f9e" fill-rule="evenodd"/>
        <path id="Trazado_1176085" data-name="Trazado 1176085" d="M261.918,293.033H272.46v1.943a1.949,1.949,0,0,1-1.943,1.943h-6.656a1.949,1.949,0,0,1-1.943-1.943Z" transform="translate(-243.373 -264.251)" fill="#9ba7b5" fill-rule="evenodd"/>
        <path id="Trazado_1176086" data-name="Trazado 1176086" d="M240.062,119.956A1.464,1.464,0,0,0,241.6,118.6c.7-9.977,4.662-11.125,4.661-16.618a11.133,11.133,0,0,0-22.265,0c0,5.493,3.958,6.641,4.661,16.618a1.464,1.464,0,0,0,1.542,1.354Z" transform="translate(-210.857 -91)" fill="#fac852" fill-rule="evenodd"/>
        <path id="Trazado_1176087" data-name="Trazado 1176087" d="M227.41,91a10.83,10.83,0,0,0-9.862,10.967c0,5.5,3.763,6.647,4.432,16.633a1.419,1.419,0,0,0,1.466,1.356h7.929a1.419,1.419,0,0,0,1.466-1.356c.669-9.986,4.433-11.135,4.432-16.633A10.83,10.83,0,0,0,227.41,91Z" transform="translate(-205.324 -91)" fill="#ffd675" fill-rule="evenodd"/>
        <path id="Trazado_1176088" data-name="Trazado 1176088" d="M262.184,272.617a1.527,1.527,0,0,0,1.605-1.417c.054-.775.128-1.5.217-2.178h-13.91c.089.679.162,1.4.217,2.178a1.527,1.527,0,0,0,1.605,1.417h10.267Z" transform="translate(-233.235 -243.661)" fill="#d2d4d6" fill-rule="evenodd"/>
        <path id="Trazado_1176089" data-name="Trazado 1176089" d="M261.918,294.219l9.354,0v1.856a1.764,1.764,0,0,1-1.641,1.856h-5.994a1.847,1.847,0,0,1-1.718-1.943v-1.774Z" transform="translate(-243.373 -265.268)" fill="#afbac7" fill-rule="evenodd"/>
        <path id="Trazado_1176090" data-name="Trazado 1176090" d="M260.6,272.617A1.527,1.527,0,0,0,262.2,271.2c.054-.775.128-1.5.217-2.178H250.095c.089.679.162,1.4.217,2.178a1.527,1.527,0,0,0,1.605,1.417H260.6Z" transform="translate(-233.235 -243.661)" fill="#eceff1" fill-rule="evenodd"/>
        <path id="Trazado_1176091" data-name="Trazado 1176091" d="M272.644,320.314h6.446v1.943a1.977,1.977,0,0,1-1.01,1.769h-3.718a1.847,1.847,0,0,1-1.718-1.943Z" transform="translate(-252.571 -287.646)" fill="#9aa6b3" fill-rule="evenodd"/>
      </g>
      <circle id="Elipse_12068" data-name="Elipse 12068" cx="13.019" cy="13.019" r="13.019" transform="translate(39.99 54.547)" fill="#fac852"/>
      <path id="Trazado_1176092" data-name="Trazado 1176092" d="M56.289,337.841a13.02,13.02,0,0,1,0-25.96,13.02,13.02,0,0,1,0,25.96Z" transform="translate(-4.295 -257.294)" fill="#ffd675" fill-rule="evenodd"/>
      <path id="Trazado_1176093" data-name="Trazado 1176093" d="M82.792,341.536a6.93,6.93,0,0,1,1.591.66L85.8,341.3a.807.807,0,0,1,1.034,0l1.061,1.061a.807.807,0,0,1,0,1.034L87,344.816a6.93,6.93,0,0,1,.66,1.592l1.636.372c.392.089.731.329.731.731v1.5c0,.4-.339.642-.731.731l-1.637.372a6.925,6.925,0,0,1-.66,1.591l.895,1.421a.807.807,0,0,1,0,1.034l-1.061,1.061a.807.807,0,0,1-1.034,0l-1.421-.894a6.92,6.92,0,0,1-1.592.66l-.372,1.636c-.089.392-.329.731-.731.731h-1.5c-.4,0-.642-.339-.731-.731l-.372-1.637a6.932,6.932,0,0,1-1.591-.66l-1.421.895a.807.807,0,0,1-1.034,0l-1.061-1.061a.807.807,0,0,1,0-1.034l.894-1.421a6.931,6.931,0,0,1-.66-1.592l-1.636-.372c-.392-.089-.731-.329-.731-.731v-1.5c0-.4.339-.642.731-.731l1.636-.372a6.932,6.932,0,0,1,.66-1.591l-.894-1.421a.807.807,0,0,1,0-1.034l1.061-1.061a.807.807,0,0,1,1.034,0l1.421.895a6.941,6.941,0,0,1,1.591-.66l.372-1.637c.089-.392.329-.731.731-.731h1.5c.4,0,.642.339.731.731l.372,1.637Z" transform="translate(-27.929 -280.694)" fill="#ed5a5d" fill-rule="evenodd"/>
      <path id="Trazado_1176094" data-name="Trazado 1176094" d="M81.327,341.535a5.813,5.813,0,0,1,2.015.965l1.856-1.2,1.014,1.06a.836.836,0,0,1,0,1.034l-.855,1.421a7.109,7.109,0,0,1,.631,1.592l1.565.372a.791.791,0,0,1,.7.731v1.5a.791.791,0,0,1-.7.731l-1.566.372a7.113,7.113,0,0,1-.631,1.591l.856,1.421a.836.836,0,0,1,0,1.034l-1.014,1.06c-.23-.151-1.675-1.129-1.859-1.179a8.733,8.733,0,0,1-2.012.945l-.356,1.636c-.085.392-.315.731-.7.731h-.444c-.385,0-.614-.339-.7-.731l-.356-1.637a6.473,6.473,0,0,1-1.522-.66l-1.359.895a.747.747,0,0,1-.989,0l-1.015-1.061a.933.933,0,0,1-.01-1.016l.866-1.438a7.107,7.107,0,0,1-.631-1.592l-1.565-.372a.791.791,0,0,1-.7-.731v-1.5a.791.791,0,0,1,.7-.731l1.565-.372a7.1,7.1,0,0,1,.631-1.591l-.855-1.421a.836.836,0,0,1,0-1.034L74.9,341.3a.747.747,0,0,1,.989,0l1.359.895a6.483,6.483,0,0,1,1.522-.66l.356-1.637c.085-.392.315-.731.7-.731h.444c.385,0,.614.339.7.731l.356,1.637Z" transform="translate(-27.931 -280.693)" fill="#ff7577" fill-rule="evenodd"/>
      <circle id="Elipse_12069" data-name="Elipse 12069" cx="3.887" cy="3.887" r="3.887" transform="translate(47.505 67.563) rotate(-45)" fill="#f0d4c9"/>
      <path id="Trazado_1176095" data-name="Trazado 1176095" d="M115.18,375.789c1.451.153,2.594,1.829,2.594,3.876s-1.143,3.723-2.594,3.876c-1.451-.153-2.594-1.829-2.594-3.876S113.729,375.942,115.18,375.789Z" transform="translate(-62.866 -312.098)" fill="#faefe8" fill-rule="evenodd"/>
      <path id="Trazado_1176096" data-name="Trazado 1176096" d="M99.713,38.269a2.766,2.766,0,0,0-2.306-.63l-.942.178a3.675,3.675,0,0,0-1.3-2.742,2.753,2.753,0,0,0-2.3-.62l-4.216.818a11.45,11.45,0,0,0,.069-1.252,12.07,12.07,0,1,0-24.14,0,11.487,11.487,0,0,0,.069,1.252l-4.216-.818a2.753,2.753,0,0,0-2.3.62,3.675,3.675,0,0,0-1.3,2.742l-.942-.178a2.768,2.768,0,0,0-2.305.63,3.672,3.672,0,0,0-1.29,2.763v13.19A14.016,14.016,0,1,0,66.617,72.552c4.87.835,7.8,2.335,9.17,4.692.017.029.036.055.055.082l.017.025a1.008,1.008,0,0,0,.1.112l.02.017a1,1,0,0,0,.1.076l.038.024a.981.981,0,0,0,.094.053l.042.02a1,1,0,0,0,.125.045l.015.005h0c.032.009.064.014.1.02l.031.006a.969.969,0,0,0,.474-.055l.033-.011c.015-.006.029-.014.044-.021s.051-.024.076-.038l0,0a.972.972,0,0,0,.092-.062l.022-.018q.037-.029.07-.06l.024-.024a.945.945,0,0,0,.065-.073l.014-.017a.974.974,0,0,0,.068-.1l0,0c2.872-4.922,12.694-5.458,22.508-5.586a1,1,0,0,0,.984-1V41.032a3.672,3.672,0,0,0-1.29-2.763Zm-6.467-1.856a.774.774,0,0,1,.654.2,1.679,1.679,0,0,1,.572,1.233V66.494c-8.628.144-13.539.716-16.826,4.082V60.066h.846a2.731,2.731,0,0,0,2.718-2.511.978.978,0,0,0,.146.013,1.006,1.006,0,0,0,.178-.016l9.4-1.689a1,1,0,1,0-.353-1.963l-8.375,1.5a2.713,2.713,0,0,0,.472-1.532v-.979a2.406,2.406,0,0,0,1.4-2.05l0-.024,6.854-1.231a1,1,0,0,0-.353-1.963l-6.3,1.131a24.383,24.383,0,0,1,.97-4.422l5.679-1.02a1,1,0,1,0-.353-1.963l-4.491.807c.272-.618.55-1.188.82-1.74a21.854,21.854,0,0,0,1.29-3.027l5.043-.979Zm-19.108.217h-1.2a1.2,1.2,0,1,1,1.2-1.2Zm3.026,11.05H76.133V38.624h1.032Zm5.012,1.994c-.005.056-.01.113-.015.169,0,.016,0,.032,0,.048-.024.266-.047.536-.066.815a.488.488,0,0,1-.538.437H71.745a.488.488,0,0,1-.538-.437c-.019-.278-.042-.548-.066-.814,0-.016,0-.033,0-.049-.005-.056-.01-.114-.015-.169H82.177Zm-8.831,4.933a.735.735,0,0,1-.735-.735v-.735h8.076v.735a.735.735,0,0,1-.735.735Zm.725,1.994h5.156v.735a.735.735,0,0,1-.735.735H74.806a.735.735,0,0,1-.735-.735V56.6Zm2.578-32.657A10.088,10.088,0,0,1,86.725,34.022a11.525,11.525,0,0,1-1.6,5.522,32.606,32.606,0,0,0-1.555,3.575c0,.012-.009.023-.012.035a25.364,25.364,0,0,0-1.125,4.526h-3.27V38.624h1.2a3.2,3.2,0,1,0-3.2-3.2v1.2H76.133v-1.2a3.2,3.2,0,1,0-3.2,3.2h1.2V47.68H70.869a25.363,25.363,0,0,0-1.125-4.526c0-.012-.008-.024-.013-.036a32.6,32.6,0,0,0-1.554-3.574,11.523,11.523,0,0,1-1.6-5.522A10.088,10.088,0,0,1,76.649,23.946Zm2.51,12.684v-1.2a1.2,1.2,0,1,1,1.2,1.2ZM59.4,36.614a.775.775,0,0,1,.654-.2l5.043.979a21.844,21.844,0,0,0,1.29,3.027c.27.552.547,1.122.82,1.74l-4.491-.806a1,1,0,1,0-.353,1.963l5.679,1.02a24.382,24.382,0,0,1,.97,4.422l-6.3-1.131a1,1,0,1,0-.353,1.963l6.854,1.231,0,.024a2.406,2.406,0,0,0,1.4,2.05v.979a2.713,2.713,0,0,0,.472,1.532l-8.375-1.5a1,1,0,0,0-.353,1.963l9.4,1.689a1,1,0,0,0,.178.016.992.992,0,0,0,.146-.013,2.731,2.731,0,0,0,2.718,2.511h.846V70.577c-1.941-1.975-4.539-3.058-8.4-3.587a13.911,13.911,0,0,0-1.016-4.155l5.523.992a1,1,0,0,0,.353-1.963L65.062,60.6a14.1,14.1,0,0,0-6.236-5.273V37.847a1.679,1.679,0,0,1,.572-1.233ZM54.858,39.8a.789.789,0,0,1,.663-.205l1.311.248V54.638a13.943,13.943,0,0,0-2.541-.417V41.032a1.675,1.675,0,0,1,.568-1.227Zm-1.565,40.42A12.022,12.022,0,1,1,65.315,68.2,12.036,12.036,0,0,1,53.293,80.224ZM67.1,70.612a13.989,13.989,0,0,0,.184-1.6c4.341.632,6.624,1.966,8.366,4.825v.2c-1.895-1.625-4.691-2.737-8.55-3.416Zm31.907-.934c-8.885.143-17.088.7-21.362,4.356v-.2c2.71-4.448,6.718-5.214,17.836-5.358a1,1,0,0,0,.984-1V39.847l1.311-.248a.788.788,0,0,1,.663.205,1.676,1.676,0,0,1,.568,1.227V69.678Zm-7.266-8.7a1,1,0,0,1-.805,1.158l-9.4,1.689a1,1,0,0,1-.353-1.963l9.4-1.689a1,1,0,0,1,1.158.805ZM61.876,65.749,60.8,65.5q-.128-.355-.289-.7l.59-.938a1.777,1.777,0,0,0-.139-2.27L59.9,60.537a1.777,1.777,0,0,0-2.27-.139l-.938.591q-.341-.161-.7-.289l-.246-1.081a1.777,1.777,0,0,0-1.7-1.507h-1.5a1.777,1.777,0,0,0-1.7,1.507L50.594,60.7q-.355.128-.7.289l-.938-.591a1.777,1.777,0,0,0-2.27.139L45.628,61.6a1.777,1.777,0,0,0-.139,2.27l.59.938q-.161.342-.289.7l-1.08.246a1.777,1.777,0,0,0-1.507,1.7v1.5a1.777,1.777,0,0,0,1.507,1.7l1.08.246q.128.355.289.7l-.59.938a1.777,1.777,0,0,0,.139,2.27l1.061,1.06a1.776,1.776,0,0,0,2.27.139l.938-.59q.341.161.7.289l.246,1.081a1.777,1.777,0,0,0,1.7,1.507h1.5a1.777,1.777,0,0,0,1.7-1.507l.246-1.08q.355-.128.7-.289l.938.59a1.777,1.777,0,0,0,2.27-.139l1.061-1.061a1.777,1.777,0,0,0,.139-2.27l-.59-.938q.161-.342.289-.7l1.081-.246a1.777,1.777,0,0,0,1.507-1.7v-1.5a1.777,1.777,0,0,0-1.507-1.7Zm-.487,2.972-1.592.362a1,1,0,0,0-.74.708,5.942,5.942,0,0,1-.565,1.362,1,1,0,0,0,.023,1.024l.87,1.382-.734.734-1.382-.87a1,1,0,0,0-1.024-.023,5.952,5.952,0,0,1-1.363.565,1,1,0,0,0-.708.74L53.812,76.3H52.774l-.362-1.592a1,1,0,0,0-.708-.74,5.946,5.946,0,0,1-1.362-.565,1,1,0,0,0-1.024.023l-1.382.87-.734-.734.87-1.382a1,1,0,0,0,.023-1.024,5.944,5.944,0,0,1-.565-1.363,1,1,0,0,0-.74-.708L45.2,68.721V67.683l1.591-.362a1,1,0,0,0,.74-.708,5.942,5.942,0,0,1,.565-1.362,1,1,0,0,0-.023-1.024l-.87-1.382.734-.734,1.382.87A1,1,0,0,0,50.341,63a5.932,5.932,0,0,1,1.362-.565,1,1,0,0,0,.708-.74l.362-1.592h1.038l.362,1.592a1,1,0,0,0,.708.741A5.933,5.933,0,0,1,56.244,63a1,1,0,0,0,1.024-.023l1.382-.87.734.734-.87,1.381a1,1,0,0,0-.023,1.024,5.946,5.946,0,0,1,.565,1.363,1,1,0,0,0,.74.708l1.591.362v1.038Zm-8.1-5.4A4.884,4.884,0,1,0,58.177,68.2,4.89,4.89,0,0,0,53.293,63.318Zm0,7.774a2.89,2.89,0,1,1,2.89-2.89A2.893,2.893,0,0,1,53.293,71.092ZM75.769,18.964V12.84a1,1,0,1,1,1.994,0v6.124a1,1,0,1,1-1.994,0Zm7.327.177,2.016-3.492a1,1,0,1,1,1.727,1l-2.016,3.492a1,1,0,0,1-1.727-1Zm5.352,6.349a1,1,0,0,1,.365-1.362l3.492-2.016a1,1,0,1,1,1,1.727L89.81,25.855a1,1,0,0,1-1.362-.365Zm-21.99-8.844a1,1,0,1,1,1.727-1L70.2,19.141a1,1,0,1,1-1.727,1Zm-6.828,5.83a1,1,0,0,1,1.362-.365l3.492,2.016a1,1,0,1,1-1,1.727L60,23.839A1,1,0,0,1,59.63,22.477Z" transform="translate(0 0)"/>
    </g>
  </g>
</svg>
