<svg xmlns="http://www.w3.org/2000/svg" xmlns:xlink="http://www.w3.org/1999/xlink" width="113" height="113" viewBox="0 0 113 113">
  <defs>
    <filter id="Trazado_982547" x="0" y="0" width="113" height="113" filterUnits="userSpaceOnUse">
      <feOffset dy="3" input="SourceAlpha"/>
      <feGaussianBlur stdDeviation="3" result="blur"/>
      <feFlood flood-opacity="0.161"/>
      <feComposite operator="in" in2="blur"/>
      <feComposite in="SourceGraphic"/>
    </filter>
  </defs>
  <g id="Grupo_1223743" data-name="Grupo 1223743" transform="translate(-4543 -1127.216)">
    <g id="Grupo_1223313" data-name="Grupo 1223313" transform="translate(4552 1133.216)">
      <g id="Grupo_1177675" data-name="Grupo 1177675" transform="translate(0 0)">
        <g id="Grupo_1176928" data-name="Grupo 1176928" transform="translate(0)">
          <g id="Grupo_1172322" data-name="Grupo 1172322">
            <g id="Grupo_1164700" data-name="Grupo 1164700">
              <g id="Grupo_1160931" data-name="Grupo 1160931">
                <g id="Grupo_1160749" data-name="Grupo 1160749">
                  <g id="Grupo_1158891" data-name="Grupo 1158891">
                    <g id="Grupo_1157406" data-name="Grupo 1157406">
                      <g id="Grupo_1155793" data-name="Grupo 1155793">
                        <g id="Grupo_1154704" data-name="Grupo 1154704">
                          <g id="Grupo_1150790" data-name="Grupo 1150790">
                            <g id="Grupo_1154214" data-name="Grupo 1154214" transform="translate(0)">
                              <g id="Grupo_1152583" data-name="Grupo 1152583">
                                <g id="Grupo_1146973" data-name="Grupo 1146973">
                                  <g id="Grupo_1146954" data-name="Grupo 1146954">
                                    <g transform="matrix(1, 0, 0, 1, -9, -6)" filter="url(#Trazado_982547)">
                                      <g id="Trazado_982547-2" data-name="Trazado 982547" transform="translate(9 6)" fill="#d9faea">
                                        <path d="M 47.50000762939453 93.49986267089844 C 41.28937911987305 93.49986267089844 35.26534271240234 92.28383636474609 29.59519386291504 89.88558197021484 C 24.11772727966309 87.56880950927734 19.19814109802246 84.25183868408203 14.97310066223145 80.02679443359375 C 10.74804782867432 75.8017578125 7.431074142456055 70.88218688964844 5.114300727844238 65.40471649169922 C 2.716034412384033 59.73458480834961 1.500007629394531 53.71054458618164 1.500007629394531 47.49993133544922 C 1.500007629394531 41.2893180847168 2.716034412384033 35.26527786254883 5.114300727844238 29.59514427185059 C 7.431074142456055 24.11767768859863 10.74804782867432 19.19810485839844 14.97310066223145 14.97306442260742 C 19.19814109802246 10.74802494049072 24.11772727966309 7.431051254272461 29.59519386291504 5.114277839660645 C 35.26534271240234 2.71602463722229 41.28937911987305 1.499997973442078 47.50000762939453 1.499997973442078 C 53.71063613891602 1.499997973442078 59.73467254638672 2.71602463722229 65.40482330322266 5.114277839660645 C 70.88228607177734 7.431051254272461 75.80187225341797 10.74802494049072 80.02691650390625 14.97306442260742 C 84.25196838378906 19.19810485839844 87.56893920898438 24.11767768859863 89.88571166992188 29.59514427185059 C 92.28398132324219 35.26527786254883 93.50000762939453 41.2893180847168 93.50000762939453 47.49993133544922 C 93.50000762939453 53.71054458618164 92.28398132324219 59.73458480834961 89.88571166992188 65.40471649169922 C 87.56893920898438 70.88218688964844 84.25196838378906 75.8017578125 80.02691650390625 80.02679443359375 C 75.80187225341797 84.25183868408203 70.88228607177734 87.56880950927734 65.40482330322266 89.88558197021484 C 59.73467254638672 92.28383636474609 53.71063613891602 93.49986267089844 47.50000762939453 93.49986267089844 Z" stroke="none"/>
                                        <path d="M 47.50000762939453 2.999992370605469 C 41.4912223815918 2.999992370605469 35.66377639770508 4.1761474609375 30.17951202392578 6.495796203613281 C 24.88085174560547 8.736930847167969 20.12152862548828 11.94596099853516 16.03376007080078 16.03372955322266 C 11.94597625732422 20.12148284912109 8.736961364746094 24.88080596923828 6.495803833007812 30.17946624755859 C 4.176162719726562 35.66371536254883 3.000007629394531 41.49116134643555 3.000007629394531 47.49993133544922 C 3.000007629394531 53.50870132446289 4.176162719726562 59.33614730834961 6.495803833007812 64.82038879394531 C 8.736961364746094 70.11905670166016 11.94597625732422 74.87836456298828 16.03376007080078 78.96613311767578 C 20.12152862548828 83.05390167236328 24.88085174560547 86.26291656494141 30.17951202392578 88.50406646728516 C 35.66377639770508 90.82369995117188 41.4912223815918 91.99985504150391 47.50000762939453 91.99985504150391 C 53.50879287719727 91.99985504150391 59.33623886108398 90.82369995117188 64.82049560546875 88.50406646728516 C 70.11916351318359 86.26291656494141 74.87848663330078 83.05390167236328 78.96625518798828 78.96613311767578 C 83.05403900146484 74.87836456298828 86.26305389404297 70.11905670166016 88.50421142578125 64.82038879394531 C 90.8238525390625 59.33614730834961 92.00000762939453 53.50870132446289 92.00000762939453 47.49993133544922 C 92.00000762939453 41.49116134643555 90.8238525390625 35.66371536254883 88.50421142578125 30.17946624755859 C 86.26305389404297 24.88080596923828 83.05403900146484 20.12148284912109 78.96625518798828 16.03372955322266 C 74.87848663330078 11.94596099853516 70.11916351318359 8.736930847167969 64.82049560546875 6.495796203613281 C 59.33623886108398 4.1761474609375 53.50879287719727 2.999992370605469 47.50000762939453 2.999992370605469 M 47.50000762939453 -7.62939453125e-06 C 73.73352813720703 -7.62939453125e-06 95.00000762939453 21.26644134521484 95.00000762939453 47.49993133544922 C 95.00000762939453 73.73342132568359 73.73352813720703 94.99985504150391 47.50000762939453 94.99985504150391 C 21.26648712158203 94.99985504150391 7.62939453125e-06 73.73342132568359 7.62939453125e-06 47.49993133544922 C 7.62939453125e-06 21.26644134521484 21.26648712158203 -7.62939453125e-06 47.50000762939453 -7.62939453125e-06 Z" stroke="none" fill="#277e53"/>
                                      </g>
                                    </g>
                                  </g>
                                </g>
                              </g>
                            </g>
                          </g>
                        </g>
                      </g>
                    </g>
                  </g>
                </g>
              </g>
            </g>
          </g>
        </g>
      </g>
    </g>
    <g id="education_7457181" transform="translate(4560.135 1143.076)">
      <g id="Grupo_1223741" data-name="Grupo 1223741" transform="translate(7.5 7.5)">
        <path id="Trazado_1176097" data-name="Trazado 1176097" d="M32,19.752A12.252,12.252,0,1,0,19.752,32l6.815,3.176V29.935A12.239,12.239,0,0,0,32,19.752Z" transform="translate(-7.5 -7.5)" fill="#ffd15b"/>
        <path id="Trazado_1176098" data-name="Trazado 1176098" d="M61.218,22.808A13.843,13.843,0,0,1,48.945,43.047a13.964,13.964,0,0,1-1.637-.1,12.2,12.2,0,0,0,7.424,2.505l6.815,3.176V43.386a12.254,12.254,0,0,0-.329-20.578Z" transform="translate(-42.48 -20.951)" fill="#ffc344"/>
        <g id="Grupo_1223740" data-name="Grupo 1223740" transform="translate(20.461 5.758)">
          <path id="Trazado_1176099" data-name="Trazado 1176099" d="M182.079,310.45H199.72a3.921,3.921,0,0,1,3.839,3.126l2.043,9.873H176.2l2.043-9.873A3.921,3.921,0,0,1,182.079,310.45Z" transform="translate(-176.197 -279.465)" fill="#bbec6c"/>
          <path id="Trazado_1176100" data-name="Trazado 1176100" d="M203.559,329.641a3.922,3.922,0,0,0-.308-.909h-4.5a6.9,6.9,0,0,0-5.442,2.7h-7.686a6.446,6.446,0,0,0-6.2,4.656h-2.509l-.71,3.431h29.4Z" transform="translate(-176.197 -295.529)" fill="#a2e62e"/>
          <path id="Trazado_1176101" data-name="Trazado 1176101" d="M276.633,290.624h0a2.869,2.869,0,0,1-2.869-2.869v-3.643H279.5v3.643A2.869,2.869,0,0,1,276.633,290.624Z" transform="translate(-261.93 -256.321)" fill="#f6a96c"/>
          <path id="Trazado_1176102" data-name="Trazado 1176102" d="M238.962,156.144h0a8.068,8.068,0,0,1-8.068-8.068V137.461h16.137v10.615A8.069,8.069,0,0,1,238.962,156.144Z" transform="translate(-224.26 -127.457)" fill="#fed2a4"/>
          <path id="Trazado_1176103" data-name="Trazado 1176103" d="M292.224,137.46v10.615a8.071,8.071,0,0,1-6.634,7.941,8.113,8.113,0,0,0,1.434.127h0a8.068,8.068,0,0,0,8.068-8.068V137.46Z" transform="translate(-272.322 -127.456)" fill="#ffbd86"/>
          <path id="Trazado_1176104" data-name="Trazado 1176104" d="M203.457,183.413h.807v-5.737h-.807a2.869,2.869,0,0,0-2.869,2.869h0A2.869,2.869,0,0,0,203.457,183.413Z" transform="translate(-197.63 -162.794)" fill="#f6a96c"/>
          <path id="Trazado_1176105" data-name="Trazado 1176105" d="M364.747,183.413h-.807v-5.737h.807a2.869,2.869,0,0,1,2.869,2.869h0A2.869,2.869,0,0,1,364.747,183.413Z" transform="translate(-341.169 -162.794)" fill="#f6a96c"/>
          <path id="Trazado_1176106" data-name="Trazado 1176106" d="M230.236,68.634v-2.9a10.758,10.758,0,0,0-10.758-10.758h0A10.758,10.758,0,0,0,208.72,65.736v2.9a1.225,1.225,0,0,0,1.225,1.225H229.01A1.225,1.225,0,0,0,230.236,68.634Z" transform="translate(-204.775 -54.978)" fill="#d77f4a"/>
        </g>
        <path id="Trazado_1176107" data-name="Trazado 1176107" d="M61.662,351.3h0a2.94,2.94,0,0,1,4.158,0l7.288,7.288h8.654a2.926,2.926,0,0,1-.553-1.724,2.986,2.986,0,0,1,3.01-2.931H94a3.43,3.43,0,0,1,3.351-2.7h6.195a3.431,3.431,0,0,1,3.384,2.866l.339,2.034h3.676v12.987H95.867a14.7,14.7,0,0,1-2.826-.274l-20.609-4.037A5.881,5.881,0,0,1,69.4,363.2l-7.742-7.742A2.94,2.94,0,0,1,61.662,351.3Z" transform="translate(-54.336 -308.846)" fill="#fed2a4"/>
        <path id="Trazado_1176108" data-name="Trazado 1176108" d="M361.874,362.121l-.339-2.034a3.43,3.43,0,0,0-2.949-2.839,24.463,24.463,0,0,1-8.033,17.86h15V362.121Z" transform="translate(-308.945 -314.828)" fill="#ffbd86"/>
        <rect id="Rectángulo_421788" data-name="Rectángulo 421788" width="3.676" height="15.437" transform="translate(56.604 44.842)" fill="#0573ce"/>
      </g>
      <path id="Trazado_1176109" data-name="Trazado 1176109" d="M316.128,60.582a10.728,10.728,0,0,1-1.708,14.2h7.47a1.225,1.225,0,0,0,1.225-1.225v-2.9A10.761,10.761,0,0,0,316.128,60.582Z" transform="translate(-269.694 -46.644)" fill="#c86d36"/>
      <g id="Grupo_1223742" data-name="Grupo 1223742" transform="translate(11.802 11.929)">
        <path id="Trazado_1176110" data-name="Trazado 1176110" d="M69.113,89.022l-3.9,2.283a2.23,2.23,0,0,1-2.252,0l-3.9-2.283a2.23,2.23,0,0,1-1.1-1.925V80.815H70.218V87.1A2.23,2.23,0,0,1,69.113,89.022Z" transform="translate(-56.135 -76.352)" fill="#0573ce"/>
        <path id="Trazado_1176111" data-name="Trazado 1176111" d="M50.275,53.9,43.4,49.814a.892.892,0,0,1,0-1.533l6.871-4.087a1.257,1.257,0,0,1,1.286,0l6.871,4.087a.892.892,0,0,1,0,1.533L51.561,53.9A1.257,1.257,0,0,1,50.275,53.9Z" transform="translate(-42.967 -44.017)" fill="#528fd8"/>
      </g>
      <path id="Trazado_1176112" data-name="Trazado 1176112" d="M11.613,28.908a12.2,12.2,0,0,0,8.14,3.1l6.814,3.177V29.935A12.249,12.249,0,1,0,8.982,25.6" transform="translate(0 0)" fill="none" stroke="#000" stroke-linecap="round" stroke-linejoin="round" stroke-miterlimit="10" stroke-width="2"/>
      <path id="Trazado_1176113" data-name="Trazado 1176113" d="M176.2,323.449l2.043-9.873a3.921,3.921,0,0,1,3.839-3.126h5.952" transform="translate(-148.236 -266.206)" fill="none" stroke="#000" stroke-linecap="round" stroke-linejoin="round" stroke-miterlimit="10" stroke-width="2"/>
      <path id="Trazado_1176114" data-name="Trazado 1176114" d="M321.069,310.448h5.952a3.92,3.92,0,0,1,3.839,3.127l.522,2.522" transform="translate(-275.537 -266.204)" fill="none" stroke="#000" stroke-linecap="round" stroke-linejoin="round" stroke-miterlimit="10" stroke-width="2"/>
      <path id="Trazado_1176115" data-name="Trazado 1176115" d="M279.5,287.911v3.182a2.869,2.869,0,0,1-5.738,0v-3.182" transform="translate(-233.969 -246.401)" fill="none" stroke="#000" stroke-linecap="round" stroke-linejoin="round" stroke-miterlimit="10" stroke-width="2"/>
      <path id="Trazado_1176116" data-name="Trazado 1176116" d="M247.031,224.981a8.068,8.068,0,0,1-8.068,8.068h0a8.068,8.068,0,0,1-8.068-8.068" transform="translate(-196.299 -191.103)" fill="none" stroke="#000" stroke-linecap="round" stroke-linejoin="round" stroke-miterlimit="10" stroke-width="2"/>
      <path id="Trazado_1176117" data-name="Trazado 1176117" d="M203.457,183.413h.807v-5.737h-.807a2.869,2.869,0,0,0-2.869,2.869h0A2.869,2.869,0,0,0,203.457,183.413Z" transform="translate(-169.669 -149.536)" fill="none" stroke="#000" stroke-linecap="round" stroke-linejoin="round" stroke-miterlimit="10" stroke-width="2"/>
      <path id="Trazado_1176118" data-name="Trazado 1176118" d="M364.747,183.413h-.807v-5.737h.807a2.869,2.869,0,0,1,2.869,2.869h0A2.869,2.869,0,0,1,364.747,183.413Z" transform="translate(-313.208 -149.536)" fill="none" stroke="#000" stroke-linecap="round" stroke-linejoin="round" stroke-miterlimit="10" stroke-width="2"/>
      <rect id="Rectángulo_421789" data-name="Rectángulo 421789" width="3.676" height="15.437" transform="translate(64.104 52.342)" fill="none" stroke="#000" stroke-linecap="round" stroke-linejoin="round" stroke-miterlimit="10" stroke-width="2"/>
      <path id="Trazado_1176119" data-name="Trazado 1176119" d="M312.82,359.715h2.629a3.429,3.429,0,0,1,3.35-2.7h6.2a3.429,3.429,0,0,1,3.383,2.866l.34,2.034h3.676" transform="translate(-268.289 -307.128)" fill="none" stroke="#000" stroke-linecap="round" stroke-linejoin="round" stroke-miterlimit="10" stroke-width="2"/>
      <path id="Trazado_1176120" data-name="Trazado 1176120" d="M87.12,353.933h-2.9a2.986,2.986,0,0,0-3.01,2.932,2.931,2.931,0,0,0,.553,1.725H73.1L65.818,351.3a2.941,2.941,0,0,0-4.159,4.159L69.4,363.2a5.9,5.9,0,0,0,3.029,1.613l20.609,4.036a14.735,14.735,0,0,0,2.826.274h15.074" transform="translate(-46.833 -301.346)" fill="none" stroke="#000" stroke-linecap="round" stroke-linejoin="round" stroke-miterlimit="10" stroke-width="2"/>
      <path id="Trazado_1176121" data-name="Trazado 1176121" d="M233.628,417.626a2.8,2.8,0,0,0,.308.364,2.936,2.936,0,0,0,2.079.861h10.292l1.225,1.225" transform="translate(-198.702 -360.383)" fill="none" stroke="#000" stroke-linecap="round" stroke-linejoin="round" stroke-miterlimit="10" stroke-width="2"/>
      <path id="Trazado_1176122" data-name="Trazado 1176122" d="M229.98,63.4a10.826,10.826,0,0,1,.255,2.337v2.9a1.226,1.226,0,0,1-1.225,1.226H209.945a1.226,1.226,0,0,1-1.225-1.226v-2.9a10.757,10.757,0,0,1,19.548-6.2" transform="translate(-176.815 -41.721)" fill="none" stroke="#000" stroke-linecap="round" stroke-linejoin="round" stroke-miterlimit="10" stroke-width="2"/>
      <line id="Línea_625" data-name="Línea 625" y2="3.378" transform="translate(47.812 24.762)" fill="none" stroke="#000" stroke-linecap="round" stroke-linejoin="round" stroke-miterlimit="10" stroke-width="2"/>
      <line id="Línea_626" data-name="Línea 626" y2="2.153" transform="translate(44.136 25.987)" fill="none" stroke="#000" stroke-linecap="round" stroke-linejoin="round" stroke-miterlimit="10" stroke-width="2"/>
      <line id="Línea_627" data-name="Línea 627" y2="1.54" transform="translate(38.01 26.6)" fill="none" stroke="#000" stroke-linecap="round" stroke-linejoin="round" stroke-miterlimit="10" stroke-width="2"/>
      <path id="Trazado_1176123" data-name="Trazado 1176123" d="M70.217,98.59v4.126a2.23,2.23,0,0,1-1.1,1.925l-3.9,2.282a2.23,2.23,0,0,1-2.252,0l-3.9-2.282a2.23,2.23,0,0,1-1.1-1.925V98.59" transform="translate(-44.332 -80.042)" fill="none" stroke="#000" stroke-linecap="round" stroke-linejoin="round" stroke-miterlimit="10" stroke-width="2"/>
      <path id="Trazado_1176124" data-name="Trazado 1176124" d="M50.275,53.9,43.4,49.814a.892.892,0,0,1,0-1.533l6.871-4.087a1.257,1.257,0,0,1,1.286,0l6.871,4.087a.892.892,0,0,1,0,1.533L51.561,53.9A1.257,1.257,0,0,1,50.275,53.9Z" transform="translate(-31.166 -32.088)" fill="none" stroke="#000" stroke-linecap="round" stroke-linejoin="round" stroke-miterlimit="10" stroke-width="2"/>
    </g>
  </g>
</svg>
