<svg xmlns="http://www.w3.org/2000/svg" xmlns:xlink="http://www.w3.org/1999/xlink" width="113" height="113" viewBox="0 0 113 113">
  <defs>
    <filter id="Trazado_982547" x="0" y="0" width="113" height="113" filterUnits="userSpaceOnUse">
      <feOffset dy="3" input="SourceAlpha"/>
      <feGaussianBlur stdDeviation="3" result="blur"/>
      <feFlood flood-opacity="0.161"/>
      <feComposite operator="in" in2="blur"/>
      <feComposite in="SourceGraphic"/>
    </filter>
  </defs>
  <g id="Grupo_1223765" data-name="Grupo 1223765" transform="translate(-4862 -1127.216)">
    <g id="Grupo_1223314" data-name="Grupo 1223314" transform="translate(4871 1133.216)">
      <g id="Grupo_1202104" data-name="Grupo 1202104" transform="translate(0)">
        <g id="Grupo_1201923" data-name="Grupo 1201923" transform="translate(0 0)">
          <g id="Grupo_1176928" data-name="Grupo 1176928" transform="translate(0)">
            <g id="Grupo_1172322" data-name="Grupo 1172322">
              <g id="Grupo_1164700" data-name="Grupo 1164700">
                <g id="Grupo_1160931" data-name="Grupo 1160931">
                  <g id="Grupo_1160749" data-name="Grupo 1160749">
                    <g id="Grupo_1158891" data-name="Grupo 1158891">
                      <g id="Grupo_1157406" data-name="Grupo 1157406">
                        <g id="Grupo_1155793" data-name="Grupo 1155793">
                          <g id="Grupo_1154704" data-name="Grupo 1154704">
                            <g id="Grupo_1150790" data-name="Grupo 1150790">
                              <g id="Grupo_1154214" data-name="Grupo 1154214" transform="translate(0)">
                                <g id="Grupo_1152583" data-name="Grupo 1152583">
                                  <g id="Grupo_1146973" data-name="Grupo 1146973">
                                    <g id="Grupo_1146954" data-name="Grupo 1146954">
                                      <g transform="matrix(1, 0, 0, 1, -9, -6)" filter="url(#Trazado_982547)">
                                        <g id="Trazado_982547-2" data-name="Trazado 982547" transform="translate(9 6)" fill="#d9faea">
                                          <path d="M 47.50000762939453 93.49986267089844 C 41.28937911987305 93.49986267089844 35.26534271240234 92.28383636474609 29.59519386291504 89.88558197021484 C 24.11772727966309 87.56880950927734 19.19814109802246 84.25183868408203 14.97310066223145 80.02679443359375 C 10.74804782867432 75.8017578125 7.431074142456055 70.88218688964844 5.114300727844238 65.40471649169922 C 2.716034412384033 59.73458480834961 1.500007629394531 53.71054458618164 1.500007629394531 47.49993133544922 C 1.500007629394531 41.2893180847168 2.716034412384033 35.26527786254883 5.114300727844238 29.59514427185059 C 7.431074142456055 24.11767768859863 10.74804782867432 19.19810485839844 14.97310066223145 14.97306442260742 C 19.19814109802246 10.74802494049072 24.11772727966309 7.431051254272461 29.59519386291504 5.114277839660645 C 35.26534271240234 2.71602463722229 41.28937911987305 1.499997973442078 47.50000762939453 1.499997973442078 C 53.71063613891602 1.499997973442078 59.73467254638672 2.71602463722229 65.40482330322266 5.114277839660645 C 70.88228607177734 7.431051254272461 75.80187225341797 10.74802494049072 80.02691650390625 14.97306442260742 C 84.25196838378906 19.19810485839844 87.56893920898438 24.11767768859863 89.88571166992188 29.59514427185059 C 92.28398132324219 35.26527786254883 93.50000762939453 41.2893180847168 93.50000762939453 47.49993133544922 C 93.50000762939453 53.71054458618164 92.28398132324219 59.73458480834961 89.88571166992188 65.40471649169922 C 87.56893920898438 70.88218688964844 84.25196838378906 75.8017578125 80.02691650390625 80.02679443359375 C 75.80187225341797 84.25183868408203 70.88228607177734 87.56880950927734 65.40482330322266 89.88558197021484 C 59.73467254638672 92.28383636474609 53.71063613891602 93.49986267089844 47.50000762939453 93.49986267089844 Z" stroke="none"/>
                                          <path d="M 47.50000762939453 2.999992370605469 C 41.4912223815918 2.999992370605469 35.66377639770508 4.1761474609375 30.17951202392578 6.495796203613281 C 24.88085174560547 8.736930847167969 20.12152862548828 11.94596099853516 16.03376007080078 16.03372955322266 C 11.94597625732422 20.12148284912109 8.736961364746094 24.88080596923828 6.495803833007812 30.17946624755859 C 4.176162719726562 35.66371536254883 3.000007629394531 41.49116134643555 3.000007629394531 47.49993133544922 C 3.000007629394531 53.50870132446289 4.176162719726562 59.33614730834961 6.495803833007812 64.82038879394531 C 8.736961364746094 70.11905670166016 11.94597625732422 74.87836456298828 16.03376007080078 78.96613311767578 C 20.12152862548828 83.05390167236328 24.88085174560547 86.26291656494141 30.17951202392578 88.50406646728516 C 35.66377639770508 90.82369995117188 41.4912223815918 91.99985504150391 47.50000762939453 91.99985504150391 C 53.50879287719727 91.99985504150391 59.33623886108398 90.82369995117188 64.82049560546875 88.50406646728516 C 70.11916351318359 86.26291656494141 74.87848663330078 83.05390167236328 78.96625518798828 78.96613311767578 C 83.05403900146484 74.87836456298828 86.26305389404297 70.11905670166016 88.50421142578125 64.82038879394531 C 90.8238525390625 59.33614730834961 92.00000762939453 53.50870132446289 92.00000762939453 47.49993133544922 C 92.00000762939453 41.49116134643555 90.8238525390625 35.66371536254883 88.50421142578125 30.17946624755859 C 86.26305389404297 24.88080596923828 83.05403900146484 20.12148284912109 78.96625518798828 16.03372955322266 C 74.87848663330078 11.94596099853516 70.11916351318359 8.736930847167969 64.82049560546875 6.495796203613281 C 59.33623886108398 4.1761474609375 53.50879287719727 2.999992370605469 47.50000762939453 2.999992370605469 M 47.50000762939453 -7.62939453125e-06 C 73.73352813720703 -7.62939453125e-06 95.00000762939453 21.26644134521484 95.00000762939453 47.49993133544922 C 95.00000762939453 73.73342132568359 73.73352813720703 94.99985504150391 47.50000762939453 94.99985504150391 C 21.26648712158203 94.99985504150391 7.62939453125e-06 73.73342132568359 7.62939453125e-06 47.49993133544922 C 7.62939453125e-06 21.26644134521484 21.26648712158203 -7.62939453125e-06 47.50000762939453 -7.62939453125e-06 Z" stroke="none" fill="#277e53"/>
                                        </g>
                                      </g>
                                    </g>
                                  </g>
                                </g>
                              </g>
                            </g>
                          </g>
                        </g>
                      </g>
                    </g>
                  </g>
                </g>
              </g>
            </g>
          </g>
        </g>
      </g>
    </g>
    <g id="habilidades-duras" transform="translate(4856.854 1147.527)">
      <g id="Grupo_1223764" data-name="Grupo 1223764" transform="translate(36.073 1.385)">
        <g id="Grupo_1223744" data-name="Grupo 1223744" transform="translate(32.915 26.523)">
          <path id="Trazado_1176125" data-name="Trazado 1176125" d="M299.312,208.709a6.217,6.217,0,0,1,.916.379l1.232-.78a7.38,7.38,0,0,1,2.148,2.148l-.78,1.236a6.088,6.088,0,0,1,.383.916l1.423.324a7.358,7.358,0,0,1,0,3.034l-1.423.324a6.237,6.237,0,0,1-.383.916l.78,1.232a7.335,7.335,0,0,1-2.148,2.148l-1.232-.776a6.658,6.658,0,0,1-.916.379l-.324,1.423a7.376,7.376,0,0,1-3.038,0l-.32-1.423a5.922,5.922,0,0,1-.916-.383l-1.236.78a7.335,7.335,0,0,1-2.148-2.148l.78-1.232a5.857,5.857,0,0,1-.379-.916l-1.423-.324a7.122,7.122,0,0,1-.158-1.519,7.358,7.358,0,0,1,.158-1.515l1.423-.324a5.715,5.715,0,0,1,.379-.916l-.78-1.236a7.38,7.38,0,0,1,2.148-2.148l1.236.78a5.908,5.908,0,0,1,.916-.379l.32-1.423a7.376,7.376,0,0,1,3.038,0Z" transform="translate(-290.15 -207.128)" fill="#ff656f" fill-rule="evenodd"/>
        </g>
        <g id="Grupo_1223745" data-name="Grupo 1223745" transform="translate(32.915 26.523)">
          <path id="Trazado_1176126" data-name="Trazado 1176126" d="M299.165,220.838l-.177.776a7.376,7.376,0,0,1-3.038,0l-.32-1.423a5.921,5.921,0,0,1-.916-.383l-1.236.78a7.335,7.335,0,0,1-2.148-2.148l.78-1.232a5.857,5.857,0,0,1-.379-.916l-1.423-.324a7.358,7.358,0,0,1,0-3.034l1.423-.324a5.714,5.714,0,0,1,.379-.916l-.78-1.236a7.38,7.38,0,0,1,2.148-2.148l1.236.78a5.908,5.908,0,0,1,.916-.379l.32-1.423a7.376,7.376,0,0,1,3.038,0l.177.776a6.735,6.735,0,0,0,0,12.774Z" transform="translate(-290.15 -207.13)" fill="#fc4654" fill-rule="evenodd"/>
        </g>
        <g id="Grupo_1223746" data-name="Grupo 1223746" transform="translate(37.108 30.716)">
          <path id="Trazado_1176127" data-name="Trazado 1176127" d="M324.886,244.995a3.128,3.128,0,1,0-3.126-3.13A3.132,3.132,0,0,0,324.886,244.995Z" transform="translate(-321.76 -238.738)" fill="#e2f0fa" fill-rule="evenodd"/>
        </g>
        <g id="Grupo_1223747" data-name="Grupo 1223747" transform="translate(37.108 30.716)">
          <path id="Trazado_1176128" data-name="Trazado 1176128" d="M324.886,238.738a3.037,3.037,0,0,1,.452.033,3.128,3.128,0,0,0,0,6.19,3.053,3.053,0,0,1-.452.033,3.128,3.128,0,0,1,0-6.257Z" transform="translate(-321.76 -238.738)" fill="#d0e4f2" fill-rule="evenodd"/>
        </g>
        <g id="Grupo_1223748" data-name="Grupo 1223748" transform="translate(33.503 0)">
          <path id="Trazado_1176129" data-name="Trazado 1176129" d="M309.142,9.684a9.706,9.706,0,0,1,1.457.6l1.96-1.236a11.657,11.657,0,0,1,3.413,3.413l-1.24,1.96a9.408,9.408,0,0,1,.6,1.457l2.266.511a11.76,11.76,0,0,1,0,4.826l-2.266.511a9.72,9.72,0,0,1-.6,1.457l1.24,1.96a11.746,11.746,0,0,1-3.413,3.413l-1.96-1.24a9.715,9.715,0,0,1-1.457.6l-.511,2.262a11.6,11.6,0,0,1-4.826,0l-.511-2.262a9.393,9.393,0,0,1-1.457-.6l-1.96,1.24a11.657,11.657,0,0,1-3.413-3.413l1.236-1.96a9.715,9.715,0,0,1-.6-1.457l-2.262-.511a11.76,11.76,0,0,1,0-4.826l2.262-.511a9.4,9.4,0,0,1,.6-1.457l-1.236-1.964a11.689,11.689,0,0,1,3.413-3.41l1.96,1.236a9.406,9.406,0,0,1,1.457-.6l.511-2.262a11.761,11.761,0,0,1,4.826,0Z" transform="translate(-294.584 -7.172)" fill="#3bbdf3" fill-rule="evenodd"/>
        </g>
        <g id="Grupo_1223749" data-name="Grupo 1223749" transform="translate(33.503)">
          <path id="Trazado_1176130" data-name="Trazado 1176130" d="M308.907,28.957l-.276,1.229a11.6,11.6,0,0,1-4.826,0l-.511-2.262a9.393,9.393,0,0,1-1.457-.6l-1.96,1.24a11.657,11.657,0,0,1-3.413-3.413l1.236-1.96a9.716,9.716,0,0,1-.6-1.457l-2.262-.511a11.76,11.76,0,0,1,0-4.826l2.262-.511a9.4,9.4,0,0,1,.6-1.457l-1.236-1.964a11.689,11.689,0,0,1,3.413-3.41l1.96,1.236a9.406,9.406,0,0,1,1.457-.6l.511-2.262a11.761,11.761,0,0,1,4.826,0l.276,1.232a10.708,10.708,0,0,0,0,20.3Z" transform="translate(-294.584 -7.172)" fill="#2eb0e8" fill-rule="evenodd"/>
        </g>
        <g id="Grupo_1223750" data-name="Grupo 1223750" transform="translate(39.734 6.231)">
          <path id="Trazado_1176131" data-name="Trazado 1176131" d="M346.962,64.952a5.4,5.4,0,1,0-5.4-5.4A5.414,5.414,0,0,0,346.962,64.952Z" transform="translate(-341.559 -54.146)" fill="#e2f0fa" fill-rule="evenodd"/>
        </g>
        <g id="Grupo_1223751" data-name="Grupo 1223751" transform="translate(39.734 6.231)">
          <path id="Trazado_1176132" data-name="Trazado 1176132" d="M346.962,54.145a5.447,5.447,0,0,1,.78.055,5.4,5.4,0,0,0,0,10.692,4.957,4.957,0,0,1-.78.059,5.4,5.4,0,1,1,0-10.806Z" transform="translate(-341.559 -54.145)" fill="#d0e4f2" fill-rule="evenodd"/>
        </g>
        <g id="Grupo_1223752" data-name="Grupo 1223752" transform="translate(4.557 7.79)">
          <path id="Trazado_1176133" data-name="Trazado 1176133" d="M102.651,82.838H76.356V78.38c0-13.407,21.962-15.2,21.962-9.225v1.464h1.147a3.193,3.193,0,0,1,3.185,3.182Z" transform="translate(-76.356 -65.9)" fill="#4d5080" fill-rule="evenodd"/>
        </g>
        <g id="Grupo_1223753" data-name="Grupo 1223753" transform="translate(4.557 7.791)">
          <path id="Trazado_1176134" data-name="Trazado 1176134" d="M78.511,82.844H76.356V78.386c0-10.755,14.131-14.036,19.722-11.829-6.948-.346-17.566,3.674-17.566,13.311Z" transform="translate(-76.356 -65.907)" fill="#434675" fill-rule="evenodd"/>
        </g>
        <g id="Grupo_1223754" data-name="Grupo 1223754" transform="translate(0 40.407)">
          <path id="Trazado_1176135" data-name="Trazado 1176135" d="M77.523,327.15H42v-9.714a5.648,5.648,0,0,1,5.631-5.631H71.892a5.648,5.648,0,0,1,5.631,5.631v9.714Z" transform="translate(-42 -311.805)" fill="#7b7be8" fill-rule="evenodd"/>
        </g>
        <g id="Grupo_1223755" data-name="Grupo 1223755" transform="translate(12.667 32.143)">
          <path id="Trazado_1176136" data-name="Trazado 1176136" d="M147.687,249.5H137.5v8.265a5.094,5.094,0,1,0,10.188,0Z" transform="translate(-137.499 -249.498)" fill="#ffbfa8" fill-rule="evenodd"/>
        </g>
        <g id="Grupo_1223756" data-name="Grupo 1223756" transform="translate(12.667 32.143)">
          <path id="Trazado_1176137" data-name="Trazado 1176137" d="M147.687,249.5H137.5v8.2a13.245,13.245,0,0,0,10.188,0Z" transform="translate(-137.499 -249.498)" fill="#fcac8f" fill-rule="evenodd"/>
        </g>
        <g id="Grupo_1223757" data-name="Grupo 1223757" transform="translate(3.531 16.409)">
          <path id="Trazado_1176138" data-name="Trazado 1176138" d="M71.072,142.922c.971,6.142,5.874,10.817,11.777,10.817s10.806-4.675,11.777-10.817a2.952,2.952,0,0,0,2.453-2.99,2.922,2.922,0,0,0-2.817-3.016,2.663,2.663,0,0,0-1.629.559l-1.07-4.333a2.968,2.968,0,0,0-3.325-2.233l-5.848.857-5.274.151a4.178,4.178,0,0,0-4.053,4.171v1.387a2.663,2.663,0,0,0-1.629-.559,2.921,2.921,0,0,0-2.814,3.016,2.952,2.952,0,0,0,2.453,2.99Z" transform="translate(-68.618 -130.876)" fill="#ffbfa8" fill-rule="evenodd"/>
        </g>
        <g id="Grupo_1223758" data-name="Grupo 1223758" transform="translate(0 55.752)">
          <path id="Trazado_1176139" data-name="Trazado 1176139" d="M42,427.491H55.116V435.6H46.057A4.067,4.067,0,0,1,42,431.548Z" transform="translate(-42 -427.491)" fill="#ffbfa8" fill-rule="evenodd"/>
        </g>
        <g id="Grupo_1223759" data-name="Grupo 1223759" transform="translate(22.403 55.752)">
          <path id="Trazado_1176140" data-name="Trazado 1176140" d="M224.019,427.491H210.9V435.6h9.063a4.067,4.067,0,0,0,4.057-4.057Z" transform="translate(-210.899 -427.491)" fill="#ffbfa8" fill-rule="evenodd"/>
        </g>
        <g id="Grupo_1223760" data-name="Grupo 1223760" transform="translate(4.877 52.556)">
          <path id="Trazado_1176141" data-name="Trazado 1176141" d="M78.769,403.4h25.765l-1.754,13.454H80.527Z" transform="translate(-78.769 -403.395)" fill="#4d5080" fill-rule="evenodd"/>
        </g>
        <g id="Grupo_1223761" data-name="Grupo 1223761" transform="translate(4.877 52.556)">
          <path id="Trazado_1176142" data-name="Trazado 1176142" d="M78.769,403.4h1.9l1.758,13.454h-1.9Z" transform="translate(-78.769 -403.395)" fill="#434675" fill-rule="evenodd"/>
        </g>
        <g id="Grupo_1223762" data-name="Grupo 1223762" transform="translate(0 40.407)">
          <path id="Trazado_1176143" data-name="Trazado 1176143" d="M45.193,327.15H42v-9.714a5.648,5.648,0,0,1,5.631-5.631h.993a5.746,5.746,0,0,0-3.432,5.267Z" transform="translate(-42 -311.805)" fill="#7070e0" fill-rule="evenodd"/>
        </g>
        <g id="Grupo_1223763" data-name="Grupo 1223763" transform="translate(0 55.752)">
          <path id="Trazado_1176144" data-name="Trazado 1176144" d="M42,427.491h3.193v8.022A4.075,4.075,0,0,1,42,431.548Z" transform="translate(-42 -427.491)" fill="#fcac8f" fill-rule="evenodd"/>
        </g>
      </g>
      <path id="Trazado_1176145" data-name="Trazado 1176145" d="M65.958,40.724h-5.97v-.718A13.875,13.875,0,0,0,66.506,30.7a4.037,4.037,0,0,0,2.577-3.814,4.132,4.132,0,0,0-1.135-2.864V17.153a4.206,4.206,0,0,0-4.2-4.2h-.112v-.423c0-2.6-2.866-4.275-7.3-4.275A20.42,20.42,0,0,0,45.548,11.4a11.982,11.982,0,0,0-5.841,10.312v2.428a4.136,4.136,0,0,0-1.025,2.742A4.037,4.037,0,0,0,41.259,30.7a13.874,13.874,0,0,0,6.518,9.311v.718h-5.97a6.648,6.648,0,0,0-6.64,6.64V61.073a5.079,5.079,0,0,0,5.073,5.073h1.38l.161,1.234a1.034,1.034,0,0,0,1.026.9H59.276a1.034,1.034,0,0,0,0-2.069H43.715L42.238,54.887H65.527L64.051,66.212H61.89a1.034,1.034,0,1,0,0,2.069h3.068a1.034,1.034,0,0,0,1.026-.9l.161-1.234h1.38A5.079,5.079,0,0,0,72.6,61.073V47.364A6.648,6.648,0,0,0,65.958,40.724ZM41.776,21.712a10.079,10.079,0,0,1,4.907-8.582,18.27,18.27,0,0,1,9.651-2.808c3.081,0,5.233.907,5.233,2.206v1.457A1.034,1.034,0,0,0,62.6,15.02h1.146a2.135,2.135,0,0,1,2.133,2.133V22.9a3.658,3.658,0,0,0-1.556.062l-.762-3.087a3.981,3.981,0,0,0-4.464-3l-5.762.844-5.191.148a5.162,5.162,0,0,0-5.033,5.023,3.7,3.7,0,0,0-.59-.047,3.658,3.658,0,0,0-.745.077Zm1.4,7.985a1.034,1.034,0,0,0-.883-.864,1.905,1.905,0,0,1-1.547-1.952,1.879,1.879,0,0,1,1.77-1.968,1.619,1.619,0,0,1,.992.342,1.034,1.034,0,0,0,1.665-.82v-1.38A3.1,3.1,0,0,1,48.2,19.937l5.251-.15a1.019,1.019,0,0,0,.12-.011l5.822-.853a1.921,1.921,0,0,1,2.155,1.447l1.065,4.313a1.034,1.034,0,0,0,1.631.575,1.618,1.618,0,0,1,1-.345,1.878,1.878,0,0,1,1.767,1.968,1.905,1.905,0,0,1-1.547,1.952,1.034,1.034,0,0,0-.883.864c-.906,5.732-5.407,9.892-10.7,9.892s-9.8-4.16-10.7-9.892ZM57.92,40.962v.8a4.037,4.037,0,1,1-8.074,0v-.8a12.062,12.062,0,0,0,8.074,0ZM40.24,64.077a3.008,3.008,0,0,1-3-3v-3h3.331l.784,6.009Zm30.29-3a3.008,3.008,0,0,1-3,3h-1.11l.784-6.009H70.53Zm0-5.073H67.468l.263-2.014a1.034,1.034,0,0,0-1.026-1.168H41.06a1.034,1.034,0,0,0-1.026,1.168L40.3,56H37.236V47.364a4.576,4.576,0,0,1,4.571-4.571h6.06a6.1,6.1,0,0,0,12.032,0h6.06a4.576,4.576,0,0,1,4.571,4.571ZM53.883,36.3a4.682,4.682,0,0,1-3.57-1.874,1.034,1.034,0,1,1,1.6-1.316,2.3,2.3,0,0,0,3.948,0,1.034,1.034,0,1,1,1.6,1.316,4.681,4.681,0,0,1-3.57,1.874Zm-3.35-7.224A1.034,1.034,0,0,1,49.5,28.039a.771.771,0,1,0-1.542,0,1.034,1.034,0,0,1-2.069,0,2.839,2.839,0,0,1,5.679,0A1.034,1.034,0,0,1,50.532,29.073ZM56.2,28.039a2.839,2.839,0,0,1,5.679,0,1.034,1.034,0,0,1-2.069,0,.771.771,0,1,0-1.542,0,1.034,1.034,0,0,1-2.069,0ZM55.111,59.992l.01.01a1.755,1.755,0,0,1,0,2.457l-.01.01a1.756,1.756,0,0,1-2.456,0l-.01-.01a1.755,1.755,0,0,1,0-2.457l.01-.01A1.756,1.756,0,0,1,55.111,59.992ZM93.48,10.5a1.034,1.034,0,0,0-.785-.8L91,9.321q-.1-.254-.208-.5l.927-1.47a1.034,1.034,0,0,0-.008-1.116,12.758,12.758,0,0,0-3.7-3.7A1.035,1.035,0,0,0,86.9,2.529l-1.469.926q-.246-.109-.5-.206l-.383-1.695A1.034,1.034,0,0,0,83.752.77a12.8,12.8,0,0,0-5.233,0,1.034,1.034,0,0,0-.794.784l-.383,1.695q-.252.1-.5.206l-1.469-.926a1.035,1.035,0,0,0-1.116.008,12.759,12.759,0,0,0-3.7,3.7A1.034,1.034,0,0,0,70.55,7.35l.927,1.47q-.111.247-.208.5L69.575,9.7a1.034,1.034,0,0,0-.785.8,12.745,12.745,0,0,0,0,5.225,1.034,1.034,0,0,0,.785.8l1.7.383q.1.252.208.5l-.927,1.467a1.034,1.034,0,0,0,.008,1.117,12.764,12.764,0,0,0,3.7,3.7,1.034,1.034,0,0,0,1.117.008l1.468-.928q.245.109.5.206l.383,1.695a1.035,1.035,0,0,0,.794.784,12.576,12.576,0,0,0,5.233,0,1.035,1.035,0,0,0,.794-.784l.383-1.695q.252-.1.5-.206l1.468.928a1.034,1.034,0,0,0,1.119-.009,12.639,12.639,0,0,0,3.7-3.7,1.034,1.034,0,0,0,.008-1.117l-.927-1.467q.11-.246.208-.5l1.7-.383a1.034,1.034,0,0,0,.785-.8,12.742,12.742,0,0,0,0-5.225Zm-1.911,4.158-1.581.357a1.034,1.034,0,0,0-.757.693A8.309,8.309,0,0,1,88.694,17a1.034,1.034,0,0,0,.044,1.03L89.6,19.4a10.555,10.555,0,0,1-2.185,2.184l-1.371-.867a1.035,1.035,0,0,0-1.027-.045,8.478,8.478,0,0,1-1.292.535,1.034,1.034,0,0,0-.693.757l-.358,1.584a10.521,10.521,0,0,1-3.088,0l-.358-1.584a1.034,1.034,0,0,0-.693-.757,8.487,8.487,0,0,1-1.292-.535,1.034,1.034,0,0,0-1.027.045l-1.371.867A10.729,10.729,0,0,1,72.666,19.4l.867-1.371A1.035,1.035,0,0,0,73.577,17a8.329,8.329,0,0,1-.537-1.289,1.034,1.034,0,0,0-.757-.693L70.7,14.659a10.616,10.616,0,0,1,0-3.089l1.582-.358a1.035,1.035,0,0,0,.757-.695,8.036,8.036,0,0,1,.535-1.284A1.034,1.034,0,0,0,73.534,8.2l-.868-1.375a10.716,10.716,0,0,1,2.185-2.182l1.372.865a1.035,1.035,0,0,0,1.026.044,8.481,8.481,0,0,1,1.292-.535,1.034,1.034,0,0,0,.693-.757l.358-1.583a10.785,10.785,0,0,1,3.088,0l.358,1.583a1.035,1.035,0,0,0,.693.757,8.484,8.484,0,0,1,1.292.535,1.035,1.035,0,0,0,1.026-.044l1.372-.865A10.716,10.716,0,0,1,89.6,6.827L88.737,8.2A1.034,1.034,0,0,0,88.7,9.234a8.03,8.03,0,0,1,.535,1.284,1.035,1.035,0,0,0,.757.695l1.582.358a10.61,10.61,0,0,1,0,3.089ZM81.135,6.7a6.415,6.415,0,1,0,6.413,6.417A6.422,6.422,0,0,0,81.135,6.7Zm0,10.761a4.346,4.346,0,1,1,4.344-4.344,4.349,4.349,0,0,1-4.344,4.344Zm2.481,15.247-.826-.188.451-.718a1.035,1.035,0,0,0-.008-1.113,8.386,8.386,0,0,0-2.441-2.442,1.034,1.034,0,0,0-1.118-.008l-.711.45-.187-.823a1.035,1.035,0,0,0-.8-.783,8.384,8.384,0,0,0-3.447,0,1.035,1.035,0,0,0-.8.783l-.187.824-.716-.452a1.034,1.034,0,0,0-1.117.008,8.327,8.327,0,0,0-2.44,2.44,1.035,1.035,0,0,0-.008,1.117l.452.716-.824.187a1.034,1.034,0,0,0-.783.8,8.356,8.356,0,0,0,0,3.447,1.034,1.034,0,0,0,.783.8l.823.187-.45.712a1.034,1.034,0,0,0,.008,1.118A8.39,8.39,0,0,0,71.719,42.2a1.034,1.034,0,0,0,1.113.008l.718-.451.188.826a1.035,1.035,0,0,0,.8.783,8.36,8.36,0,0,0,3.447,0,1.035,1.035,0,0,0,.8-.783l.188-.825.713.449a1.034,1.034,0,0,0,1.114-.007,8.336,8.336,0,0,0,2.444-2.444,1.034,1.034,0,0,0,.007-1.114l-.449-.713.825-.188a1.034,1.034,0,0,0,.783-.8,8.359,8.359,0,0,0,0-3.447,1.033,1.033,0,0,0-.782-.8Zm-1.141,3.176-.735.167a1.034,1.034,0,0,0-.754.689,5.194,5.194,0,0,1-.314.76,1.034,1.034,0,0,0,.045,1.023l.4.635a6.279,6.279,0,0,1-.931.93l-.635-.4a1.035,1.035,0,0,0-1.023-.045,5.188,5.188,0,0,1-.76.314,1.035,1.035,0,0,0-.688.754l-.167.735a6.312,6.312,0,0,1-1.314,0l-.167-.735a1.034,1.034,0,0,0-.688-.754,5.4,5.4,0,0,1-.765-.316,1.034,1.034,0,0,0-1.017.047l-.639.4a6.341,6.341,0,0,1-.93-.931l.4-.634A1.034,1.034,0,0,0,71.84,37.5a5.2,5.2,0,0,1-.314-.76,1.035,1.035,0,0,0-.754-.689l-.735-.167A6.323,6.323,0,0,1,70,35.223a6.259,6.259,0,0,1,.034-.655l.735-.167a1.034,1.034,0,0,0,.754-.689,5.024,5.024,0,0,1,.312-.755,1.034,1.034,0,0,0-.043-1.028l-.4-.638a6.233,6.233,0,0,1,.93-.93l.638.4a1.034,1.034,0,0,0,1.028.043,5.026,5.026,0,0,1,.756-.312,1.034,1.034,0,0,0,.688-.754l.167-.735a6.294,6.294,0,0,1,1.314,0l.167.735a1.035,1.035,0,0,0,.688.754,5.194,5.194,0,0,1,.76.314,1.035,1.035,0,0,0,1.025-.047l.634-.4a6.329,6.329,0,0,1,.931.93l-.4.639a1.034,1.034,0,0,0-.042,1.027,5.042,5.042,0,0,1,.312.755,1.034,1.034,0,0,0,.754.689l.735.167a6.26,6.26,0,0,1,.034.655,6.36,6.36,0,0,1-.035.658Zm-6.221-4.619a3.962,3.962,0,1,0,3.964,3.96A3.964,3.964,0,0,0,76.254,31.263Zm0,5.855a1.893,1.893,0,1,1,1.895-1.895A1.9,1.9,0,0,1,76.254,37.117Z" transform="translate(0 0)"/>
    </g>
  </g>
</svg>
