<svg xmlns="http://www.w3.org/2000/svg" xmlns:xlink="http://www.w3.org/1999/xlink" width="113" height="113" viewBox="0 0 113 113">
  <defs>
    <filter id="Trazado_982547" x="0" y="0" width="113" height="113" filterUnits="userSpaceOnUse">
      <feOffset dy="3" input="SourceAlpha"/>
      <feGaussianBlur stdDeviation="3" result="blur"/>
      <feFlood flood-opacity="0.161"/>
      <feComposite operator="in" in2="blur"/>
      <feComposite in="SourceGraphic"/>
    </filter>
  </defs>
  <g id="Grupo_1223773" data-name="Grupo 1223773" transform="translate(-4543 -1507.216)">
    <g id="Grupo_1223315" data-name="Grupo 1223315" transform="translate(4552 1513.216)">
      <g id="Grupo_1177675" data-name="Grupo 1177675" transform="translate(0 0)">
        <g id="Grupo_1176928" data-name="Grupo 1176928" transform="translate(0)">
          <g id="Grupo_1172322" data-name="Grupo 1172322">
            <g id="Grupo_1164700" data-name="Grupo 1164700">
              <g id="Grupo_1160931" data-name="Grupo 1160931">
                <g id="Grupo_1160749" data-name="Grupo 1160749">
                  <g id="Grupo_1158891" data-name="Grupo 1158891">
                    <g id="Grupo_1157406" data-name="Grupo 1157406">
                      <g id="Grupo_1155793" data-name="Grupo 1155793">
                        <g id="Grupo_1154704" data-name="Grupo 1154704">
                          <g id="Grupo_1150790" data-name="Grupo 1150790">
                            <g id="Grupo_1154214" data-name="Grupo 1154214" transform="translate(0)">
                              <g id="Grupo_1152583" data-name="Grupo 1152583">
                                <g id="Grupo_1146973" data-name="Grupo 1146973">
                                  <g id="Grupo_1146954" data-name="Grupo 1146954">
                                    <g transform="matrix(1, 0, 0, 1, -9, -6)" filter="url(#Trazado_982547)">
                                      <g id="Trazado_982547-2" data-name="Trazado 982547" transform="translate(9 6)" fill="#d9faea">
                                        <path d="M 47.50000762939453 93.49986267089844 C 41.28937911987305 93.49986267089844 35.26534271240234 92.28383636474609 29.59519386291504 89.88558197021484 C 24.11772727966309 87.56880950927734 19.19814109802246 84.25183868408203 14.97310066223145 80.02679443359375 C 10.74804782867432 75.8017578125 7.431074142456055 70.88218688964844 5.114300727844238 65.40471649169922 C 2.716034412384033 59.73458480834961 1.500007629394531 53.71054458618164 1.500007629394531 47.49993133544922 C 1.500007629394531 41.2893180847168 2.716034412384033 35.26527786254883 5.114300727844238 29.59514427185059 C 7.431074142456055 24.11767768859863 10.74804782867432 19.19810485839844 14.97310066223145 14.97306442260742 C 19.19814109802246 10.74802494049072 24.11772727966309 7.431051254272461 29.59519386291504 5.114277839660645 C 35.26534271240234 2.71602463722229 41.28937911987305 1.499997973442078 47.50000762939453 1.499997973442078 C 53.71063613891602 1.499997973442078 59.73467254638672 2.71602463722229 65.40482330322266 5.114277839660645 C 70.88228607177734 7.431051254272461 75.80187225341797 10.74802494049072 80.02691650390625 14.97306442260742 C 84.25196838378906 19.19810485839844 87.56893920898438 24.11767768859863 89.88571166992188 29.59514427185059 C 92.28398132324219 35.26527786254883 93.50000762939453 41.2893180847168 93.50000762939453 47.49993133544922 C 93.50000762939453 53.71054458618164 92.28398132324219 59.73458480834961 89.88571166992188 65.40471649169922 C 87.56893920898438 70.88218688964844 84.25196838378906 75.8017578125 80.02691650390625 80.02679443359375 C 75.80187225341797 84.25183868408203 70.88228607177734 87.56880950927734 65.40482330322266 89.88558197021484 C 59.73467254638672 92.28383636474609 53.71063613891602 93.49986267089844 47.50000762939453 93.49986267089844 Z" stroke="none"/>
                                        <path d="M 47.50000762939453 2.999992370605469 C 41.4912223815918 2.999992370605469 35.66377639770508 4.1761474609375 30.17951202392578 6.495796203613281 C 24.88085174560547 8.736930847167969 20.12152862548828 11.94596099853516 16.03376007080078 16.03372955322266 C 11.94597625732422 20.12148284912109 8.736961364746094 24.88080596923828 6.495803833007812 30.17946624755859 C 4.176162719726562 35.66371536254883 3.000007629394531 41.49116134643555 3.000007629394531 47.49993133544922 C 3.000007629394531 53.50870132446289 4.176162719726562 59.33614730834961 6.495803833007812 64.82038879394531 C 8.736961364746094 70.11905670166016 11.94597625732422 74.87836456298828 16.03376007080078 78.96613311767578 C 20.12152862548828 83.05390167236328 24.88085174560547 86.26291656494141 30.17951202392578 88.50406646728516 C 35.66377639770508 90.82369995117188 41.4912223815918 91.99985504150391 47.50000762939453 91.99985504150391 C 53.50879287719727 91.99985504150391 59.33623886108398 90.82369995117188 64.82049560546875 88.50406646728516 C 70.11916351318359 86.26291656494141 74.87848663330078 83.05390167236328 78.96625518798828 78.96613311767578 C 83.05403900146484 74.87836456298828 86.26305389404297 70.11905670166016 88.50421142578125 64.82038879394531 C 90.8238525390625 59.33614730834961 92.00000762939453 53.50870132446289 92.00000762939453 47.49993133544922 C 92.00000762939453 41.49116134643555 90.8238525390625 35.66371536254883 88.50421142578125 30.17946624755859 C 86.26305389404297 24.88080596923828 83.05403900146484 20.12148284912109 78.96625518798828 16.03372955322266 C 74.87848663330078 11.94596099853516 70.11916351318359 8.736930847167969 64.82049560546875 6.495796203613281 C 59.33623886108398 4.1761474609375 53.50879287719727 2.999992370605469 47.50000762939453 2.999992370605469 M 47.50000762939453 -7.62939453125e-06 C 73.73352813720703 -7.62939453125e-06 95.00000762939453 21.26644134521484 95.00000762939453 47.49993133544922 C 95.00000762939453 73.73342132568359 73.73352813720703 94.99985504150391 47.50000762939453 94.99985504150391 C 21.26648712158203 94.99985504150391 7.62939453125e-06 73.73342132568359 7.62939453125e-06 47.49993133544922 C 7.62939453125e-06 21.26644134521484 21.26648712158203 -7.62939453125e-06 47.50000762939453 -7.62939453125e-06 Z" stroke="none" fill="#277e53"/>
                                      </g>
                                    </g>
                                  </g>
                                </g>
                              </g>
                            </g>
                          </g>
                        </g>
                      </g>
                    </g>
                  </g>
                </g>
              </g>
            </g>
          </g>
        </g>
      </g>
    </g>
    <g id="neuroimagen" transform="translate(4568.987 1529.386)">
      <g id="Grupo_1223771" data-name="Grupo 1223771" transform="translate(0.907 1.267)">
        <g id="Grupo_1223766" data-name="Grupo 1223766" transform="translate(9.894 9.861)">
          <circle id="Elipse_12070" data-name="Elipse 12070" cx="20.203" cy="20.203" r="20.203" fill="#eaf2ff"/>
        </g>
        <g id="Grupo_1223769" data-name="Grupo 1223769" transform="translate(9.894 9.861)">
          <g id="Grupo_1223767" data-name="Grupo 1223767">
            <circle id="Elipse_12071" data-name="Elipse 12071" cx="20.203" cy="20.203" r="20.203" fill="#eaf2ff"/>
          </g>
          <path id="Trazado_1176146" data-name="Trazado 1176146" d="M241.683,95.171a20.183,20.183,0,0,0-18.22-5.532,20.205,20.205,0,0,1,0,39.636,20.2,20.2,0,0,0,18.22-34.1Z" transform="translate(-207.193 -89.254)" fill="#dbe8f9"/>
          <g id="Grupo_1223768" data-name="Grupo 1223768" transform="translate(6.84 4.973)">
            <path id="Trazado_1176147" data-name="Trazado 1176147" d="M158.985,132.9a2.58,2.58,0,0,0-2.439-2.6l-.119,0a2.575,2.575,0,0,0-2.519,1.789.765.765,0,0,1-.751.523h-.007a3.455,3.455,0,0,0-3.589,3.3,3.043,3.043,0,0,0,.045.521.692.692,0,0,1-.451.764,3.769,3.769,0,0,0-2.517,3.47,3.485,3.485,0,0,0,.283,1.377.653.653,0,0,1-.143.726,3.788,3.788,0,0,0-.191,5.253.659.659,0,0,1,.084.767,4.147,4.147,0,0,0-.49,1.854,3.912,3.912,0,0,0,1.456,2.976,1.825,1.825,0,0,1,.587,1.1,5.293,5.293,0,0,0,5.371,4.311c.185,0,.367-.009.547-.026a.826.826,0,0,1,.412.068,3.318,3.318,0,0,0,1.351.284,3.132,3.132,0,0,0,2.84-1.695,2.491,2.491,0,0,0,.239-1.09Z" transform="translate(-145.621 -130.302)" fill="#9bc4f9"/>
            <path id="Trazado_1176148" data-name="Trazado 1176148" d="M255.934,132.9a2.58,2.58,0,0,1,2.439-2.6l.119,0a2.575,2.575,0,0,1,2.519,1.789.765.765,0,0,0,.751.523h.007a3.455,3.455,0,0,1,3.589,3.3,3.042,3.042,0,0,1-.045.521.692.692,0,0,0,.451.764,3.769,3.769,0,0,1,2.517,3.47,3.486,3.486,0,0,1-.283,1.377.653.653,0,0,0,.143.726,3.788,3.788,0,0,1,.191,5.253.659.659,0,0,0-.084.767,4.147,4.147,0,0,1,.49,1.854,3.912,3.912,0,0,1-1.456,2.976,1.825,1.825,0,0,0-.587,1.1,5.293,5.293,0,0,1-5.371,4.311c-.185,0-.367-.009-.547-.026a.826.826,0,0,0-.412.068,3.318,3.318,0,0,1-1.351.284,3.132,3.132,0,0,1-2.84-1.695,2.491,2.491,0,0,1-.239-1.09Z" transform="translate(-242.57 -130.302)" fill="#7fb2f9"/>
          </g>
        </g>
        <g id="Grupo_1223770" data-name="Grupo 1223770">
          <circle id="Elipse_12072" data-name="Elipse 12072" cx="2.964" cy="2.964" r="2.964" fill="#7fb2f9"/>
          <circle id="Elipse_12073" data-name="Elipse 12073" cx="2.964" cy="2.964" r="2.964" transform="translate(27.134)" fill="#7fb2f9"/>
          <circle id="Elipse_12074" data-name="Elipse 12074" cx="2.964" cy="2.964" r="2.964" transform="translate(54.283)" fill="#7fb2f9"/>
          <circle id="Elipse_12075" data-name="Elipse 12075" cx="2.964" cy="2.964" r="2.964" transform="translate(0 27.1)" fill="#7fb2f9"/>
          <circle id="Elipse_12076" data-name="Elipse 12076" cx="2.964" cy="2.964" r="2.964" transform="translate(54.283 27.1)" fill="#7fb2f9"/>
          <circle id="Elipse_12077" data-name="Elipse 12077" cx="2.964" cy="2.964" r="2.964" transform="translate(0 54.196)" fill="#7fb2f9"/>
          <circle id="Elipse_12078" data-name="Elipse 12078" cx="2.964" cy="2.964" r="2.964" transform="translate(27.134 54.196)" fill="#7fb2f9"/>
          <circle id="Elipse_12079" data-name="Elipse 12079" cx="2.964" cy="2.964" r="2.964" transform="translate(54.283 54.196)" fill="#7fb2f9"/>
        </g>
      </g>
      <g id="Grupo_1223772" data-name="Grupo 1223772" transform="translate(0 0.36)">
        <path id="Trazado_1176149" data-name="Trazado 1176149" d="M187.922,246.373a.907.907,0,0,0,.609-1.129,3.5,3.5,0,0,0-.9-1.5,1.7,1.7,0,0,1,.728-.441.907.907,0,1,0-.52-1.738,3.5,3.5,0,0,0-1.815,1.27,3.5,3.5,0,0,0-1.88.04.907.907,0,0,0,.52,1.738,1.71,1.71,0,0,1,2.126,1.146A.907.907,0,0,0,187.922,246.373Z" transform="translate(-161.27 -212.314)"/>
        <path id="Trazado_1176150" data-name="Trazado 1176150" d="M285.1,245.765a1.708,1.708,0,0,1,2.126-1.146.907.907,0,0,0,.52-1.738,3.5,3.5,0,0,0-1.878-.038,3.5,3.5,0,0,0-1.816-1.272.907.907,0,1,0-.52,1.738,1.7,1.7,0,0,1,.729.442,3.5,3.5,0,0,0-.9,1.494.907.907,0,1,0,1.738.52Z" transform="translate(-248.619 -212.315)"/>
        <path id="Trazado_1176151" data-name="Trazado 1176151" d="M20.507,47.527A19.3,19.3,0,0,1,38.1,13.381a.907.907,0,0,0,.666-1.688,21.107,21.107,0,0,0-6.852-1.456V7.994a3.871,3.871,0,1,0-1.814,0v2.243A21.106,21.106,0,0,0,16.077,16.4q-.671.671-1.268,1.388H7.323a2.548,2.548,0,0,1-2.545-2.545V7.994a3.871,3.871,0,1,0-1.815,0v7.253a4.365,4.365,0,0,0,4.36,4.36h6.125A21.07,21.07,0,0,0,9.924,30.424H7.634a3.871,3.871,0,1,0,0,1.814h2.29A21.067,21.067,0,0,0,13.5,43.126H7.323a4.364,4.364,0,0,0-4.36,4.359v7.178a3.871,3.871,0,1,0,1.814,0V47.486a2.548,2.548,0,0,1,2.545-2.545h7.544q.573.678,1.21,1.318a21.251,21.251,0,0,0,3.441,2.789.907.907,0,0,0,.989-1.522Zm8.442-43.3A2.057,2.057,0,1,1,31,6.288,2.059,2.059,0,0,1,28.948,4.231ZM3.871,6.288A2.057,2.057,0,1,1,5.928,4.231,2.059,2.059,0,0,1,3.871,6.288Zm0,27.1a2.057,2.057,0,1,1,2.057-2.057,2.059,2.059,0,0,1-2.057,2.057ZM5.928,58.427A2.057,2.057,0,1,1,3.871,56.37,2.059,2.059,0,0,1,5.928,58.427Z" transform="translate(0 -0.36)"/>
        <path id="Trazado_1176152" data-name="Trazado 1176152" d="M147.62,153.33a4.2,4.2,0,0,0,1.7.354,4.138,4.138,0,0,0,3.08-1.352,4.138,4.138,0,0,0,3.08,1.352,4.2,4.2,0,0,0,1.7-.354c.2.018.408.028.608.028a6.237,6.237,0,0,0,6.238-4.911,1.1,1.1,0,0,1,.325-.731,4.634,4.634,0,0,0,1.232-5.8,4.689,4.689,0,0,0-.224-6.251,4.559,4.559,0,0,0-2.661-5.837,3.962,3.962,0,0,0,.031-.5,4.361,4.361,0,0,0-4.424-4.209,3.537,3.537,0,0,0-5.908-1.181,3.533,3.533,0,0,0-5.908,1.18,4.36,4.36,0,0,0-4.424,4.209,3.965,3.965,0,0,0,.031.5,4.559,4.559,0,0,0-2.661,5.837,4.689,4.689,0,0,0-.224,6.251,4.631,4.631,0,0,0,1.233,5.8,1.107,1.107,0,0,1,.325.73,6.237,6.237,0,0,0,6.239,4.911C147.213,153.358,147.418,153.349,147.62,153.33Zm5.688-6.169a1.166,1.166,0,1,1,2.332,0,.907.907,0,0,0,1.814,0,2.98,2.98,0,0,0-4.147-2.743V130.229a1.386,1.386,0,0,1,1.777-.322A.907.907,0,0,0,156,128.34a3.186,3.186,0,0,0-2.693-.251v-1.772a1.7,1.7,0,0,1,3.3-.561,1.674,1.674,0,0,0,1.629,1.183h0a2.456,2.456,0,0,1,1.885,4.242,2.576,2.576,0,0,1-1.59.717,3.63,3.63,0,0,0-1.983-.588.907.907,0,0,0,0,1.814,1.84,1.84,0,0,1,1.838,1.838.907.907,0,1,0,1.814,0,3.628,3.628,0,0,0-.333-1.52,4.424,4.424,0,0,0,2.251-1.887,2.732,2.732,0,0,1,1.513,3.553,1.559,1.559,0,0,0,.335,1.725,2.881,2.881,0,0,1,.15,4.014,1.558,1.558,0,0,0-.191,1.81,2.763,2.763,0,0,1-.139,2.994,5.239,5.239,0,0,0-3.024-3.177.907.907,0,0,0-.662,1.69,3.611,3.611,0,0,1,2.155,3.892,4.449,4.449,0,0,1-4.927,3.466,1.736,1.736,0,0,0-.866.143,2.4,2.4,0,0,1-.982.206,2.049,2.049,0,0,1-2.172-1.877Zm-10.762.9a3.611,3.611,0,0,1,2.155-3.894.907.907,0,1,0-.662-1.69,5.238,5.238,0,0,0-3.024,3.177,2.763,2.763,0,0,1-.139-2.994,1.558,1.558,0,0,0-.191-1.81,2.881,2.881,0,0,1,.15-4.014,1.56,1.56,0,0,0,.335-1.725,2.732,2.732,0,0,1,1.513-3.553,4.425,4.425,0,0,0,2.251,1.887,3.63,3.63,0,0,0-.333,1.52.907.907,0,0,0,1.814,0,1.84,1.84,0,0,1,1.838-1.838.907.907,0,1,0,0-1.814,3.63,3.63,0,0,0-1.983.587,2.579,2.579,0,0,1-1.591-.717,2.456,2.456,0,0,1,1.891-4.242h0a1.673,1.673,0,0,0,1.623-1.183,1.7,1.7,0,0,1,3.3.561v1.772a3.186,3.186,0,0,0-2.693.251.907.907,0,0,0,.916,1.567,1.391,1.391,0,0,1,1.777.323v14.188a2.98,2.98,0,0,0-4.147,2.743.907.907,0,1,0,1.814,0,1.166,1.166,0,0,1,2.332,0v2.832a2.049,2.049,0,0,1-2.172,1.877,2.4,2.4,0,0,1-.982-.206,2.636,2.636,0,0,0-1.328-.121A4.405,4.405,0,0,1,142.547,148.058Z" transform="translate(-121.397 -107.978)"/>
        <path id="Trazado_1176153" data-name="Trazado 1176153" d="M220.42,32.239a3.871,3.871,0,1,0,0-1.815h-2.3A20.929,20.929,0,0,0,214.6,19.607h6.119a4.364,4.364,0,0,0,4.359-4.36V8a3.87,3.87,0,1,0-1.814-.007v7.257a2.548,2.548,0,0,1-2.545,2.545H213.23q-.6-.717-1.27-1.388a21.263,21.263,0,0,0-3.227-2.649.907.907,0,0,0-1.007,1.509,19.3,19.3,0,0,1-17.581,34.1.907.907,0,1,0-.647,1.7,21.06,21.06,0,0,0,6.627,1.364v2.243a3.871,3.871,0,1,0,1.814,0V52.419a21.137,21.137,0,0,0,14.02-6.16q.637-.637,1.211-1.318h7.543a2.548,2.548,0,0,1,2.545,2.545v7.182a3.872,3.872,0,1,0,1.815-.007V47.486a4.364,4.364,0,0,0-4.359-4.359h-6.167a20.927,20.927,0,0,0,3.576-10.888Zm3.763-2.964a2.057,2.057,0,1,1-2.057,2.057A2.059,2.059,0,0,1,224.183,29.275ZM222.126,4.231a2.057,2.057,0,1,1,2.057,2.057A2.059,2.059,0,0,1,222.126,4.231Zm-23.036,54.2a2.057,2.057,0,1,1-2.057-2.057A2.059,2.059,0,0,1,199.09,58.427Zm25.093-2.057a2.057,2.057,0,1,1-2.057,2.057A2.059,2.059,0,0,1,224.183,56.371Z" transform="translate(-166.029 -0.36)"/>
      </g>
    </g>
  </g>
</svg>
