<svg xmlns="http://www.w3.org/2000/svg" width="93.75" height="93.561" viewBox="0 0 93.75 93.561">
  <g id="no-racismo_1_" data-name="no-racismo (1)" transform="translate(0 -0.517)">
    <g id="Grupo_1223678" data-name="Grupo 1223678" transform="translate(1.376 1.853)">
      <g id="XMLID_561_" transform="translate(60.205 26.416)">
        <g id="Grupo_1223664" data-name="Grupo 1223664">
          <path id="Trazado_1175967" data-name="Trazado 1175967" d="M359.954,162.585a3.407,3.407,0,1,1,6.815,0V196.4a10.57,10.57,0,0,1-3.622,7.964l-.293.255v9.343a2.4,2.4,0,0,1-2.4,2.4H344.832a2.4,2.4,0,0,1-2.4-2.4v-8.943l-1.875-1.347a11.013,11.013,0,0,1-4.586-8.945V180.283a3.483,3.483,0,0,1,3.473-3.483V156.608a3.407,3.407,0,0,1,6.815,0h.062v-1.184a3.465,3.465,0,0,1,3.362-3.495,3.4,3.4,0,0,1,3.453,3.407v4.78a3.407,3.407,0,0,1,6.815,0Z" transform="translate(-335.974 -151.928)" fill="#ffdfcf"/>
        </g>
      </g>
      <path id="Trazado_1175968" data-name="Trazado 1175968" d="M357.136,284.855V274.777a7.148,7.148,0,0,0-7.148-7.148,7.172,7.172,0,0,0-1.119.088v17.138Z" transform="translate(-286.3 -220.006)" fill="#ffcebf"/>
      <g id="XMLID_559_" transform="translate(0 26.416)">
        <g id="Grupo_1223667" data-name="Grupo 1223667">
          <path id="Trazado_1175969" data-name="Trazado 1175969" d="M342.939,299.593v16.333h-.5v-.077L340.56,314.5a11.013,11.013,0,0,1-4.586-8.945V291.111a3.483,3.483,0,1,1,6.965,0Z" transform="translate(-275.769 -262.756)" fill="#ffdfcf"/>
          <g id="XMLID_562_" transform="translate(0 0.193)">
            <g id="Grupo_1223665" data-name="Grupo 1223665">
              <path id="Trazado_1175970" data-name="Trazado 1175970" d="M31.487,163.638a3.407,3.407,0,1,1,6.815,0v33.819a10.57,10.57,0,0,1-3.622,7.964l-.293.255v9.343a2.4,2.4,0,0,1-2.4,2.4H16.365a2.4,2.4,0,0,1-2.4-2.4v-8.943l-1.875-1.347a11.013,11.013,0,0,1-4.586-8.945V181.336a3.483,3.483,0,0,1,3.473-3.483V157.661a3.407,3.407,0,1,1,6.815,0h.062v-1.184a3.465,3.465,0,0,1,3.362-3.495,3.4,3.4,0,0,1,3.453,3.407v4.78a3.407,3.407,0,0,1,6.815,0Z" transform="translate(-7.507 -152.981)" fill="#ffe5c2"/>
            </g>
          </g>
          <path id="Trazado_1175971" data-name="Trazado 1175971" d="M34.783,286.331V275.857a7.145,7.145,0,0,0-6.9-7.142v17.616Z" transform="translate(-24.152 -247.309)" fill="#fed2a4"/>
          <path id="Trazado_1175972" data-name="Trazado 1175972" d="M14.472,300.627V316.96h-.5v-.077l-1.875-1.347a11.013,11.013,0,0,1-4.586-8.945V292.145a3.483,3.483,0,0,1,6.965,0Z" transform="translate(-7.507 -263.6)" fill="#ffe5c2"/>
          <g id="Grupo_1223666" data-name="Grupo 1223666" transform="translate(60.205)">
            <path id="Trazado_1175973" data-name="Trazado 1175973" d="M348.314,220.14a2.4,2.4,0,0,1-2.4-2.4v-7.874a2.085,2.085,0,0,0-.868-1.693l-1.007-.723a11.013,11.013,0,0,1-4.586-8.945V184.061a3.483,3.483,0,0,1,3.473-3.483V160.386a3.405,3.405,0,0,1,.347-1.491,3.456,3.456,0,0,0-.422-.026,3.4,3.4,0,0,0-3.407,3.407v20.193a3.483,3.483,0,0,0-3.473,3.483V200.4a11.013,11.013,0,0,0,4.586,8.945l1.875,1.347v8.943a2.4,2.4,0,0,0,2.4,2.4h15.625a2.4,2.4,0,0,0,2.342-1.89H348.314Z" transform="translate(-335.974 -157.596)" fill="#ffcebf"/>
            <path id="Trazado_1175974" data-name="Trazado 1175974" d="M395.929,153.278a3.4,3.4,0,0,1,.276-1.331,3.4,3.4,0,0,0-3.758,3.469v20.42a3.483,3.483,0,0,0,3.483-3.483Z" transform="translate(-382.095 -151.928)" fill="#ffcebf"/>
          </g>
        </g>
      </g>
      <g id="Grupo_1223669" data-name="Grupo 1223669" transform="translate(27.152 0.039)">
        <g id="XMLID_555_">
          <g id="Grupo_1223668" data-name="Grupo 1223668">
            <path id="Trazado_1175975" data-name="Trazado 1175975" d="M184.08,20.682a4.035,4.035,0,0,1,1.186-2.863c1.379-1.379,3.743-1.766,5.947-.015a2.581,2.581,0,0,1,.967,2.022V60.975a10.452,10.452,0,0,1-4.678,8.712l-1.072.709a.832.832,0,0,0-.37.691V96.862a1.968,1.968,0,0,1-1.968,1.968h-18.62a2.149,2.149,0,0,1-2.149-2.149V71.116l-2.229-1.6a13.088,13.088,0,0,1-5.449-10.629V41.716a4.137,4.137,0,0,1,4.139-4.139v-24a2.575,2.575,0,0,1,.978-2.028c2.209-1.73,4.562-1.341,5.936.033a4.035,4.035,0,0,1,1.186,2.863V11.209a2.578,2.578,0,0,1,.967-2.02c2.2-1.749,4.566-1.362,5.945.016a4.035,4.035,0,0,1,1.186,2.863v5.682a4.05,4.05,0,0,1,8.1,0Z" transform="translate(-155.644 -8.019)" fill="#eb9c8d"/>
          </g>
        </g>
      </g>
      <path id="Trazado_1175976" data-name="Trazado 1175976" d="M186.03,169.723V157.093a7.814,7.814,0,0,0-7.806-7.8v20.435Z" transform="translate(-146.933 -123.356)" fill="#d78878"/>
      <g id="XMLID_558_" transform="translate(23.985 29.598)">
        <g id="Grupo_1223670" data-name="Grupo 1223670">
          <path id="Trazado_1175977" data-name="Trazado 1175977" d="M138.367,209.239a3.483,3.483,0,0,0,3.483-3.483v-11.95a3.387,3.387,0,0,1,.245-1.258c-.107-.01-.216-.016-.326-.016a3.4,3.4,0,0,0-3.4,3.3Z" transform="translate(-138.367 -188.272)" fill="#fed2a4"/>
          <path id="Trazado_1175978" data-name="Trazado 1175978" d="M163.923,183.506v19.321h-.6l-2.229-1.6a13.088,13.088,0,0,1-5.449-10.629V173.427a4.14,4.14,0,0,1,8.279,0Z" transform="translate(-152.477 -169.288)" fill="#eb9c8d"/>
        </g>
      </g>
      <path id="Trazado_1175979" data-name="Trazado 1175979" d="M208.12,239.954l-6.355-6.383a5.427,5.427,0,0,1,7.074-8.192l1.26.932a.37.37,0,0,0,.44,0l1.26-.932a5.427,5.427,0,0,1,7.074,8.192l-6.355,6.383A3.1,3.1,0,0,1,208.12,239.954Z" transform="translate(-164.867 -184.631)" fill="#f07281"/>
      <g id="Grupo_1223671" data-name="Grupo 1223671" transform="translate(27.152 2.421)">
        <path id="Trazado_1175980" data-name="Trazado 1175980" d="M167.462,101.807V83.95a3.646,3.646,0,0,0-1.493-2.943l-.736-.538a13.4,13.4,0,0,1-5.449-10.819V52.175A4.243,4.243,0,0,1,161,49.2a4.1,4.1,0,0,1,2.927-1.233V24.423a4.144,4.144,0,0,1,1.406-3.12,4.057,4.057,0,0,0-1.735-.278,4.114,4.114,0,0,0-3.81,4.141V48.195a4.136,4.136,0,0,0-4.139,4.139V69.5a13.088,13.088,0,0,0,5.449,10.629l2.229,1.6v25.736a1.977,1.977,0,0,0,1.978,1.978h18.78a1.98,1.98,0,0,0,1.98-1.98V105.83H171.485a4.023,4.023,0,0,1-4.023-4.023Z" transform="translate(-155.645 -21.018)" fill="#d78878"/>
      </g>
      <g id="Grupo_1223674" data-name="Grupo 1223674" transform="translate(39.392)">
        <g id="Grupo_1223672" data-name="Grupo 1223672">
          <path id="Trazado_1175981" data-name="Trazado 1175981" d="M222.421,38.467a4.139,4.139,0,0,0,4.139-4.139V11.212a4.144,4.144,0,0,1,1.406-3.12,4.053,4.053,0,0,0-1.674-.281,4.111,4.111,0,0,0-3.87,4.139Z" transform="translate(-222.421 -7.808)" fill="#d78878"/>
        </g>
        <g id="Grupo_1223673" data-name="Grupo 1223673" transform="translate(8.107 5.721)">
          <path id="Trazado_1175982" data-name="Trazado 1175982" d="M266.654,63.957a4.139,4.139,0,0,0,4.139-4.139V41.827a4.147,4.147,0,0,1,.964-2.667,4.05,4.05,0,0,0-5.1,3.624Z" transform="translate(-266.654 -39.018)" fill="#d78878"/>
          <path id="Trazado_1175983" data-name="Trazado 1175983" d="M310.816,77.063a4.139,4.139,0,0,0,4.139-4.139V57.185a4.148,4.148,0,0,1,.572-2.109,3.953,3.953,0,0,0-.626-.056,4.049,4.049,0,0,0-4.085,3.832Z" transform="translate(-302.722 -52.086)" fill="#d78878"/>
        </g>
      </g>
      <path id="Trazado_1175984" data-name="Trazado 1175984" d="M380.416,347.091l-5.347-5.371a4.567,4.567,0,0,1,5.953-6.894l1.06.784a.312.312,0,0,0,.371,0l1.06-.784a4.567,4.567,0,0,1,5.953,6.894l-5.347,5.371A2.612,2.612,0,0,1,380.416,347.091Z" transform="translate(-306.611 -274.156)" fill="#f07281"/>
      <g id="Grupo_1223676" data-name="Grupo 1223676" transform="translate(0 26.609)">
        <g id="Grupo_1223675" data-name="Grupo 1223675">
          <path id="Trazado_1175985" data-name="Trazado 1175985" d="M21.231,221.193a3.78,3.78,0,0,1-3.78-3.78v-6.491a2.085,2.085,0,0,0-.868-1.693l-1.007-.723a11.013,11.013,0,0,1-4.586-8.945V185.114a3.483,3.483,0,0,1,3.473-3.483V161.438a3.4,3.4,0,0,1,.347-1.491,3.457,3.457,0,0,0-.422-.026,3.4,3.4,0,0,0-3.407,3.407v20.193A3.483,3.483,0,0,0,7.508,187v14.447a11.013,11.013,0,0,0,4.586,8.945l1.875,1.347v8.943a2.4,2.4,0,0,0,2.4,2.4H31.991a2.4,2.4,0,0,0,2.342-1.89Z" transform="translate(-7.508 -158.649)" fill="#fed2a4"/>
          <path id="Trazado_1175986" data-name="Trazado 1175986" d="M67.462,154.331A3.4,3.4,0,0,1,67.737,153a3.4,3.4,0,0,0-3.758,3.469v20.42a3.483,3.483,0,0,0,3.483-3.483Z" transform="translate(-53.628 -152.981)" fill="#fed2a4"/>
          <path id="Trazado_1175987" data-name="Trazado 1175987" d="M101.174,198.169a3.483,3.483,0,0,0,3.483-3.482V180.395a3.387,3.387,0,0,1,.27-1.316,3.459,3.459,0,0,0-.348-.019,3.406,3.406,0,0,0-3.4,3.349Z" transform="translate(-84.006 -174.28)" fill="#fed2a4"/>
        </g>
        <path id="Trazado_1175988" data-name="Trazado 1175988" d="M51.658,347.092l-5.347-5.37a4.567,4.567,0,0,1,5.953-6.894l1.06.785a.312.312,0,0,0,.371,0l1.06-.785a4.567,4.567,0,0,1,5.953,6.894l-5.347,5.371a2.612,2.612,0,0,1-3.7,0Z" transform="translate(-38.112 -300.765)" fill="#f07281"/>
      </g>
      <g id="Grupo_1223677" data-name="Grupo 1223677" transform="translate(77.373 31.196)">
        <path id="Trazado_1175989" data-name="Trazado 1175989" d="M429.64,197.117a3.483,3.483,0,0,0,3.482-3.483V179.343a3.388,3.388,0,0,1,.27-1.316,3.468,3.468,0,0,0-.348-.019,3.406,3.406,0,0,0-3.4,3.349Z" transform="translate(-429.64 -178.008)" fill="#ffcebf"/>
        <path id="Trazado_1175990" data-name="Trazado 1175990" d="M466.834,208.186a3.483,3.483,0,0,0,3.482-3.483v-11.95a3.389,3.389,0,0,1,.245-1.258c-.107-.01-.216-.016-.326-.016a3.4,3.4,0,0,0-3.4,3.3Z" transform="translate(-460.017 -189.01)" fill="#ffcebf"/>
      </g>
    </g>
    <g id="Grupo_1223679" data-name="Grupo 1223679" transform="translate(0 0.517)">
      <path id="Trazado_1175991" data-name="Trazado 1175991" d="M172.1,21.247a1.375,1.375,0,0,0,1.375-1.375V8.324a2.675,2.675,0,1,1,5.35,0V32.171a1.375,1.375,0,1,0,2.749,0V5.941a2.675,2.675,0,0,1,5.35,0V32.171a1.375,1.375,0,0,0,2.749,0V11.623a2.675,2.675,0,1,1,5.35,0V32.171a1.375,1.375,0,1,0,2.749,0V14.556a2.675,2.675,0,1,1,5.35,0v4.151a1.375,1.375,0,1,0,2.749,0V14.556a5.42,5.42,0,0,0-8.35-4.564,5.419,5.419,0,0,0-7.848-3.085V5.941a5.424,5.424,0,0,0-10.436-2.073,5.42,5.42,0,0,0-8.511,4.456V19.872A1.375,1.375,0,0,0,172.1,21.247Z" transform="translate(-139.433 -0.517)"/>
      <path id="Trazado_1175992" data-name="Trazado 1175992" d="M322.953,125.6a1.375,1.375,0,1,0-2.749,0v30.282a9.057,9.057,0,0,1-4.062,7.566l-1.072.71a2.2,2.2,0,0,0-.986,1.837v27.742a1.375,1.375,0,0,0,2.749,0V166.285l.828-.549a11.8,11.8,0,0,0,5.292-9.857Z" transform="translate(-256.515 -101.548)"/>
      <path id="Trazado_1175993" data-name="Trazado 1175993" d="M177.685,148.755a6.828,6.828,0,0,0-9.207-1.036l-.663.49-.663-.49a6.836,6.836,0,0,0-7.984-.076v-5.831a5.524,5.524,0,0,0-4.139-5.341v-4.519a1.375,1.375,0,0,0-2.749,0v4.519a5.524,5.524,0,0,0-4.139,5.341v17.169a14.5,14.5,0,0,0,6.022,11.745l1.657,1.191v27.008a1.375,1.375,0,0,0,2.749,0V171.212A1.374,1.374,0,0,0,158,170.1l-2.229-1.6a11.743,11.743,0,0,1-4.878-9.513V141.812a2.765,2.765,0,1,1,5.53,0V152a6.823,6.823,0,0,0,1.867,5.981l6.355,6.382a4.479,4.479,0,0,0,6.347,0l6.355-6.382a6.835,6.835,0,0,0,.341-9.231Zm-2.289,7.291-6.355,6.382a1.729,1.729,0,0,1-2.451,0l-6.355-6.382a4.048,4.048,0,0,1,2.879-6.907,4.03,4.03,0,0,1,2.4.79l1.261.933a1.736,1.736,0,0,0,2.075,0l1.26-.932a4.053,4.053,0,0,1,5.282,6.117Z" transform="translate(-120.988 -106.739)"/>
      <path id="Trazado_1175994" data-name="Trazado 1175994" d="M349.914,421.211l-1.875-1.348a9.668,9.668,0,0,1-1.555-1.4,1.375,1.375,0,0,0-2.049,1.833,12.419,12.419,0,0,0,2,1.8l1.3.936v10.632a1.375,1.375,0,1,0,2.749,0V422.327A1.375,1.375,0,0,0,349.914,421.211Z" transform="translate(-281.017 -341.481)"/>
      <path id="Trazado_1175995" data-name="Trazado 1175995" d="M397.25,151.677a4.751,4.751,0,0,0-2.345.617,4.778,4.778,0,0,0-6.5-2.63v-.454a4.781,4.781,0,0,0-9.115-2.021,1.374,1.374,0,0,0-1.269,2.4,2.016,2.016,0,0,1,.819,1.626v20.066a1.375,1.375,0,1,0,2.749,0V149.21a2.033,2.033,0,0,1,4.065,0v22.071a1.375,1.375,0,1,0,2.749,0V153.991a2.033,2.033,0,1,1,4.065,0v17.289a1.375,1.375,0,0,0,2.749,0V156.459a2.033,2.033,0,1,1,4.065,0v33.819a9.19,9.19,0,0,1-3.151,6.928l-.293.256a1.374,1.374,0,0,0-.471,1.036v11.739a1.375,1.375,0,1,0,2.749,0V199.12a11.938,11.938,0,0,0,3.915-8.842V156.459A4.787,4.787,0,0,0,397.25,151.677Z" transform="translate(-308.282 -118.05)"/>
      <path id="Trazado_1175996" data-name="Trazado 1175996" d="M376.616,327.631l-.428.317-.428-.317a5.942,5.942,0,0,0-7.744,8.969l5.347,5.37a3.986,3.986,0,0,0,5.65,0l5.348-5.37a5.942,5.942,0,0,0-7.745-8.969Zm5.8,7.029-5.348,5.371a1.237,1.237,0,0,1-1.753,0h0l-5.347-5.37a3.188,3.188,0,0,1,2.267-5.441,3.175,3.175,0,0,1,1.893.622l1.06.785a1.678,1.678,0,0,0,2.006,0l1.06-.785a3.192,3.192,0,0,1,4.161,4.819Z" transform="translate(-299.156 -266.729)"/>
      <path id="Trazado_1175997" data-name="Trazado 1175997" d="M8.638,377.457l-1.875-1.348a9.662,9.662,0,0,1-4.014-7.828V365.8A1.375,1.375,0,1,0,0,365.8v2.478a12.418,12.418,0,0,0,5.159,10.06l1.3.936v10.635a1.375,1.375,0,1,0,2.749,0v-11.34A1.375,1.375,0,0,0,8.638,377.457Z" transform="translate(0 -297.727)"/>
      <path id="Trazado_1175998" data-name="Trazado 1175998" d="M150.244,360.153a1.375,1.375,0,0,0-1.375,1.375v9.822a9.15,9.15,0,0,1-1.741,2.041l-.293.255a1.375,1.375,0,0,0-.472,1.036v11.739a1.375,1.375,0,1,0,2.749,0V375.3a11.919,11.919,0,0,0,2.323-2.889,1.374,1.374,0,0,0,.183-.685v-10.2A1.374,1.374,0,0,0,150.244,360.153Z" transform="translate(-119.536 -294.235)"/>
      <path id="Trazado_1175999" data-name="Trazado 1175999" d="M17.2,178.953l-.428.317-.428-.317a5.969,5.969,0,0,0-6.63-.291v-4.5A4.866,4.866,0,0,0,6.232,169.5V151.215a2.033,2.033,0,1,1,4.065,0v20.066a1.375,1.375,0,1,0,2.749,0V149.21a2.033,2.033,0,1,1,4.065,0v22.071a1.375,1.375,0,0,0,2.749,0V153.991a2.035,2.035,0,0,1,2.033-2.033,2.014,2.014,0,0,1,.833.181,1.375,1.375,0,0,0,1.131-2.506,4.765,4.765,0,0,0-4,.03v-.454a4.782,4.782,0,0,0-9.094-2.068,4.779,4.779,0,0,0-7.285,4.073V169.5A4.866,4.866,0,0,0,0,174.158v6.11a1.375,1.375,0,0,0,2.749,0v-6.11a2.108,2.108,0,1,1,4.217,0v8.561a5.96,5.96,0,0,0,1.635,5.2l5.347,5.37a3.986,3.986,0,0,0,5.65,0l5.347-5.37a5.942,5.942,0,0,0-7.744-8.969Zm5.8,7.029-5.347,5.371a1.237,1.237,0,0,1-1.753,0h0l-5.347-5.37a3.188,3.188,0,0,1,2.267-5.441,3.175,3.175,0,0,1,1.893.622l1.06.784a1.678,1.678,0,0,0,2.006,0l1.06-.784A3.192,3.192,0,0,1,23,185.982Z" transform="translate(0 -118.05)"/>
    </g>
  </g>
</svg>
