<svg xmlns="http://www.w3.org/2000/svg" xmlns:xlink="http://www.w3.org/1999/xlink" width="103" height="103" viewBox="0 0 103 103">
  <defs>
    <filter id="Trazado_978624" x="0" y="0" width="103" height="103" filterUnits="userSpaceOnUse">
      <feOffset dy="3" input="SourceAlpha"/>
      <feGaussianBlur stdDeviation="3" result="blur"/>
      <feFlood flood-opacity="0.161"/>
      <feComposite operator="in" in2="blur"/>
      <feComposite in="SourceGraphic"/>
    </filter>
  </defs>
  <g id="Grupo_1223663" data-name="Grupo 1223663" transform="translate(-171 -863)">
    <g id="Grupo_1223275" data-name="Grupo 1223275" transform="translate(0 30)">
      <g id="Grupo_1222589" data-name="Grupo 1222589">
        <g id="Grupo_1203109" data-name="Grupo 1203109" transform="translate(180 839)">
          <g id="Grupo_1176881" data-name="Grupo 1176881">
            <g id="Grupo_1175148" data-name="Grupo 1175148">
              <g id="Grupo_1173798" data-name="Grupo 1173798">
                <g id="Grupo_1171925" data-name="Grupo 1171925">
                  <g id="Grupo_1164524" data-name="Grupo 1164524">
                    <g id="Grupo_1144123" data-name="Grupo 1144123">
                      <g transform="matrix(1, 0, 0, 1, -9, -6)" filter="url(#Trazado_978624)">
                        <g id="Trazado_978624-2" data-name="Trazado 978624" transform="translate(9 6)" fill="#f3f8fc">
                          <path d="M 42.5 83.5 C 36.96437835693359 83.5 31.59512901306152 82.41617584228516 26.54141235351562 80.27863311767578 C 21.65934181213379 78.21369171142578 17.27447128295898 75.25723266601562 13.50862312316895 71.49137878417969 C 9.742764472961426 67.72553253173828 6.786305904388428 63.34066009521484 4.721364498138428 58.45858764648438 C 2.583823442459106 53.40486907958984 1.5 48.03562164306641 1.5 42.5 C 1.5 36.96437835693359 2.583823442459106 31.59512901306152 4.721364498138428 26.54141235351562 C 6.786305904388428 21.65934181213379 9.742764472961426 17.27447128295898 13.50862312316895 13.50862312316895 C 17.27447128295898 9.742764472961426 21.65934181213379 6.786305904388428 26.54141235351562 4.721364498138428 C 31.59512901306152 2.583823442459106 36.96437835693359 1.5 42.5 1.5 C 48.03562164306641 1.5 53.40486907958984 2.583823442459106 58.45858764648438 4.721364498138428 C 63.34066009521484 6.786305904388428 67.72553253173828 9.742764472961426 71.49137878417969 13.50862312316895 C 75.25723266601562 17.27447128295898 78.21369171142578 21.65934181213379 80.27863311767578 26.54141235351562 C 82.41617584228516 31.59512901306152 83.5 36.96437835693359 83.5 42.5 C 83.5 48.03562164306641 82.41617584228516 53.40486907958984 80.27863311767578 58.45858764648438 C 78.21369171142578 63.34066009521484 75.25723266601562 67.72553253173828 71.49137878417969 71.49137878417969 C 67.72553253173828 75.25723266601562 63.34066009521484 78.21369171142578 58.45858764648438 80.27863311767578 C 53.40486907958984 82.41617584228516 48.03562164306641 83.5 42.5 83.5 Z" stroke="none"/>
                          <path d="M 42.5 3 C 37.16621398925781 3 31.99356079101562 4.043960571289062 27.125732421875 6.102882385253906 C 22.42246627807617 8.092185974121094 18.19785308837891 10.94070434570312 14.56928253173828 14.56928253173828 C 10.94070434570312 18.19785308837891 8.092185974121094 22.42246627807617 6.102882385253906 27.125732421875 C 4.043960571289062 31.99356079101562 3 37.16621398925781 3 42.5 C 3 47.83378601074219 4.043960571289062 53.00643920898438 6.102882385253906 57.87425231933594 C 8.092185974121094 62.57753372192383 10.94070434570312 66.80213165283203 14.56928253173828 70.43071746826172 C 18.19786834716797 74.05929565429688 22.42246627807617 76.90781402587891 27.125732421875 78.89711761474609 C 31.99356079101562 80.95603942871094 37.16621398925781 82 42.5 82 C 47.83378601074219 82 53.00642395019531 80.95603942871094 57.87425231933594 78.89711761474609 C 62.57753372192383 76.90781402587891 66.80213165283203 74.05929565429688 70.43071746826172 70.43071746826172 C 74.05929565429688 66.80213165283203 76.90781402587891 62.57753372192383 78.89711761474609 57.87425231933594 C 80.95603942871094 53.00642395019531 82 47.83378601074219 82 42.5 C 82 37.16621398925781 80.95603942871094 31.99356079101562 78.89711761474609 27.125732421875 C 76.90781402587891 22.42246627807617 74.05929565429688 18.19786834716797 70.43071746826172 14.56928253173828 C 66.80213165283203 10.94070434570312 62.57753372192383 8.092185974121094 57.87425231933594 6.102882385253906 C 53.00643920898438 4.043960571289062 47.83378601074219 3 42.5 3 M 42.5 0 C 65.97209167480469 0 85 19.02789306640625 85 42.5 C 85 65.97209167480469 65.97209167480469 85 42.5 85 C 19.02789306640625 85 0 65.97209167480469 0 42.5 C 0 19.02789306640625 19.02789306640625 0 42.5 0 Z" stroke="none" fill="#8ebee7"/>
                        </g>
                      </g>
                    </g>
                  </g>
                </g>
              </g>
            </g>
          </g>
        </g>
      </g>
    </g>
    <g id="colegial" transform="translate(173.53 881.53)">
      <g id="Grupo_1223661" data-name="Grupo 1223661" transform="translate(24.154 0.829)">
        <path id="Trazado_1175943" data-name="Trazado 1175943" d="M80.457,366.229v13.2H30.826v-13.2a2.294,2.294,0,0,1,2.292-2.294H78.165A2.294,2.294,0,0,1,80.457,366.229Z" transform="translate(-30.826 -324.654)" fill="#f9d11f"/>
        <path id="Trazado_1175944" data-name="Trazado 1175944" d="M80.457,366.229v13.2H30.826v-1.559H77.155V366.158a2.293,2.293,0,0,0-1.724-2.223h2.733A2.294,2.294,0,0,1,80.457,366.229Z" transform="translate(-30.826 -324.654)" fill="#ffa402"/>
        <g id="Grupo_1223652" data-name="Grupo 1223652" transform="translate(9.032)">
          <path id="Trazado_1175945" data-name="Trazado 1175945" d="M142.67,28.01H114.4s-6.969-17.076,8-14.505c.352-4.583,5.12-5.742,8.476-5.963a18.857,18.857,0,0,1,3.025.034C147.958,9.129,142.67,28.01,142.67,28.01Z" transform="translate(-112.778 -7.499)" fill="#56788b"/>
          <path id="Trazado_1175946" data-name="Trazado 1175946" d="M175.477,28.011H149.648c.364-2.45.854-6.09.907-6.195,2.4-4.761,17.76-5.452,21.807-2.533l.011.008a.649.649,0,0,0,1.046-.53c-.355-5.03-2.474-10.388-9.686-11.185-.041,0-.057-.016-.05-.034a18.857,18.857,0,0,1,3.025.034C180.764,9.13,175.477,28.011,175.477,28.011Z" transform="translate(-145.585 -7.5)" fill="#415e6f"/>
        </g>
        <g id="Grupo_1223653" data-name="Grupo 1223653" transform="translate(3.263 41.503)">
          <path id="Trazado_1175947" data-name="Trazado 1175947" d="M98.032,387.061l-3.857-1.531a38.084,38.084,0,0,0-7.054-1.429h-10.3a38.066,38.066,0,0,0-7.016,1.417l-3.857,1.523c-3.031,1.534-5.51,3.831-5.51,7.237v3.091H103.5v-3.091C103.5,390.886,101.044,388.6,98.032,387.061Z" transform="translate(-60.438 -384.101)" fill="#eef0f5"/>
          <path id="Trazado_1175948" data-name="Trazado 1175948" d="M98.032,387.061l-3.857-1.531a38.084,38.084,0,0,0-7.054-1.429c4.754,1.224,13.063,4.339,13.063,9.679a2.036,2.036,0,0,1-2.037,2.037H60.438v1.553H103.5v-3.091c0-3.392-2.46-5.683-5.472-7.217Z" transform="translate(-60.438 -384.101)" fill="#dae1ea"/>
        </g>
        <path id="Trazado_1175949" data-name="Trazado 1175949" d="M95.2,195.927a2.874,2.874,0,1,1-.177-4.228Z" transform="translate(-83.734 -170.795)" fill="#d87c3d"/>
        <path id="Trazado_1175950" data-name="Trazado 1175950" d="M376.889,195.927a2.874,2.874,0,1,0,.177-4.228Z" transform="translate(-338.751 -170.795)" fill="#d87c3d"/>
        <g id="Grupo_1223654" data-name="Grupo 1223654" transform="translate(21.268 37.199)">
          <path id="Trazado_1175951" data-name="Trazado 1175951" d="M230.957,347.76l-3.619,4.545-3.529-4.521c.052-.154.1-.318.137-.488a10.028,10.028,0,0,0,.23-2.253h6.5a12.463,12.463,0,0,0,.17,2.212C230.874,347.431,230.913,347.6,230.957,347.76Z" transform="translate(-223.809 -345.043)" fill="#fab684"/>
          <path id="Trazado_1175952" data-name="Trazado 1175952" d="M231.946,347.255a10.072,10.072,0,0,1-6.9.041,10.028,10.028,0,0,0,.23-2.253h6.5A12.465,12.465,0,0,0,231.946,347.255Z" transform="translate(-224.912 -345.043)" fill="#ed975d"/>
        </g>
        <g id="Grupo_1223655" data-name="Grupo 1223655" transform="translate(10.664 11.796)">
          <path id="Trazado_1175953" data-name="Trazado 1175953" d="M155.86,123.25h-.012c-.414,7.272-4.751,14.386-10.527,16.546a10.216,10.216,0,0,1-3.6.665c-7.5,0-13.631-8.491-14.128-17.211h0s1.235-4.654,3.35-6.443a3.5,3.5,0,0,1,.413-.305c3.927-2.463,17.038-2.782,20.746,0C154.331,118.177,155.86,123.25,155.86,123.25Z" transform="translate(-127.588 -114.533)" fill="#fab684"/>
          <path id="Trazado_1175954" data-name="Trazado 1175954" d="M182.91,123.25H182.9c-.414,7.272-4.751,14.386-10.527,16.546,4.647-2.937,7.962-9.13,8.323-15.444h.012s-1.529-5.073-3.762-6.748c-3.261-2.445-13.791-2.5-18.955-.8a3.5,3.5,0,0,1,.413-.305c3.927-2.463,17.038-2.782,20.746,0C181.381,118.177,182.91,123.25,182.91,123.25Z" transform="translate(-154.638 -114.533)" fill="#ed975d"/>
        </g>
        <g id="Grupo_1223656" data-name="Grupo 1223656" transform="translate(19.286 39.916)">
          <path id="Trazado_1175955" data-name="Trazado 1175955" d="M205.828,376.627l.36-5.147,1.621-1.565,3.529,4.521Z" transform="translate(-205.828 -369.891)" fill="#dae1ea"/>
          <path id="Trazado_1175956" data-name="Trazado 1175956" d="M261.338,376.43l-.36-5.147-1.531-1.59-3.619,4.545Z" transform="translate(-250.318 -369.693)" fill="#dae1ea"/>
          <path id="Trazado_1175957" data-name="Trazado 1175957" d="M225.744,412.245l1.331,3.315h3.967l1.351-3.315-3.335-1.284Z" transform="translate(-223.549 -406.413)" fill="#ff6b81"/>
          <path id="Trazado_1175958" data-name="Trazado 1175958" d="M230.1,458.4h-7.274l.45-1.552,1.2-4.157h3.967l1.2,4.157Z" transform="translate(-220.953 -443.548)" fill="#ed2061"/>
          <path id="Trazado_1175959" data-name="Trazado 1175959" d="M230.1,491.967h-7.274l.45-1.552h6.374Z" transform="translate(-220.953 -477.111)" fill="#c71e54"/>
        </g>
        <g id="Grupo_1223658" data-name="Grupo 1223658" transform="translate(8.773 39.281)">
          <g id="Grupo_1223657" data-name="Grupo 1223657">
            <path id="Trazado_1175960" data-name="Trazado 1175960" d="M110.436,363.935h3.857v15.49h-3.857Z" transform="translate(-110.436 -363.935)" fill="#56788b"/>
          </g>
          <path id="Trazado_1175961" data-name="Trazado 1175961" d="M110.436,490.415h3.857v1.552h-3.857Z" transform="translate(-110.436 -476.476)" fill="#415e6f"/>
        </g>
        <g id="Grupo_1223660" data-name="Grupo 1223660" transform="translate(37 39.281)">
          <g id="Grupo_1223659" data-name="Grupo 1223659">
            <path id="Trazado_1175962" data-name="Trazado 1175962" d="M366.566,363.937h3.857v15.49h-3.857Z" transform="translate(-366.566 -363.937)" fill="#56788b"/>
          </g>
          <path id="Trazado_1175963" data-name="Trazado 1175963" d="M366.566,490.417h3.857v1.552h-3.857Z" transform="translate(-366.566 -476.478)" fill="#415e6f"/>
        </g>
      </g>
      <g id="Grupo_1223662" data-name="Grupo 1223662" transform="translate(23.328 0.003)">
        <path id="Trazado_1175964" data-name="Trazado 1175964" d="M71.492,39.283h-12.9a.827.827,0,0,0,0,1.653h1.736v1.725a39.417,39.417,0,0,0-5.859-1.123l-1.117-1.079a8.872,8.872,0,0,1-.231-1.9,15.4,15.4,0,0,0,6.506-5.277,21.887,21.887,0,0,0,3.118-6,3.7,3.7,0,1,0,1.581-7.053c-.042,0-.085,0-.127,0a33.861,33.861,0,0,0,.572-3.853,20.112,20.112,0,0,0-1.246-9.987.827.827,0,1,0-1.509.675A19.221,19.221,0,0,1,63.127,16.2c-.07.791-.167,1.527-.27,2.176l-.056-.127a11.024,11.024,0,0,0-2.978-4.328c-1.841-1.382-5.874-2.181-10.795-2.133-3.705.035-8.511.6-10.887,2.094-1.52.954-2.632,3.115-3.318,4.839-.19-.683-.382-1.475-.53-2.32-.394-2.25-.549-5.325.951-7.193,1.327-1.653,3.829-2.177,7.436-1.557a.827.827,0,0,0,.964-.751,4.483,4.483,0,0,1,1.66-3.272c2.516-2.086,7.3-2.075,8.926-1.9a9.649,9.649,0,0,1,5.9,2.563A.827.827,0,0,0,61.29,3.114,11.253,11.253,0,0,0,54.413.085a20.1,20.1,0,0,0-4.322.072,11.191,11.191,0,0,0-5.841,2.194A6.058,6.058,0,0,0,42.119,5.89c-3.8-.5-6.548.269-8.162,2.279-2.73,3.4-1.284,9.341-.409,12.057A3.7,3.7,0,1,0,35.16,27.28a22.037,22.037,0,0,0,2.823,5.6.827.827,0,0,0,1.351-.952A20.891,20.891,0,0,1,35.656,21.4c.413-1.48,1.706-5.082,3.365-6.122,1.717-1.077,5.652-1.8,10.024-1.841,4.5-.04,8.249.648,9.787,1.8,1.586,1.19,2.951,4.7,3.415,6.16A20.741,20.741,0,0,1,58.3,32.3c-2.6,3.5-5.92,5.429-9.349,5.429a10.753,10.753,0,0,1-7.193-3.037.827.827,0,0,0-1.109,1.226,13.885,13.885,0,0,0,4.3,2.7,7.89,7.89,0,0,1-.254,1.7l-1.261,1.218a39.427,39.427,0,0,0-5.821,1.113V40.937h1.736a.827.827,0,1,0,0-1.653h-12.9a3.123,3.123,0,0,0-3.119,3.12V55.6a.827.827,0,0,0,1.653,0V42.4a1.468,1.468,0,0,1,1.466-1.467H32.1v3.838c-3.656,1.977-5.51,4.579-5.51,7.74V55.6a.827.827,0,0,0,1.653,0V52.515c0-2.283,1.3-4.24,3.857-5.831V55.6a.827.827,0,0,0,1.653,0V40.936h2.2V55.6a.827.827,0,0,0,1.653,0V44.367a38.561,38.561,0,0,1,5.3-1.1l-.291,4.155a.826.826,0,0,0,1.13.826l1.441-.574.907,2.258L44.52,55.371a.827.827,0,1,0,1.588.46l1.48-5.112h2.725l1.48,5.112a.827.827,0,1,0,1.588-.46l-1.573-5.433.918-2.256,1.429.569a.827.827,0,0,0,1.13-.826L55,43.27a38.53,38.53,0,0,1,5.333,1.109V55.6a.827.827,0,1,0,1.653,0V40.936h2.2V55.6a.827.827,0,0,0,1.653,0V46.708c2.535,1.587,3.819,3.536,3.819,5.807V55.6a.827.827,0,0,0,1.653,0V52.515c0-3.15-1.841-5.745-5.472-7.72V40.936h5.654A1.468,1.468,0,0,1,72.959,42.4V55.6a.827.827,0,0,0,1.653,0V42.4a3.124,3.124,0,0,0-3.119-3.12ZM33.583,25.977a2.05,2.05,0,1,1,.455-4.049,22.338,22.338,0,0,0,.639,3.731A2.035,2.035,0,0,1,33.583,25.977Zm32.792-2.049a2.048,2.048,0,0,1-3.147,1.73,22.294,22.294,0,0,0,.636-3.727,2.051,2.051,0,0,1,2.51,2ZM48.951,39.377a10.954,10.954,0,0,0,2.54-.3,10.715,10.715,0,0,0,.17,1.4l-2.71,3.474L46.333,40.59a9.252,9.252,0,0,0,.238-1.48A10.839,10.839,0,0,0,48.951,39.377ZM44.6,42.706,45.335,42l2.286,2.93-3.264,1.3Zm5.776,6.359H47.526l-.8-2,2.227-.886,2.24.891Zm-.1-4.136L52.566,42l.732.707.246,3.522Z" transform="translate(-23.328 -0.003)"/>
        <path id="Trazado_1175965" data-name="Trazado 1175965" d="M225.087,272.424a.827.827,0,0,0-.449,1.079,3.658,3.658,0,0,0,6.763,0,.827.827,0,0,0-1.528-.63,2.005,2.005,0,0,1-3.707,0A.827.827,0,0,0,225.087,272.424Z" transform="translate(-202.397 -242.346)"/>
        <path id="Trazado_1175966" data-name="Trazado 1175966" d="M236.259,229.329a.827.827,0,0,0,1.079-.449.673.673,0,0,1,1.244,0,.827.827,0,1,0,1.528-.63,2.326,2.326,0,0,0-4.3,0A.826.826,0,0,0,236.259,229.329Z" transform="translate(-212.338 -201.816)"/>
      </g>
    </g>
  </g>
</svg>
