<svg xmlns="http://www.w3.org/2000/svg" xmlns:xlink="http://www.w3.org/1999/xlink" width="108" height="108" viewBox="0 0 108 108">
  <defs>
    <filter id="Trazado_904820" x="0" y="0" width="108" height="108" filterUnits="userSpaceOnUse">
      <feOffset dy="3" input="SourceAlpha"/>
      <feGaussianBlur stdDeviation="3" result="blur"/>
      <feFlood flood-opacity="0.161"/>
      <feComposite operator="in" in2="blur"/>
      <feComposite in="SourceGraphic"/>
    </filter>
  </defs>
  <g id="Grupo_1223777" data-name="Grupo 1223777" transform="translate(-725 -331.12)">
    <g id="Grupo_1223324" data-name="Grupo 1223324" transform="translate(734 337.12)">
      <g id="Grupo_1222626" data-name="Grupo 1222626" transform="translate(0 0)">
        <g id="Grupo_1173585" data-name="Grupo 1173585">
          <g id="Grupo_1173428" data-name="Grupo 1173428">
            <g id="Grupo_1171958" data-name="Grupo 1171958">
              <g id="Grupo_1167341" data-name="Grupo 1167341">
                <g id="Grupo_1166792" data-name="Grupo 1166792">
                  <g transform="matrix(1, 0, 0, 1, -9, -6)" filter="url(#Trazado_904820)">
                    <g id="Trazado_904820-2" data-name="Trazado 904820" transform="translate(9 6)" fill="#ebfcf4">
                      <path d="M 44.99999618530273 88.50005340576172 C 39.12687301635742 88.50005340576172 33.43022155761719 87.35012817382812 28.06829643249512 85.08221435546875 C 22.88852119445801 82.89134979248047 18.23629570007324 79.754638671875 14.24084663391113 75.75918579101562 C 10.24540901184082 71.76372528076172 7.108683586120605 67.11150360107422 4.917821407318115 61.93173980712891 C 2.649921178817749 56.56980133056641 1.499996185302734 50.87314987182617 1.499996185302734 45.00002670288086 C 1.499996185302734 39.12690353393555 2.649921178817749 33.43025207519531 4.917821407318115 28.06831359863281 C 7.108683586120605 22.8885383605957 10.24540901184082 18.23632621765137 14.24084663391113 14.24087715148926 C 18.23629570007324 10.24542713165283 22.88852119445801 7.108701705932617 28.06829643249512 4.917839050292969 C 33.43022155761719 2.649939298629761 39.12687301635742 1.500014185905457 44.99999618530273 1.500014185905457 C 50.87311935424805 1.500014185905457 56.56977081298828 2.649939298629761 61.93169784545898 4.917839050292969 C 67.11147308349609 7.108701705932617 71.76369476318359 10.24542713165283 75.75914764404297 14.24087715148926 C 79.75458526611328 18.23632621765137 82.89131164550781 22.8885383605957 85.08216857910156 28.06831359863281 C 87.35007476806641 33.43025207519531 88.5 39.12690353393555 88.5 45.00002670288086 C 88.5 50.87314987182617 87.35007476806641 56.56980133056641 85.08216857910156 61.93173980712891 C 82.89131164550781 67.11150360107422 79.75458526611328 71.76372528076172 75.75914764404297 75.75918579101562 C 71.76369476318359 79.754638671875 67.11147308349609 82.89134979248047 61.93169784545898 85.08221435546875 C 56.56977081298828 87.35012817382812 50.87311935424805 88.50005340576172 44.99999618530273 88.50005340576172 Z" stroke="none"/>
                      <path d="M 44.99999618530273 3.000015258789062 C 39.32870864868164 3.000015258789062 33.82865142822266 4.110069274902344 28.65262603759766 6.299354553222656 C 23.65165710449219 8.414581298828125 19.15968322753906 11.44335174560547 15.301513671875 15.30152893066406 C 11.44333648681641 19.15969848632812 8.414566040039062 23.65167236328125 6.299339294433594 28.65264129638672 C 4.110054016113281 33.82868194580078 2.999992370605469 39.32873916625977 2.999992370605469 45.00002670288086 C 2.999992370605469 50.67131423950195 4.110054016113281 56.17137145996094 6.299339294433594 61.34739685058594 C 8.414566040039062 66.34838104248047 11.44333648681641 70.84033966064453 15.301513671875 74.69850921630859 C 19.15968322753906 78.55670166015625 23.65165710449219 81.58547210693359 28.65262603759766 83.70069885253906 C 33.82865142822266 85.88998413085938 39.32870864868164 87.00003814697266 44.99999618530273 87.00003814697266 C 50.67128372192383 87.00003814697266 56.17134094238281 85.88998413085938 61.34736633300781 83.70069885253906 C 66.34834289550781 81.58547210693359 70.84030914306641 78.55670166015625 74.69847869873047 74.69850921630859 C 78.55665588378906 70.84033966064453 81.58542633056641 66.34838104248047 83.70065307617188 61.34739685058594 C 85.88993835449219 56.17137145996094 87 50.67131423950195 87 45.00002670288086 C 87 39.32873916625977 85.88993835449219 33.82868194580078 83.70065307617188 28.65264129638672 C 81.58542633056641 23.65167236328125 78.55665588378906 19.15969848632812 74.69847869873047 15.30152893066406 C 70.84030914306641 11.44335174560547 66.34834289550781 8.414581298828125 61.34736633300781 6.299354553222656 C 56.17134094238281 4.110069274902344 50.67128372192383 3.000015258789062 44.99999618530273 3.000015258789062 M 44.99999618530273 1.52587890625e-05 C 69.85281372070312 1.52587890625e-05 90 20.14720153808594 90 45.00002670288086 C 90 69.85284423828125 69.85281372070312 90.00003814697266 44.99999618530273 90.00003814697266 C 20.14717864990234 90.00003814697266 -7.62939453125e-06 69.85284423828125 -7.62939453125e-06 45.00002670288086 C -7.62939453125e-06 20.14720153808594 20.14717864990234 1.52587890625e-05 44.99999618530273 1.52587890625e-05 Z" stroke="none" fill="#277e53"/>
                    </g>
                  </g>
                </g>
              </g>
            </g>
          </g>
        </g>
      </g>
    </g>
    <g id="diversidad_2_" data-name="diversidad (2)" transform="translate(775.184 378.25)">
      <circle id="Elipse_12080" data-name="Elipse 12080" cx="3.953" cy="3.953" r="3.953" transform="matrix(0.16, -0.987, 0.987, 0.16, 5.004, -11.166)" fill="#f5c956"/>
      <path id="Trazado_1176154" data-name="Trazado 1176154" d="M98.727,105.169a17.523,17.523,0,0,0-5.136,11.709,3.128,3.128,0,0,0,6.251.248,46.566,46.566,0,0,1,4.12-6.721c1.989-1.989,6.469-2.983,9.075-2.983l-1.874-2.1a4.511,4.511,0,0,0-6.067-4.232,17.523,17.523,0,0,0-6.37,4.077Z" transform="translate(-107.341 -113.735)" fill="#ff6e80"/>
      <ellipse id="Elipse_12081" data-name="Elipse 12081" cx="10.465" cy="8.578" rx="10.465" ry="8.578" transform="translate(-26.771 -11.923) rotate(-45)" fill="#fdd1a3"/>
      <path id="Trazado_1176155" data-name="Trazado 1176155" d="M247.873,98.726a17.523,17.523,0,0,0-11.709-5.136,3.128,3.128,0,0,0-.248,6.251,46.566,46.566,0,0,1,6.721,4.12c1.989,1.989,2.983,6.469,2.983,9.075l2.1-1.874a4.511,4.511,0,0,0,4.233-6.067A17.523,17.523,0,0,0,247.873,98.726Z" transform="translate(-231.614 -107.292)" fill="#ffb25a"/>
      <ellipse id="Elipse_12082" data-name="Elipse 12082" cx="8.578" cy="10.465" rx="8.578" ry="10.465" transform="translate(7.481 -14.588) rotate(-45)" fill="#ffd3bc"/>
      <path id="Trazado_1176156" data-name="Trazado 1176156" d="M232.985,97.26a3.119,3.119,0,0,0,2.932,2.581,21.657,21.657,0,0,1,2.336,1.223A9.232,9.232,0,0,0,239.9,94.15a17.646,17.646,0,0,0-3.739-.56A3.121,3.121,0,0,0,232.985,97.26Z" transform="translate(-231.614 -107.292)" fill="#ffd3bc"/>
      <path id="Trazado_1176157" data-name="Trazado 1176157" d="M105.17,253.03a17.523,17.523,0,0,0,11.709,5.136,3.128,3.128,0,0,0,.248-6.251,46.565,46.565,0,0,1-6.721-4.12c-1.989-1.989-2.983-6.469-2.983-9.075l-2.1,1.874a4.511,4.511,0,0,0-4.232,6.067A17.524,17.524,0,0,0,105.17,253.03Z" transform="translate(-113.784 -236.723)" fill="#f7e969"/>
      <ellipse id="Elipse_12083" data-name="Elipse 12083" cx="8.578" cy="10.465" rx="8.578" ry="10.465" transform="translate(-26.774 19.66) rotate(-45)" fill="#da9d81"/>
      <path id="Trazado_1176158" data-name="Trazado 1176158" d="M21.517,389.011a9.684,9.684,0,0,0-1.4-1.763,9.284,9.284,0,0,0-2.5-1.806,1.618,1.618,0,0,1-.772-.789,9.189,9.189,0,0,0-1.891-2.68,9.19,9.19,0,0,0-2.68-1.891,1.618,1.618,0,0,1-.789-.772,9.287,9.287,0,0,0-1.806-2.5,9.682,9.682,0,0,0-1.763-1.4c-1.084,3.351.272,7.23,3.321,10.279S18.166,390.1,21.517,389.011Z" transform="translate(-30.609 -358.628)" fill="#4677d4"/>
      <path id="Trazado_1176159" data-name="Trazado 1176159" d="M97.261,221.059a3.119,3.119,0,0,0,2.581-2.932,21.655,21.655,0,0,1,1.223-2.336,9.232,9.232,0,0,0-6.915-1.651,17.649,17.649,0,0,0-.56,3.739A3.121,3.121,0,0,0,97.261,221.059Z" transform="translate(-107.341 -214.737)" fill="#fdd1a3"/>
      <path id="Trazado_1176160" data-name="Trazado 1176160" d="M253.031,247.872a17.523,17.523,0,0,0,5.136-11.709,3.128,3.128,0,0,0-6.251-.248,46.567,46.567,0,0,1-4.12,6.721c-1.989,1.989-6.469,2.983-9.075,2.983l1.874,2.1a4.511,4.511,0,0,0,6.067,4.233A17.523,17.523,0,0,0,253.031,247.872Z" transform="translate(-236.772 -231.565)" fill="#4677d4"/>
      <path id="Trazado_1176161" data-name="Trazado 1176161" d="M221.06,353.185a3.119,3.119,0,0,0-2.932-2.581,21.652,21.652,0,0,1-2.336-1.223,9.232,9.232,0,0,0-1.651,6.915,17.653,17.653,0,0,0,3.739.56A3.121,3.121,0,0,0,221.06,353.185Z" transform="translate(-214.787 -335.413)" fill="#da9d81"/>
      <ellipse id="Elipse_12084" data-name="Elipse 12084" cx="10.465" cy="8.578" rx="10.465" ry="8.578" transform="translate(7.477 22.332) rotate(-45)" fill="#ffdcce"/>
      <path id="Trazado_1176162" data-name="Trazado 1176162" d="M353.186,232.984a3.119,3.119,0,0,0-2.581,2.932,21.663,21.663,0,0,1-1.223,2.336A9.232,9.232,0,0,0,356.3,239.9a17.652,17.652,0,0,0,.56-3.739A3.121,3.121,0,0,0,353.186,232.984Z" transform="translate(-335.462 -231.565)" fill="#ffdcce"/>
      <circle id="Elipse_12085" data-name="Elipse 12085" cx="11.332" cy="11.332" r="11.332" transform="translate(-7.51 -7.462)" fill="#59d5ff"/>
      <path id="Trazado_1176163" data-name="Trazado 1176163" d="M172.6,179.864c-11.8.661-17.622-10.288-15.5-15.283a11.333,11.333,0,1,0,15.5,15.283Z" transform="translate(-158.806 -170.606)" fill="#00c4fc"/>
      <path id="Trazado_1176164" data-name="Trazado 1176164" d="M276.806,261.482h-6.241a3.929,3.929,0,0,0-3.93,3.93,2.118,2.118,0,0,0,2.118,2.118.767.767,0,0,1,.767.767,4.141,4.141,0,0,0,1.031,2.738A11.334,11.334,0,0,0,276.806,261.482Z" transform="translate(-261.667 -257.023)" fill="#00cd8d"/>
      <path id="Trazado_1176165" data-name="Trazado 1176165" d="M270.551,294.847a11.383,11.383,0,0,0,4.908-4.752,15.726,15.726,0,0,1-8.683-1.912,3.929,3.929,0,0,0-.14,1.041,2.118,2.118,0,0,0,2.118,2.118.767.767,0,0,1,.767.767A4.141,4.141,0,0,0,270.551,294.847Z" transform="translate(-261.668 -280.836)" fill="#00b662"/>
      <path id="Trazado_1176166" data-name="Trazado 1176166" d="M388.4,7.605c1.035,3.651,2.639,5.987,5.265,6.451a.969.969,0,0,1,.789.789c.463,2.626,2.8,4.23,6.451,5.265.37-2.995-1-6.243-3.631-8.874s-5.879-4-8.874-3.631Z" transform="translate(-370.257 -30.559)" fill="#f5c956"/>
      <path id="Trazado_1176167" data-name="Trazado 1176167" d="M13.221,17.512a3.035,3.035,0,0,0,4.292-4.292c-1.185-1.185-4.372-2.083-5.373-1.081S12.036,16.326,13.221,17.512Z" transform="translate(-34.319 -34.269)" fill="#ff6e80"/>
      <path id="Trazado_1176168" data-name="Trazado 1176168" d="M157.949,195.712h-4.585a11.28,11.28,0,0,0-2.068,6.527c0,.148,0,.295.009.441h4.818a4.4,4.4,0,0,0,4.4-4.4A2.571,2.571,0,0,0,157.949,195.712Z" transform="translate(-158.806 -198.369)" fill="#00cd8d"/>
      <path id="Trazado_1176169" data-name="Trazado 1176169" d="M156.738,195.712h-3.375a11.28,11.28,0,0,0-2.068,6.527c0,.148,0,.295.009.441h4.818a4.38,4.38,0,0,0,3.021-1.2A12.727,12.727,0,0,1,156.738,195.712Z" transform="translate(-158.806 -198.369)" fill="#00b662"/>
      <path id="Trazado_1176170" data-name="Trazado 1176170" d="M44.925,13.87a.811.811,0,0,0-.111-1.619A1.549,1.549,0,0,1,43.16,10.6a.811.811,0,1,0-1.619-.111,3.172,3.172,0,0,0,3.384,3.384Zm-6.12-6.007a.809.809,0,0,0,.574-.238l.918-.918A.811.811,0,1,0,39.15,5.56l-.918.918a.811.811,0,0,0,.574,1.385ZM16.382,6.84a.811.811,0,0,0,0-1.147l-.918-.918a.811.811,0,1,0-1.147,1.147l.918.918A.811.811,0,0,0,16.382,6.84ZM9.8,11.467a.811.811,0,0,0-.111,1.619A3.172,3.172,0,0,0,13.073,9.7a.811.811,0,0,0-1.619.111A1.549,1.549,0,0,1,9.8,11.467ZM49.606,38.917a.811.811,0,1,0-1.148,1.148l.918.918a.811.811,0,0,0,1.148-1.147ZM48.934,17.18l.918-.918A.811.811,0,0,0,48.7,15.114l-.918.918a.811.811,0,0,0,1.148,1.147ZM10.374,41.654a.811.811,0,1,0,.111,1.619,1.549,1.549,0,0,1,1.654,1.654.811.811,0,0,0,.754.865l.057,0a.812.812,0,0,0,.809-.756,3.172,3.172,0,0,0-3.384-3.384ZM6.828,16.395a.811.811,0,0,0,0-1.147L5.91,14.33a.811.811,0,0,0-1.148,1.148l.918.918a.812.812,0,0,0,1.148,0Zm9.092,31.5L15,48.817a.811.811,0,1,0,1.148,1.148l.918-.918A.811.811,0,0,0,15.919,47.9ZM6.365,38.345l-.918.918A.811.811,0,0,0,6.595,40.41l.918-.918a.811.811,0,0,0-1.148-1.148ZM38.9,48.471a.811.811,0,0,0,0,1.148l.918.918a.811.811,0,1,0,1.148-1.147l-.918-.918A.811.811,0,0,0,38.9,48.471Zm5.914-14.016a18.543,18.543,0,0,0,1.265-5.982,3.879,3.879,0,0,0-1.275-3.041,5.269,5.269,0,0,0,.167-4.067c-.048-.132-.1-.264-.151-.4A8.557,8.557,0,0,0,52.8,18.558c4.228-4.228,2.944-10.334-1.334-14.612S41.079-1.615,36.853,2.611a9.082,9.082,0,0,0-1.717,2.355A4.762,4.762,0,0,0,28.66,9.34l-.2-.011a3.884,3.884,0,0,0-3.04,1.275,5.27,5.27,0,0,0-4.067-.167c-.132.048-.264.1-.4.152a8.558,8.558,0,0,0-2.412-7.978C15.47-.464,11.047-.821,6.9,1.63,5.361.642,2.412-.15,1.125,1.138s-.5,4.236.492,5.774a12.265,12.265,0,0,0-1.1,2.419.811.811,0,0,0,1.543.5,10.424,10.424,0,0,1,.733-1.7A3.846,3.846,0,0,0,8.125,2.8c3.215-1.729,6.692-1.625,9.273.956,3.581,3.581,2.281,8.7-1.334,12.318S7.328,20.993,3.746,17.411a6.928,6.928,0,0,1-2.068-4.138.811.811,0,0,0-1.611.194A8.628,8.628,0,0,0,2.6,18.558a8.558,8.558,0,0,0,7.982,2.411,18.542,18.542,0,0,0-1.264,5.982,3.879,3.879,0,0,0,1.275,3.04,5.27,5.27,0,0,0-.167,4.067q.073.2.151.4A8.558,8.558,0,0,0,2.6,36.866c-8.868,8.868,7.09,24.8,15.947,15.947a8.558,8.558,0,0,0,2.411-7.982A18.536,18.536,0,0,0,26.938,46.1a3.879,3.879,0,0,0,3.039-1.273,5.271,5.271,0,0,0,4.068.165q.2-.073.4-.151a8.558,8.558,0,0,0,2.412,7.977c3.454,3.454,8.326,3.3,12.45.471a.811.811,0,1,0-.918-1.338c-3.4,2.335-7.444,2.659-10.384-.281-3.581-3.581-2.281-8.7,1.334-12.318s8.737-4.914,12.318-1.334c3.306,3.306,2.456,7.963-.588,11.512A.811.811,0,1,0,52.3,50.582c3.927-4.578,4.129-10.09.5-13.716a8.558,8.558,0,0,0-7.983-2.411ZM6.5,6.511a2.226,2.226,0,0,1-3.145,0A5.358,5.358,0,0,1,2.209,4.146c-.248-1.072-.1-1.7.063-1.861s.789-.311,1.861-.063A5.361,5.361,0,0,1,6.5,3.366,2.226,2.226,0,0,1,6.5,6.511Zm43.82-1.418a10.838,10.838,0,0,1,3.453,7.217c-2.993-1.009-4.56-2.4-4.9-4.323A1.79,1.79,0,0,0,47.424,6.54C45.5,6.2,44.111,4.634,43.1,1.641A10.841,10.841,0,0,1,50.318,5.093ZM38,3.759A7.046,7.046,0,0,1,41.45,1.812c1.212,3.792,3.078,5.866,5.692,6.327a.158.158,0,0,1,.131.131c.461,2.614,2.534,4.481,6.327,5.693a7.047,7.047,0,0,1-1.948,3.448c-3.581,3.581-8.7,2.281-12.318-1.334S34.421,7.339,38,3.759Zm4.774,16.588a16.655,16.655,0,0,1,.676,1.578,3.665,3.665,0,0,1-.05,2.68,3.928,3.928,0,0,0-3.792.73,12.187,12.187,0,0,0-7.417-8.9,11.065,11.065,0,0,0,.855-4.619,16.651,16.651,0,0,1,2.017.824,14.861,14.861,0,0,0,7.711,7.712ZM34.556,6.479a8.963,8.963,0,0,0-.114,4.113,18.6,18.6,0,0,0-4.159-1.1,3.142,3.142,0,0,1,4.273-3.018Zm-6.162,4.472a16.806,16.806,0,0,1,3.011.4,9.69,9.69,0,0,1-.767,4.577,12.132,12.132,0,0,0-2.424-.349,2.317,2.317,0,0,1,.18-4.63Zm-15.772,9.4a14.861,14.861,0,0,0,7.712-7.711,16.673,16.673,0,0,1,1.578-.676,3.665,3.665,0,0,1,2.68.05A3.933,3.933,0,0,0,25.32,15.8a12.187,12.187,0,0,0-8.9,7.416,11.069,11.069,0,0,0-4.619-.855A16.64,16.64,0,0,1,12.623,20.348ZM23.02,22a1.762,1.762,0,0,1,1.76,1.76A3.589,3.589,0,0,1,21.2,27.342H17.186A10.454,10.454,0,0,1,18.871,22ZM10.938,27.018a16.8,16.8,0,0,1,.4-3.011,9.69,9.69,0,0,1,4.577.767,12.129,12.129,0,0,0-.349,2.424,2.317,2.317,0,0,1-4.63-.18ZM1.7,41.991a8.776,8.776,0,0,1,2.323,2.888,2.437,2.437,0,0,0,1.185,1.157A8.815,8.815,0,0,1,9.375,50.2a2.437,2.437,0,0,0,1.157,1.185,8.773,8.773,0,0,1,2.888,2.324C7.618,54.55.866,47.769,1.7,41.991Zm15.7,9.674a7.3,7.3,0,0,1-2.3,1.574,10.712,10.712,0,0,0-1.146-1.35,10.057,10.057,0,0,0-2.718-1.962.81.81,0,0,1-.386-.393,10.431,10.431,0,0,0-4.975-4.975.811.811,0,0,1-.393-.386,10.057,10.057,0,0,0-1.962-2.718,10.719,10.719,0,0,0-1.35-1.146,7.3,7.3,0,0,1,1.574-2.3c3.582-3.582,8.7-2.28,12.318,1.334S20.978,48.086,17.4,51.666Zm4.954-8.052a16.644,16.644,0,0,1-2.017-.824,14.861,14.861,0,0,0-7.711-7.712,16.685,16.685,0,0,1-.676-1.578A3.665,3.665,0,0,1,12,30.82a3.928,3.928,0,0,0,3.792-.73,12.188,12.188,0,0,0,7.416,8.9A11.067,11.067,0,0,0,22.352,43.613ZM27,44.474a16.807,16.807,0,0,1-3.011-.4A9.689,9.689,0,0,1,24.76,39.5a12.123,12.123,0,0,0,2.424.349,2.317,2.317,0,0,1-.18,4.63ZM17.254,28.965H21.2A5.214,5.214,0,0,0,26.4,23.757a3.386,3.386,0,0,0-3.383-3.383H20.168A10.515,10.515,0,0,1,38.217,27.49H32.775a4.746,4.746,0,0,0-4.741,4.741,2.933,2.933,0,0,0,2.885,2.929,4.96,4.96,0,0,0,.617,2.349,10.533,10.533,0,0,1-14.282-8.544Zm20.873.148A10.542,10.542,0,0,1,33,36.8a3.341,3.341,0,0,1-.456-1.684,1.58,1.58,0,0,0-1.578-1.578,1.308,1.308,0,0,1-1.306-1.306,3.122,3.122,0,0,1,3.118-3.118Zm4.65,5.965a14.86,14.86,0,0,0-7.712,7.711,16.647,16.647,0,0,1-1.578.676,3.665,3.665,0,0,1-2.68-.05,3.927,3.927,0,0,0-.731-3.792,12.188,12.188,0,0,0,8.9-7.416,11.074,11.074,0,0,0,4.619.856,16.676,16.676,0,0,1-.824,2.016Zm1.685-6.67a16.807,16.807,0,0,1-.4,3.011,9.69,9.69,0,0,1-4.577-.767,12.127,12.127,0,0,0,.349-2.424,2.317,2.317,0,0,1,4.63.18Zm1.025,15.438a.811.811,0,1,0,.111-1.619,3.172,3.172,0,0,0-3.384,3.384.811.811,0,0,0,.809.756l.056,0a.811.811,0,0,0,.754-.865,1.549,1.549,0,0,1,1.654-1.654Z" transform="translate(-23.877 -23.842)"/>
    </g>
  </g>
</svg>
